M48
; DRILL file {KiCad (5.1.4)-1} date 01/01/2023 20:42:39
; FORMAT={-:-/ absolute / inch / decimal}
; #@! TF.CreationDate,2023-01-01T20:42:39-03:00
; #@! TF.GenerationSoftware,Kicad,Pcbnew,(5.1.4)-1
; #@! TF.FileFunction,Plated,1,2,PTH
FMAT,2
INCH
T1C0.0157
T2C0.0276
T3C0.0409
T4C0.0579
%
G90
G05
T1
X2.238Y-3.194
X2.3Y-2.455
X2.4438Y-2.3712
X2.575Y-3.0
X2.645Y-3.13
X2.95Y-3.35
X3.2488Y-2.6038
T3
X4.3875Y-2.6375
X4.4875Y-2.6375
X3.6375Y-3.3875
X3.7375Y-3.3875
X4.3875Y-3.3875
X4.4875Y-3.3875
X3.6375Y-2.6375
X3.7375Y-2.6375
T4
X4.2875Y-2.3375
X4.3391Y-2.28
X4.5359Y-2.2603
X4.5375Y-2.2375
X3.5375Y-3.0875
X3.5891Y-3.03
X3.7859Y-3.0103
X3.7875Y-2.9875
X4.2875Y-3.0875
X4.3391Y-3.03
X4.5359Y-3.0103
X4.5375Y-2.9875
X3.5375Y-2.3375
X3.5891Y-2.28
X3.7859Y-2.2603
X3.7875Y-2.2375
T2
G00X1.8863Y-2.0964
M15
G01X1.8863Y-2.1436
M16
G05
G00X1.8863Y-2.2735
M15
G01X1.8863Y-2.3208
M16
G05
G00X2.1737Y-2.0964
M15
G01X2.1737Y-2.1436
M16
G05
G00X2.1737Y-2.2735
M15
G01X2.1737Y-2.3208
M16
G05
T0
M30
