G04 #@! TF.GenerationSoftware,KiCad,Pcbnew,(5.1.4)-1*
G04 #@! TF.CreationDate,2023-01-01T20:42:33-03:00*
G04 #@! TF.ProjectId,osukeypad-pcb,6f73756b-6579-4706-9164-2d7063622e6b,rev?*
G04 #@! TF.SameCoordinates,Original*
G04 #@! TF.FileFunction,Copper,L1,Top*
G04 #@! TF.FilePolarity,Positive*
%FSLAX46Y46*%
G04 Gerber Fmt 4.6, Leading zero omitted, Abs format (unit mm)*
G04 Created by KiCad (PCBNEW (5.1.4)-1) date 2023-01-01 20:42:33*
%MOMM*%
%LPD*%
G04 APERTURE LIST*
%ADD10R,1.905000X1.905000*%
%ADD11C,1.905000*%
%ADD12C,2.250000*%
%ADD13C,2.250000*%
%ADD14O,1.700000X2.700000*%
%ADD15C,0.800000*%
%ADD16C,0.300000*%
%ADD17C,0.400000*%
%ADD18C,0.250000*%
G04 APERTURE END LIST*
D10*
X113982500Y-66992500D03*
D11*
X111442500Y-66992500D03*
D12*
X110212500Y-57912500D03*
X109557501Y-58642500D03*
D13*
X108902500Y-59372500D02*
X110212502Y-57912500D01*
D12*
X115252500Y-56832500D03*
X115232500Y-57122500D03*
D13*
X115212500Y-57412500D02*
X115252500Y-56832500D01*
D14*
X47912000Y-53848000D03*
X55212000Y-53848000D03*
X55212000Y-58348000D03*
X47912000Y-58348000D03*
D10*
X113982500Y-86042500D03*
D11*
X111442500Y-86042500D03*
D12*
X110212500Y-76962500D03*
X109557501Y-77692500D03*
D13*
X108902500Y-78422500D02*
X110212502Y-76962500D01*
D12*
X115252500Y-75882500D03*
X115232500Y-76172500D03*
D13*
X115212500Y-76462500D02*
X115252500Y-75882500D01*
D10*
X94932500Y-86042500D03*
D11*
X92392500Y-86042500D03*
D12*
X91162500Y-76962500D03*
X90507501Y-77692500D03*
D13*
X89852500Y-78422500D02*
X91162502Y-76962500D01*
D12*
X96202500Y-75882500D03*
X96182500Y-76172500D03*
D13*
X96162500Y-76462500D02*
X96202500Y-75882500D01*
D10*
X94932500Y-66992500D03*
D11*
X92392500Y-66992500D03*
D12*
X91162500Y-57912500D03*
X90507501Y-58642500D03*
D13*
X89852500Y-59372500D02*
X91162502Y-57912500D01*
D12*
X96202500Y-56832500D03*
X96182500Y-57122500D03*
D13*
X96162500Y-57412500D02*
X96202500Y-56832500D01*
D15*
X65405000Y-76200000D03*
X74930000Y-85090000D03*
X67183000Y-79502000D03*
X82520000Y-66137000D03*
X62071250Y-60229750D03*
X58420000Y-62357000D03*
X56845200Y-81127600D03*
D16*
X62071250Y-60229750D02*
X62071250Y-74390250D01*
X74930000Y-82931000D02*
X74930000Y-85090000D01*
X74930000Y-85090000D02*
X82550000Y-85090000D01*
X82520000Y-85060000D02*
X82520000Y-66137000D01*
X82550000Y-85090000D02*
X82520000Y-85060000D01*
X64878001Y-76599999D02*
X64579500Y-76898500D01*
X65005001Y-76599999D02*
X64878001Y-76599999D01*
X65405000Y-76200000D02*
X65005001Y-76599999D01*
X62071250Y-74390250D02*
X64579500Y-76898500D01*
X64579500Y-76898500D02*
X67183000Y-79502000D01*
X69342000Y-81661000D02*
X70612000Y-82931000D01*
X67183000Y-79502000D02*
X69342000Y-81661000D01*
X70612000Y-82931000D02*
X74930000Y-82931000D01*
D17*
X89857501Y-78417499D02*
X89852500Y-78422500D01*
D18*
X89852500Y-61277500D02*
X89852500Y-78422500D01*
X89852500Y-59372500D02*
X89852500Y-61277500D01*
D17*
X108907501Y-78417499D02*
X108902500Y-78422500D01*
X108902500Y-59372500D02*
X108907501Y-59377501D01*
D18*
X108902500Y-59372500D02*
X108902500Y-78422500D01*
X56845200Y-63931800D02*
X58420000Y-62357000D01*
X56845200Y-81127600D02*
X56845200Y-63931800D01*
M02*
