G04 #@! TF.GenerationSoftware,KiCad,Pcbnew,(5.1.4)-1*
G04 #@! TF.CreationDate,2023-01-01T20:42:33-03:00*
G04 #@! TF.ProjectId,osukeypad-pcb,6f73756b-6579-4706-9164-2d7063622e6b,rev?*
G04 #@! TF.SameCoordinates,Original*
G04 #@! TF.FileFunction,Soldermask,Top*
G04 #@! TF.FilePolarity,Negative*
%FSLAX46Y46*%
G04 Gerber Fmt 4.6, Leading zero omitted, Abs format (unit mm)*
G04 Created by KiCad (PCBNEW (5.1.4)-1) date 2023-01-01 20:42:33*
%MOMM*%
%LPD*%
G04 APERTURE LIST*
%ADD10C,0.100000*%
G04 APERTURE END LIST*
D10*
G36*
X94258974Y-78996184D02*
G01*
X94476974Y-79086483D01*
X94631123Y-79150333D01*
X94966048Y-79374123D01*
X95250877Y-79658952D01*
X95474667Y-79993877D01*
X95507062Y-80072086D01*
X95628816Y-80366026D01*
X95707400Y-80761094D01*
X95707400Y-81163906D01*
X95628816Y-81558974D01*
X95577951Y-81681772D01*
X95474667Y-81931123D01*
X95250877Y-82266048D01*
X94966048Y-82550877D01*
X94631123Y-82774667D01*
X94476974Y-82838517D01*
X94258974Y-82928816D01*
X93863906Y-83007400D01*
X93461094Y-83007400D01*
X93066026Y-82928816D01*
X92848026Y-82838517D01*
X92693877Y-82774667D01*
X92358952Y-82550877D01*
X92074123Y-82266048D01*
X91850333Y-81931123D01*
X91747049Y-81681772D01*
X91696184Y-81558974D01*
X91617600Y-81163906D01*
X91617600Y-80761094D01*
X91696184Y-80366026D01*
X91817938Y-80072086D01*
X91850333Y-79993877D01*
X92074123Y-79658952D01*
X92358952Y-79374123D01*
X92693877Y-79150333D01*
X92848026Y-79086483D01*
X93066026Y-78996184D01*
X93461094Y-78917600D01*
X93863906Y-78917600D01*
X94258974Y-78996184D01*
X94258974Y-78996184D01*
G37*
G36*
X113308974Y-78996184D02*
G01*
X113526974Y-79086483D01*
X113681123Y-79150333D01*
X114016048Y-79374123D01*
X114300877Y-79658952D01*
X114524667Y-79993877D01*
X114557062Y-80072086D01*
X114678816Y-80366026D01*
X114757400Y-80761094D01*
X114757400Y-81163906D01*
X114678816Y-81558974D01*
X114627951Y-81681772D01*
X114524667Y-81931123D01*
X114300877Y-82266048D01*
X114016048Y-82550877D01*
X113681123Y-82774667D01*
X113526974Y-82838517D01*
X113308974Y-82928816D01*
X112913906Y-83007400D01*
X112511094Y-83007400D01*
X112116026Y-82928816D01*
X111898026Y-82838517D01*
X111743877Y-82774667D01*
X111408952Y-82550877D01*
X111124123Y-82266048D01*
X110900333Y-81931123D01*
X110797049Y-81681772D01*
X110746184Y-81558974D01*
X110667600Y-81163906D01*
X110667600Y-80761094D01*
X110746184Y-80366026D01*
X110867938Y-80072086D01*
X110900333Y-79993877D01*
X111124123Y-79658952D01*
X111408952Y-79374123D01*
X111743877Y-79150333D01*
X111898026Y-79086483D01*
X112116026Y-78996184D01*
X112511094Y-78917600D01*
X112913906Y-78917600D01*
X113308974Y-78996184D01*
X113308974Y-78996184D01*
G37*
G36*
X118062604Y-80072085D02*
G01*
X118231126Y-80141889D01*
X118382791Y-80243228D01*
X118511772Y-80372209D01*
X118613111Y-80523874D01*
X118682915Y-80692396D01*
X118718500Y-80871297D01*
X118718500Y-81053703D01*
X118682915Y-81232604D01*
X118613111Y-81401126D01*
X118511772Y-81552791D01*
X118382791Y-81681772D01*
X118231126Y-81783111D01*
X118062604Y-81852915D01*
X117883703Y-81888500D01*
X117701297Y-81888500D01*
X117522396Y-81852915D01*
X117353874Y-81783111D01*
X117202209Y-81681772D01*
X117073228Y-81552791D01*
X116971889Y-81401126D01*
X116902085Y-81232604D01*
X116866500Y-81053703D01*
X116866500Y-80871297D01*
X116902085Y-80692396D01*
X116971889Y-80523874D01*
X117073228Y-80372209D01*
X117202209Y-80243228D01*
X117353874Y-80141889D01*
X117522396Y-80072085D01*
X117701297Y-80036500D01*
X117883703Y-80036500D01*
X118062604Y-80072085D01*
X118062604Y-80072085D01*
G37*
G36*
X107902604Y-80072085D02*
G01*
X108071126Y-80141889D01*
X108222791Y-80243228D01*
X108351772Y-80372209D01*
X108453111Y-80523874D01*
X108522915Y-80692396D01*
X108558500Y-80871297D01*
X108558500Y-81053703D01*
X108522915Y-81232604D01*
X108453111Y-81401126D01*
X108351772Y-81552791D01*
X108222791Y-81681772D01*
X108071126Y-81783111D01*
X107902604Y-81852915D01*
X107723703Y-81888500D01*
X107541297Y-81888500D01*
X107362396Y-81852915D01*
X107193874Y-81783111D01*
X107042209Y-81681772D01*
X106913228Y-81552791D01*
X106811889Y-81401126D01*
X106742085Y-81232604D01*
X106706500Y-81053703D01*
X106706500Y-80871297D01*
X106742085Y-80692396D01*
X106811889Y-80523874D01*
X106913228Y-80372209D01*
X107042209Y-80243228D01*
X107193874Y-80141889D01*
X107362396Y-80072085D01*
X107541297Y-80036500D01*
X107723703Y-80036500D01*
X107902604Y-80072085D01*
X107902604Y-80072085D01*
G37*
G36*
X99012604Y-80072085D02*
G01*
X99181126Y-80141889D01*
X99332791Y-80243228D01*
X99461772Y-80372209D01*
X99563111Y-80523874D01*
X99632915Y-80692396D01*
X99668500Y-80871297D01*
X99668500Y-81053703D01*
X99632915Y-81232604D01*
X99563111Y-81401126D01*
X99461772Y-81552791D01*
X99332791Y-81681772D01*
X99181126Y-81783111D01*
X99012604Y-81852915D01*
X98833703Y-81888500D01*
X98651297Y-81888500D01*
X98472396Y-81852915D01*
X98303874Y-81783111D01*
X98152209Y-81681772D01*
X98023228Y-81552791D01*
X97921889Y-81401126D01*
X97852085Y-81232604D01*
X97816500Y-81053703D01*
X97816500Y-80871297D01*
X97852085Y-80692396D01*
X97921889Y-80523874D01*
X98023228Y-80372209D01*
X98152209Y-80243228D01*
X98303874Y-80141889D01*
X98472396Y-80072085D01*
X98651297Y-80036500D01*
X98833703Y-80036500D01*
X99012604Y-80072085D01*
X99012604Y-80072085D01*
G37*
G36*
X88852604Y-80072085D02*
G01*
X89021126Y-80141889D01*
X89172791Y-80243228D01*
X89301772Y-80372209D01*
X89403111Y-80523874D01*
X89472915Y-80692396D01*
X89508500Y-80871297D01*
X89508500Y-81053703D01*
X89472915Y-81232604D01*
X89403111Y-81401126D01*
X89301772Y-81552791D01*
X89172791Y-81681772D01*
X89021126Y-81783111D01*
X88852604Y-81852915D01*
X88673703Y-81888500D01*
X88491297Y-81888500D01*
X88312396Y-81852915D01*
X88143874Y-81783111D01*
X87992209Y-81681772D01*
X87863228Y-81552791D01*
X87761889Y-81401126D01*
X87692085Y-81232604D01*
X87656500Y-81053703D01*
X87656500Y-80871297D01*
X87692085Y-80692396D01*
X87761889Y-80523874D01*
X87863228Y-80372209D01*
X87992209Y-80243228D01*
X88143874Y-80141889D01*
X88312396Y-80072085D01*
X88491297Y-80036500D01*
X88673703Y-80036500D01*
X88852604Y-80072085D01*
X88852604Y-80072085D01*
G37*
G36*
X94258974Y-59946184D02*
G01*
X94476974Y-60036483D01*
X94631123Y-60100333D01*
X94966048Y-60324123D01*
X95250877Y-60608952D01*
X95474667Y-60943877D01*
X95507062Y-61022086D01*
X95628816Y-61316026D01*
X95707400Y-61711094D01*
X95707400Y-62113906D01*
X95628816Y-62508974D01*
X95577951Y-62631772D01*
X95474667Y-62881123D01*
X95250877Y-63216048D01*
X94966048Y-63500877D01*
X94631123Y-63724667D01*
X94476974Y-63788517D01*
X94258974Y-63878816D01*
X93863906Y-63957400D01*
X93461094Y-63957400D01*
X93066026Y-63878816D01*
X92848026Y-63788517D01*
X92693877Y-63724667D01*
X92358952Y-63500877D01*
X92074123Y-63216048D01*
X91850333Y-62881123D01*
X91747049Y-62631772D01*
X91696184Y-62508974D01*
X91617600Y-62113906D01*
X91617600Y-61711094D01*
X91696184Y-61316026D01*
X91817938Y-61022086D01*
X91850333Y-60943877D01*
X92074123Y-60608952D01*
X92358952Y-60324123D01*
X92693877Y-60100333D01*
X92848026Y-60036483D01*
X93066026Y-59946184D01*
X93461094Y-59867600D01*
X93863906Y-59867600D01*
X94258974Y-59946184D01*
X94258974Y-59946184D01*
G37*
G36*
X113308974Y-59946184D02*
G01*
X113526974Y-60036483D01*
X113681123Y-60100333D01*
X114016048Y-60324123D01*
X114300877Y-60608952D01*
X114524667Y-60943877D01*
X114557062Y-61022086D01*
X114678816Y-61316026D01*
X114757400Y-61711094D01*
X114757400Y-62113906D01*
X114678816Y-62508974D01*
X114627951Y-62631772D01*
X114524667Y-62881123D01*
X114300877Y-63216048D01*
X114016048Y-63500877D01*
X113681123Y-63724667D01*
X113526974Y-63788517D01*
X113308974Y-63878816D01*
X112913906Y-63957400D01*
X112511094Y-63957400D01*
X112116026Y-63878816D01*
X111898026Y-63788517D01*
X111743877Y-63724667D01*
X111408952Y-63500877D01*
X111124123Y-63216048D01*
X110900333Y-62881123D01*
X110797049Y-62631772D01*
X110746184Y-62508974D01*
X110667600Y-62113906D01*
X110667600Y-61711094D01*
X110746184Y-61316026D01*
X110867938Y-61022086D01*
X110900333Y-60943877D01*
X111124123Y-60608952D01*
X111408952Y-60324123D01*
X111743877Y-60100333D01*
X111898026Y-60036483D01*
X112116026Y-59946184D01*
X112511094Y-59867600D01*
X112913906Y-59867600D01*
X113308974Y-59946184D01*
X113308974Y-59946184D01*
G37*
G36*
X118062604Y-61022085D02*
G01*
X118231126Y-61091889D01*
X118382791Y-61193228D01*
X118511772Y-61322209D01*
X118613111Y-61473874D01*
X118682915Y-61642396D01*
X118718500Y-61821297D01*
X118718500Y-62003703D01*
X118682915Y-62182604D01*
X118613111Y-62351126D01*
X118511772Y-62502791D01*
X118382791Y-62631772D01*
X118231126Y-62733111D01*
X118062604Y-62802915D01*
X117883703Y-62838500D01*
X117701297Y-62838500D01*
X117522396Y-62802915D01*
X117353874Y-62733111D01*
X117202209Y-62631772D01*
X117073228Y-62502791D01*
X116971889Y-62351126D01*
X116902085Y-62182604D01*
X116866500Y-62003703D01*
X116866500Y-61821297D01*
X116902085Y-61642396D01*
X116971889Y-61473874D01*
X117073228Y-61322209D01*
X117202209Y-61193228D01*
X117353874Y-61091889D01*
X117522396Y-61022085D01*
X117701297Y-60986500D01*
X117883703Y-60986500D01*
X118062604Y-61022085D01*
X118062604Y-61022085D01*
G37*
G36*
X107902604Y-61022085D02*
G01*
X108071126Y-61091889D01*
X108222791Y-61193228D01*
X108351772Y-61322209D01*
X108453111Y-61473874D01*
X108522915Y-61642396D01*
X108558500Y-61821297D01*
X108558500Y-62003703D01*
X108522915Y-62182604D01*
X108453111Y-62351126D01*
X108351772Y-62502791D01*
X108222791Y-62631772D01*
X108071126Y-62733111D01*
X107902604Y-62802915D01*
X107723703Y-62838500D01*
X107541297Y-62838500D01*
X107362396Y-62802915D01*
X107193874Y-62733111D01*
X107042209Y-62631772D01*
X106913228Y-62502791D01*
X106811889Y-62351126D01*
X106742085Y-62182604D01*
X106706500Y-62003703D01*
X106706500Y-61821297D01*
X106742085Y-61642396D01*
X106811889Y-61473874D01*
X106913228Y-61322209D01*
X107042209Y-61193228D01*
X107193874Y-61091889D01*
X107362396Y-61022085D01*
X107541297Y-60986500D01*
X107723703Y-60986500D01*
X107902604Y-61022085D01*
X107902604Y-61022085D01*
G37*
G36*
X88852604Y-61022085D02*
G01*
X89021126Y-61091889D01*
X89172791Y-61193228D01*
X89301772Y-61322209D01*
X89403111Y-61473874D01*
X89472915Y-61642396D01*
X89508500Y-61821297D01*
X89508500Y-62003703D01*
X89472915Y-62182604D01*
X89403111Y-62351126D01*
X89301772Y-62502791D01*
X89172791Y-62631772D01*
X89021126Y-62733111D01*
X88852604Y-62802915D01*
X88673703Y-62838500D01*
X88491297Y-62838500D01*
X88312396Y-62802915D01*
X88143874Y-62733111D01*
X87992209Y-62631772D01*
X87863228Y-62502791D01*
X87761889Y-62351126D01*
X87692085Y-62182604D01*
X87656500Y-62003703D01*
X87656500Y-61821297D01*
X87692085Y-61642396D01*
X87761889Y-61473874D01*
X87863228Y-61322209D01*
X87992209Y-61193228D01*
X88143874Y-61091889D01*
X88312396Y-61022085D01*
X88491297Y-60986500D01*
X88673703Y-60986500D01*
X88852604Y-61022085D01*
X88852604Y-61022085D01*
G37*
G36*
X99012604Y-61022085D02*
G01*
X99181126Y-61091889D01*
X99332791Y-61193228D01*
X99461772Y-61322209D01*
X99563111Y-61473874D01*
X99632915Y-61642396D01*
X99668500Y-61821297D01*
X99668500Y-62003703D01*
X99632915Y-62182604D01*
X99563111Y-62351126D01*
X99461772Y-62502791D01*
X99332791Y-62631772D01*
X99181126Y-62733111D01*
X99012604Y-62802915D01*
X98833703Y-62838500D01*
X98651297Y-62838500D01*
X98472396Y-62802915D01*
X98303874Y-62733111D01*
X98152209Y-62631772D01*
X98023228Y-62502791D01*
X97921889Y-62351126D01*
X97852085Y-62182604D01*
X97816500Y-62003703D01*
X97816500Y-61821297D01*
X97852085Y-61642396D01*
X97921889Y-61473874D01*
X98023228Y-61322209D01*
X98152209Y-61193228D01*
X98303874Y-61091889D01*
X98472396Y-61022085D01*
X98651297Y-60986500D01*
X98833703Y-60986500D01*
X99012604Y-61022085D01*
X99012604Y-61022085D01*
G37*
G36*
X48088627Y-56960037D02*
G01*
X48258466Y-57011557D01*
X48414991Y-57095222D01*
X48450729Y-57124552D01*
X48552186Y-57207814D01*
X48635448Y-57309271D01*
X48664778Y-57345009D01*
X48748443Y-57501534D01*
X48799963Y-57671373D01*
X48813000Y-57803742D01*
X48813000Y-58892258D01*
X48799963Y-59024627D01*
X48748443Y-59194466D01*
X48664778Y-59350991D01*
X48635448Y-59386729D01*
X48552186Y-59488186D01*
X48414989Y-59600779D01*
X48258467Y-59684442D01*
X48258465Y-59684443D01*
X48088626Y-59735963D01*
X47912000Y-59753359D01*
X47735373Y-59735963D01*
X47565534Y-59684443D01*
X47409009Y-59600778D01*
X47373271Y-59571448D01*
X47271814Y-59488186D01*
X47159221Y-59350989D01*
X47075558Y-59194467D01*
X47075557Y-59194465D01*
X47024037Y-59024626D01*
X47011000Y-58892257D01*
X47011001Y-57803742D01*
X47024038Y-57671373D01*
X47075558Y-57501534D01*
X47159223Y-57345009D01*
X47188553Y-57309271D01*
X47271815Y-57207814D01*
X47373272Y-57124552D01*
X47409010Y-57095222D01*
X47565535Y-57011557D01*
X47735374Y-56960037D01*
X47912000Y-56942641D01*
X48088627Y-56960037D01*
X48088627Y-56960037D01*
G37*
G36*
X55388627Y-56960037D02*
G01*
X55558466Y-57011557D01*
X55714991Y-57095222D01*
X55750729Y-57124552D01*
X55852186Y-57207814D01*
X55935448Y-57309271D01*
X55964778Y-57345009D01*
X56048443Y-57501534D01*
X56099963Y-57671373D01*
X56113000Y-57803742D01*
X56113000Y-58892258D01*
X56099963Y-59024627D01*
X56048443Y-59194466D01*
X55964778Y-59350991D01*
X55935448Y-59386729D01*
X55852186Y-59488186D01*
X55714989Y-59600779D01*
X55558467Y-59684442D01*
X55558465Y-59684443D01*
X55388626Y-59735963D01*
X55212000Y-59753359D01*
X55035373Y-59735963D01*
X54865534Y-59684443D01*
X54709009Y-59600778D01*
X54673271Y-59571448D01*
X54571814Y-59488186D01*
X54459221Y-59350989D01*
X54375558Y-59194467D01*
X54375557Y-59194465D01*
X54324037Y-59024626D01*
X54311000Y-58892257D01*
X54311001Y-57803742D01*
X54324038Y-57671373D01*
X54375558Y-57501534D01*
X54459223Y-57345009D01*
X54488553Y-57309271D01*
X54571815Y-57207814D01*
X54673272Y-57124552D01*
X54709010Y-57095222D01*
X54865535Y-57011557D01*
X55035374Y-56960037D01*
X55212000Y-56942641D01*
X55388627Y-56960037D01*
X55388627Y-56960037D01*
G37*
G36*
X48088627Y-52460037D02*
G01*
X48258466Y-52511557D01*
X48414991Y-52595222D01*
X48450729Y-52624552D01*
X48552186Y-52707814D01*
X48635448Y-52809271D01*
X48664778Y-52845009D01*
X48748443Y-53001534D01*
X48799963Y-53171373D01*
X48813000Y-53303742D01*
X48813000Y-54392258D01*
X48799963Y-54524627D01*
X48748443Y-54694466D01*
X48664778Y-54850991D01*
X48635448Y-54886729D01*
X48552186Y-54988186D01*
X48414989Y-55100779D01*
X48258467Y-55184442D01*
X48258465Y-55184443D01*
X48088626Y-55235963D01*
X47912000Y-55253359D01*
X47735373Y-55235963D01*
X47565534Y-55184443D01*
X47409009Y-55100778D01*
X47373271Y-55071448D01*
X47271814Y-54988186D01*
X47159221Y-54850989D01*
X47075558Y-54694467D01*
X47075557Y-54694465D01*
X47024037Y-54524626D01*
X47011000Y-54392257D01*
X47011001Y-53303742D01*
X47024038Y-53171373D01*
X47075558Y-53001534D01*
X47159223Y-52845009D01*
X47188553Y-52809271D01*
X47271815Y-52707814D01*
X47373272Y-52624552D01*
X47409010Y-52595222D01*
X47565535Y-52511557D01*
X47735374Y-52460037D01*
X47912000Y-52442641D01*
X48088627Y-52460037D01*
X48088627Y-52460037D01*
G37*
G36*
X55388627Y-52460037D02*
G01*
X55558466Y-52511557D01*
X55714991Y-52595222D01*
X55750729Y-52624552D01*
X55852186Y-52707814D01*
X55935448Y-52809271D01*
X55964778Y-52845009D01*
X56048443Y-53001534D01*
X56099963Y-53171373D01*
X56113000Y-53303742D01*
X56113000Y-54392258D01*
X56099963Y-54524627D01*
X56048443Y-54694466D01*
X55964778Y-54850991D01*
X55935448Y-54886729D01*
X55852186Y-54988186D01*
X55714989Y-55100779D01*
X55558467Y-55184442D01*
X55558465Y-55184443D01*
X55388626Y-55235963D01*
X55212000Y-55253359D01*
X55035373Y-55235963D01*
X54865534Y-55184443D01*
X54709009Y-55100778D01*
X54673271Y-55071448D01*
X54571814Y-54988186D01*
X54459221Y-54850989D01*
X54375558Y-54694467D01*
X54375557Y-54694465D01*
X54324037Y-54524626D01*
X54311000Y-54392257D01*
X54311001Y-53303742D01*
X54324038Y-53171373D01*
X54375558Y-53001534D01*
X54459223Y-52845009D01*
X54488553Y-52809271D01*
X54571815Y-52707814D01*
X54673272Y-52624552D01*
X54709010Y-52595222D01*
X54865535Y-52511557D01*
X55035374Y-52460037D01*
X55212000Y-52442641D01*
X55388627Y-52460037D01*
X55388627Y-52460037D01*
G37*
M02*
