G04 #@! TF.GenerationSoftware,KiCad,Pcbnew,(5.1.4)-1*
G04 #@! TF.CreationDate,2023-01-01T20:42:33-03:00*
G04 #@! TF.ProjectId,osukeypad-pcb,6f73756b-6579-4706-9164-2d7063622e6b,rev?*
G04 #@! TF.SameCoordinates,Original*
G04 #@! TF.FileFunction,Soldermask,Bot*
G04 #@! TF.FilePolarity,Negative*
%FSLAX46Y46*%
G04 Gerber Fmt 4.6, Leading zero omitted, Abs format (unit mm)*
G04 Created by KiCad (PCBNEW (5.1.4)-1) date 2023-01-01 20:42:33*
%MOMM*%
%LPD*%
G04 APERTURE LIST*
%ADD10C,0.100000*%
G04 APERTURE END LIST*
D10*
G36*
X92518925Y-85044488D02*
G01*
X92685210Y-85077563D01*
X92867836Y-85153209D01*
X93032194Y-85263030D01*
X93171970Y-85402806D01*
X93281791Y-85567164D01*
X93357437Y-85749790D01*
X93396000Y-85943664D01*
X93396000Y-86141336D01*
X93357437Y-86335210D01*
X93281791Y-86517836D01*
X93171970Y-86682194D01*
X93032194Y-86821970D01*
X92867836Y-86931791D01*
X92685210Y-87007437D01*
X92518925Y-87040512D01*
X92491337Y-87046000D01*
X92293663Y-87046000D01*
X92266075Y-87040512D01*
X92099790Y-87007437D01*
X91917164Y-86931791D01*
X91752806Y-86821970D01*
X91613030Y-86682194D01*
X91503209Y-86517836D01*
X91427563Y-86335210D01*
X91389000Y-86141336D01*
X91389000Y-85943664D01*
X91427563Y-85749790D01*
X91503209Y-85567164D01*
X91613030Y-85402806D01*
X91752806Y-85263030D01*
X91917164Y-85153209D01*
X92099790Y-85077563D01*
X92266075Y-85044488D01*
X92293663Y-85039000D01*
X92491337Y-85039000D01*
X92518925Y-85044488D01*
X92518925Y-85044488D01*
G37*
G36*
X111568925Y-85044488D02*
G01*
X111735210Y-85077563D01*
X111917836Y-85153209D01*
X112082194Y-85263030D01*
X112221970Y-85402806D01*
X112331791Y-85567164D01*
X112407437Y-85749790D01*
X112446000Y-85943664D01*
X112446000Y-86141336D01*
X112407437Y-86335210D01*
X112331791Y-86517836D01*
X112221970Y-86682194D01*
X112082194Y-86821970D01*
X111917836Y-86931791D01*
X111735210Y-87007437D01*
X111568925Y-87040512D01*
X111541337Y-87046000D01*
X111343663Y-87046000D01*
X111316075Y-87040512D01*
X111149790Y-87007437D01*
X110967164Y-86931791D01*
X110802806Y-86821970D01*
X110663030Y-86682194D01*
X110553209Y-86517836D01*
X110477563Y-86335210D01*
X110439000Y-86141336D01*
X110439000Y-85943664D01*
X110477563Y-85749790D01*
X110553209Y-85567164D01*
X110663030Y-85402806D01*
X110802806Y-85263030D01*
X110967164Y-85153209D01*
X111149790Y-85077563D01*
X111316075Y-85044488D01*
X111343663Y-85039000D01*
X111541337Y-85039000D01*
X111568925Y-85044488D01*
X111568925Y-85044488D01*
G37*
G36*
X114986000Y-87046000D02*
G01*
X112979000Y-87046000D01*
X112979000Y-85039000D01*
X114986000Y-85039000D01*
X114986000Y-87046000D01*
X114986000Y-87046000D01*
G37*
G36*
X95936000Y-87046000D02*
G01*
X93929000Y-87046000D01*
X93929000Y-85039000D01*
X95936000Y-85039000D01*
X95936000Y-87046000D01*
X95936000Y-87046000D01*
G37*
G36*
X71775968Y-84407065D02*
G01*
X71814638Y-84418796D01*
X71850277Y-84437846D01*
X71881517Y-84463483D01*
X71907154Y-84494723D01*
X71926204Y-84530362D01*
X71937935Y-84569032D01*
X71942500Y-84615388D01*
X71942500Y-85691612D01*
X71937935Y-85737968D01*
X71926204Y-85776638D01*
X71907154Y-85812277D01*
X71881517Y-85843517D01*
X71850277Y-85869154D01*
X71814638Y-85888204D01*
X71775968Y-85899935D01*
X71729612Y-85904500D01*
X71078388Y-85904500D01*
X71032032Y-85899935D01*
X70993362Y-85888204D01*
X70957723Y-85869154D01*
X70926483Y-85843517D01*
X70900846Y-85812277D01*
X70881796Y-85776638D01*
X70870065Y-85737968D01*
X70865500Y-85691612D01*
X70865500Y-84615388D01*
X70870065Y-84569032D01*
X70881796Y-84530362D01*
X70900846Y-84494723D01*
X70926483Y-84463483D01*
X70957723Y-84437846D01*
X70993362Y-84418796D01*
X71032032Y-84407065D01*
X71078388Y-84402500D01*
X71729612Y-84402500D01*
X71775968Y-84407065D01*
X71775968Y-84407065D01*
G37*
G36*
X73650968Y-84407065D02*
G01*
X73689638Y-84418796D01*
X73725277Y-84437846D01*
X73756517Y-84463483D01*
X73782154Y-84494723D01*
X73801204Y-84530362D01*
X73812935Y-84569032D01*
X73817500Y-84615388D01*
X73817500Y-85691612D01*
X73812935Y-85737968D01*
X73801204Y-85776638D01*
X73782154Y-85812277D01*
X73756517Y-85843517D01*
X73725277Y-85869154D01*
X73689638Y-85888204D01*
X73650968Y-85899935D01*
X73604612Y-85904500D01*
X72953388Y-85904500D01*
X72907032Y-85899935D01*
X72868362Y-85888204D01*
X72832723Y-85869154D01*
X72801483Y-85843517D01*
X72775846Y-85812277D01*
X72756796Y-85776638D01*
X72745065Y-85737968D01*
X72740500Y-85691612D01*
X72740500Y-84615388D01*
X72745065Y-84569032D01*
X72756796Y-84530362D01*
X72775846Y-84494723D01*
X72801483Y-84463483D01*
X72832723Y-84437846D01*
X72868362Y-84418796D01*
X72907032Y-84407065D01*
X72953388Y-84402500D01*
X73604612Y-84402500D01*
X73650968Y-84407065D01*
X73650968Y-84407065D01*
G37*
G36*
X55116500Y-85517500D02*
G01*
X53214500Y-85517500D01*
X53214500Y-84315500D01*
X55116500Y-84315500D01*
X55116500Y-85517500D01*
X55116500Y-85517500D01*
G37*
G36*
X48916500Y-85517500D02*
G01*
X47014500Y-85517500D01*
X47014500Y-84315500D01*
X48916500Y-84315500D01*
X48916500Y-85517500D01*
X48916500Y-85517500D01*
G37*
G36*
X102251000Y-83051000D02*
G01*
X100949000Y-83051000D01*
X100949000Y-82049000D01*
X102251000Y-82049000D01*
X102251000Y-83051000D01*
X102251000Y-83051000D01*
G37*
G36*
X121301000Y-83049000D02*
G01*
X119999000Y-83049000D01*
X119999000Y-82047000D01*
X121301000Y-82047000D01*
X121301000Y-83049000D01*
X121301000Y-83049000D01*
G37*
G36*
X113308974Y-78996184D02*
G01*
X113526974Y-79086483D01*
X113681123Y-79150333D01*
X114016048Y-79374123D01*
X114300877Y-79658952D01*
X114524667Y-79993877D01*
X114557062Y-80072086D01*
X114678816Y-80366026D01*
X114757400Y-80761094D01*
X114757400Y-81163906D01*
X114678816Y-81558974D01*
X114627951Y-81681772D01*
X114524667Y-81931123D01*
X114300877Y-82266048D01*
X114016048Y-82550877D01*
X113681123Y-82774667D01*
X113526974Y-82838517D01*
X113308974Y-82928816D01*
X112913906Y-83007400D01*
X112511094Y-83007400D01*
X112116026Y-82928816D01*
X111898026Y-82838517D01*
X111743877Y-82774667D01*
X111408952Y-82550877D01*
X111124123Y-82266048D01*
X110900333Y-81931123D01*
X110797049Y-81681772D01*
X110746184Y-81558974D01*
X110667600Y-81163906D01*
X110667600Y-80761094D01*
X110746184Y-80366026D01*
X110867938Y-80072086D01*
X110900333Y-79993877D01*
X111124123Y-79658952D01*
X111408952Y-79374123D01*
X111743877Y-79150333D01*
X111898026Y-79086483D01*
X112116026Y-78996184D01*
X112511094Y-78917600D01*
X112913906Y-78917600D01*
X113308974Y-78996184D01*
X113308974Y-78996184D01*
G37*
G36*
X94258974Y-78996184D02*
G01*
X94476974Y-79086483D01*
X94631123Y-79150333D01*
X94966048Y-79374123D01*
X95250877Y-79658952D01*
X95474667Y-79993877D01*
X95507062Y-80072086D01*
X95628816Y-80366026D01*
X95707400Y-80761094D01*
X95707400Y-81163906D01*
X95628816Y-81558974D01*
X95577951Y-81681772D01*
X95474667Y-81931123D01*
X95250877Y-82266048D01*
X94966048Y-82550877D01*
X94631123Y-82774667D01*
X94476974Y-82838517D01*
X94258974Y-82928816D01*
X93863906Y-83007400D01*
X93461094Y-83007400D01*
X93066026Y-82928816D01*
X92848026Y-82838517D01*
X92693877Y-82774667D01*
X92358952Y-82550877D01*
X92074123Y-82266048D01*
X91850333Y-81931123D01*
X91747049Y-81681772D01*
X91696184Y-81558974D01*
X91617600Y-81163906D01*
X91617600Y-80761094D01*
X91696184Y-80366026D01*
X91817938Y-80072086D01*
X91850333Y-79993877D01*
X92074123Y-79658952D01*
X92358952Y-79374123D01*
X92693877Y-79150333D01*
X92848026Y-79086483D01*
X93066026Y-78996184D01*
X93461094Y-78917600D01*
X93863906Y-78917600D01*
X94258974Y-78996184D01*
X94258974Y-78996184D01*
G37*
G36*
X63131968Y-81605065D02*
G01*
X63170638Y-81616796D01*
X63206277Y-81635846D01*
X63237517Y-81661483D01*
X63263154Y-81692723D01*
X63282204Y-81728362D01*
X63293935Y-81767032D01*
X63298500Y-81813388D01*
X63298500Y-82464612D01*
X63293935Y-82510968D01*
X63282204Y-82549638D01*
X63263154Y-82585277D01*
X63237517Y-82616517D01*
X63206277Y-82642154D01*
X63170638Y-82661204D01*
X63131968Y-82672935D01*
X63085612Y-82677500D01*
X62009388Y-82677500D01*
X61963032Y-82672935D01*
X61924362Y-82661204D01*
X61888723Y-82642154D01*
X61857483Y-82616517D01*
X61831846Y-82585277D01*
X61812796Y-82549638D01*
X61801065Y-82510968D01*
X61796500Y-82464612D01*
X61796500Y-81813388D01*
X61801065Y-81767032D01*
X61812796Y-81728362D01*
X61831846Y-81692723D01*
X61857483Y-81661483D01*
X61888723Y-81635846D01*
X61924362Y-81616796D01*
X61963032Y-81605065D01*
X62009388Y-81600500D01*
X63085612Y-81600500D01*
X63131968Y-81605065D01*
X63131968Y-81605065D01*
G37*
G36*
X118062604Y-80072085D02*
G01*
X118231126Y-80141889D01*
X118382791Y-80243228D01*
X118511772Y-80372209D01*
X118613111Y-80523874D01*
X118682915Y-80692396D01*
X118718500Y-80871297D01*
X118718500Y-81053703D01*
X118682915Y-81232604D01*
X118613111Y-81401126D01*
X118511772Y-81552791D01*
X118382791Y-81681772D01*
X118231126Y-81783111D01*
X118062604Y-81852915D01*
X117883703Y-81888500D01*
X117701297Y-81888500D01*
X117522396Y-81852915D01*
X117353874Y-81783111D01*
X117202209Y-81681772D01*
X117073228Y-81552791D01*
X116971889Y-81401126D01*
X116902085Y-81232604D01*
X116866500Y-81053703D01*
X116866500Y-80871297D01*
X116902085Y-80692396D01*
X116971889Y-80523874D01*
X117073228Y-80372209D01*
X117202209Y-80243228D01*
X117353874Y-80141889D01*
X117522396Y-80072085D01*
X117701297Y-80036500D01*
X117883703Y-80036500D01*
X118062604Y-80072085D01*
X118062604Y-80072085D01*
G37*
G36*
X99012604Y-80072085D02*
G01*
X99181126Y-80141889D01*
X99332791Y-80243228D01*
X99461772Y-80372209D01*
X99563111Y-80523874D01*
X99632915Y-80692396D01*
X99668500Y-80871297D01*
X99668500Y-81053703D01*
X99632915Y-81232604D01*
X99563111Y-81401126D01*
X99461772Y-81552791D01*
X99332791Y-81681772D01*
X99181126Y-81783111D01*
X99012604Y-81852915D01*
X98833703Y-81888500D01*
X98651297Y-81888500D01*
X98472396Y-81852915D01*
X98303874Y-81783111D01*
X98152209Y-81681772D01*
X98023228Y-81552791D01*
X97921889Y-81401126D01*
X97852085Y-81232604D01*
X97816500Y-81053703D01*
X97816500Y-80871297D01*
X97852085Y-80692396D01*
X97921889Y-80523874D01*
X98023228Y-80372209D01*
X98152209Y-80243228D01*
X98303874Y-80141889D01*
X98472396Y-80072085D01*
X98651297Y-80036500D01*
X98833703Y-80036500D01*
X99012604Y-80072085D01*
X99012604Y-80072085D01*
G37*
G36*
X107902604Y-80072085D02*
G01*
X108071126Y-80141889D01*
X108222791Y-80243228D01*
X108351772Y-80372209D01*
X108453111Y-80523874D01*
X108522915Y-80692396D01*
X108558500Y-80871297D01*
X108558500Y-81053703D01*
X108522915Y-81232604D01*
X108453111Y-81401126D01*
X108351772Y-81552791D01*
X108222791Y-81681772D01*
X108071126Y-81783111D01*
X107902604Y-81852915D01*
X107723703Y-81888500D01*
X107541297Y-81888500D01*
X107362396Y-81852915D01*
X107193874Y-81783111D01*
X107042209Y-81681772D01*
X106913228Y-81552791D01*
X106811889Y-81401126D01*
X106742085Y-81232604D01*
X106706500Y-81053703D01*
X106706500Y-80871297D01*
X106742085Y-80692396D01*
X106811889Y-80523874D01*
X106913228Y-80372209D01*
X107042209Y-80243228D01*
X107193874Y-80141889D01*
X107362396Y-80072085D01*
X107541297Y-80036500D01*
X107723703Y-80036500D01*
X107902604Y-80072085D01*
X107902604Y-80072085D01*
G37*
G36*
X88852604Y-80072085D02*
G01*
X89021126Y-80141889D01*
X89172791Y-80243228D01*
X89301772Y-80372209D01*
X89403111Y-80523874D01*
X89472915Y-80692396D01*
X89508500Y-80871297D01*
X89508500Y-81053703D01*
X89472915Y-81232604D01*
X89403111Y-81401126D01*
X89301772Y-81552791D01*
X89172791Y-81681772D01*
X89021126Y-81783111D01*
X88852604Y-81852915D01*
X88673703Y-81888500D01*
X88491297Y-81888500D01*
X88312396Y-81852915D01*
X88143874Y-81783111D01*
X87992209Y-81681772D01*
X87863228Y-81552791D01*
X87761889Y-81401126D01*
X87692085Y-81232604D01*
X87656500Y-81053703D01*
X87656500Y-80871297D01*
X87692085Y-80692396D01*
X87761889Y-80523874D01*
X87863228Y-80372209D01*
X87992209Y-80243228D01*
X88143874Y-80141889D01*
X88312396Y-80072085D01*
X88491297Y-80036500D01*
X88673703Y-80036500D01*
X88852604Y-80072085D01*
X88852604Y-80072085D01*
G37*
G36*
X48916500Y-81817500D02*
G01*
X47014500Y-81817500D01*
X47014500Y-80615500D01*
X48916500Y-80615500D01*
X48916500Y-81817500D01*
X48916500Y-81817500D01*
G37*
G36*
X55116500Y-81817500D02*
G01*
X53214500Y-81817500D01*
X53214500Y-80615500D01*
X55116500Y-80615500D01*
X55116500Y-81817500D01*
X55116500Y-81817500D01*
G37*
G36*
X81483468Y-79827065D02*
G01*
X81522138Y-79838796D01*
X81557777Y-79857846D01*
X81589017Y-79883483D01*
X81614654Y-79914723D01*
X81633704Y-79950362D01*
X81645435Y-79989032D01*
X81650000Y-80035388D01*
X81650000Y-80686612D01*
X81645435Y-80732968D01*
X81633704Y-80771638D01*
X81614654Y-80807277D01*
X81589017Y-80838517D01*
X81557777Y-80864154D01*
X81522138Y-80883204D01*
X81483468Y-80894935D01*
X81437112Y-80899500D01*
X80360888Y-80899500D01*
X80314532Y-80894935D01*
X80275862Y-80883204D01*
X80240223Y-80864154D01*
X80208983Y-80838517D01*
X80183346Y-80807277D01*
X80164296Y-80771638D01*
X80152565Y-80732968D01*
X80148000Y-80686612D01*
X80148000Y-80035388D01*
X80152565Y-79989032D01*
X80164296Y-79950362D01*
X80183346Y-79914723D01*
X80208983Y-79883483D01*
X80240223Y-79857846D01*
X80275862Y-79838796D01*
X80314532Y-79827065D01*
X80360888Y-79822500D01*
X81437112Y-79822500D01*
X81483468Y-79827065D01*
X81483468Y-79827065D01*
G37*
G36*
X63131968Y-79730065D02*
G01*
X63170638Y-79741796D01*
X63206277Y-79760846D01*
X63237517Y-79786483D01*
X63263154Y-79817723D01*
X63282204Y-79853362D01*
X63293935Y-79892032D01*
X63298500Y-79938388D01*
X63298500Y-80589612D01*
X63293935Y-80635968D01*
X63282204Y-80674638D01*
X63263154Y-80710277D01*
X63237517Y-80741517D01*
X63206277Y-80767154D01*
X63170638Y-80786204D01*
X63131968Y-80797935D01*
X63085612Y-80802500D01*
X62009388Y-80802500D01*
X61963032Y-80797935D01*
X61924362Y-80786204D01*
X61888723Y-80767154D01*
X61857483Y-80741517D01*
X61831846Y-80710277D01*
X61812796Y-80674638D01*
X61801065Y-80635968D01*
X61796500Y-80589612D01*
X61796500Y-79938388D01*
X61801065Y-79892032D01*
X61812796Y-79853362D01*
X61831846Y-79817723D01*
X61857483Y-79786483D01*
X61888723Y-79760846D01*
X61924362Y-79741796D01*
X61963032Y-79730065D01*
X62009388Y-79725500D01*
X63085612Y-79725500D01*
X63131968Y-79730065D01*
X63131968Y-79730065D01*
G37*
G36*
X102251000Y-79751000D02*
G01*
X100949000Y-79751000D01*
X100949000Y-78749000D01*
X102251000Y-78749000D01*
X102251000Y-79751000D01*
X102251000Y-79751000D01*
G37*
G36*
X121301000Y-79749000D02*
G01*
X119999000Y-79749000D01*
X119999000Y-78747000D01*
X121301000Y-78747000D01*
X121301000Y-79749000D01*
X121301000Y-79749000D01*
G37*
G36*
X79601345Y-73610458D02*
G01*
X79051924Y-74159879D01*
X78486238Y-74725564D01*
X77992677Y-75219126D01*
X75092126Y-78119677D01*
X74526440Y-78685362D01*
X74032879Y-79178924D01*
X73483458Y-79728345D01*
X72350673Y-78595560D01*
X72811706Y-78134527D01*
X72827971Y-78118263D01*
X72827980Y-78118252D01*
X74031454Y-76914778D01*
X74031465Y-76914769D01*
X74047730Y-76898505D01*
X74047729Y-76898504D01*
X74508762Y-76437471D01*
X74508763Y-76437472D01*
X74525027Y-76421207D01*
X74525036Y-76421196D01*
X75162825Y-75783407D01*
X75162836Y-75783398D01*
X75179101Y-75767134D01*
X75179100Y-75767133D01*
X75640133Y-75306100D01*
X75640134Y-75306101D01*
X75656398Y-75289836D01*
X75656407Y-75289825D01*
X76294196Y-74652036D01*
X76294207Y-74652027D01*
X76310472Y-74635763D01*
X76310471Y-74635762D01*
X76771504Y-74174729D01*
X76771505Y-74174730D01*
X76787769Y-74158465D01*
X76787778Y-74158454D01*
X77991252Y-72954980D01*
X77991263Y-72954971D01*
X78007527Y-72938706D01*
X78468560Y-72477673D01*
X79601345Y-73610458D01*
X79601345Y-73610458D01*
G37*
G36*
X65899738Y-72954971D02*
G01*
X65899744Y-72954976D01*
X67103227Y-74158459D01*
X67103232Y-74158465D01*
X67596794Y-74652027D01*
X67596800Y-74652032D01*
X68234598Y-75289830D01*
X68234603Y-75289836D01*
X68728165Y-75783398D01*
X68728171Y-75783403D01*
X69365969Y-76421201D01*
X69365974Y-76421207D01*
X69859536Y-76914769D01*
X69859542Y-76914774D01*
X71063025Y-78118257D01*
X71063030Y-78118263D01*
X71540327Y-78595560D01*
X70407542Y-79728345D01*
X69858127Y-79178930D01*
X69858122Y-79178924D01*
X68798875Y-78119677D01*
X68798869Y-78119672D01*
X68161071Y-77481874D01*
X68161066Y-77481868D01*
X67667504Y-76988306D01*
X67667498Y-76988301D01*
X67029700Y-76350503D01*
X67029695Y-76350497D01*
X66536133Y-75856935D01*
X66536127Y-75856930D01*
X65898329Y-75219132D01*
X65898324Y-75219126D01*
X64839077Y-74159879D01*
X64839071Y-74159874D01*
X64289655Y-73610458D01*
X65422440Y-72477673D01*
X65899738Y-72954971D01*
X65899738Y-72954971D01*
G37*
G36*
X110235705Y-75786381D02*
G01*
X110241145Y-75786500D01*
X110328328Y-75786500D01*
X110344597Y-75789736D01*
X110363456Y-75792015D01*
X110380032Y-75792746D01*
X110464723Y-75813510D01*
X110470018Y-75814684D01*
X110555527Y-75831693D01*
X110570862Y-75838045D01*
X110588901Y-75843955D01*
X110605021Y-75847907D01*
X110684004Y-75884780D01*
X110688994Y-75886977D01*
X110769545Y-75920342D01*
X110783341Y-75929560D01*
X110799893Y-75938882D01*
X110814926Y-75945900D01*
X110885194Y-75997471D01*
X110889692Y-76000622D01*
X110962156Y-76049041D01*
X110973883Y-76060768D01*
X110988309Y-76073148D01*
X111001679Y-76082961D01*
X111001680Y-76082962D01*
X111060521Y-76147233D01*
X111064329Y-76151214D01*
X111125959Y-76212844D01*
X111135174Y-76226635D01*
X111146896Y-76241578D01*
X111158105Y-76253821D01*
X111203299Y-76328374D01*
X111206246Y-76333001D01*
X111217936Y-76350497D01*
X111254658Y-76405455D01*
X111261005Y-76420777D01*
X111269592Y-76437731D01*
X111278191Y-76451917D01*
X111307978Y-76533868D01*
X111309952Y-76538948D01*
X111343307Y-76619473D01*
X111343307Y-76619474D01*
X111346541Y-76635733D01*
X111351658Y-76654042D01*
X111357325Y-76669634D01*
X111370555Y-76755845D01*
X111371501Y-76761213D01*
X111388500Y-76846673D01*
X111388500Y-76863252D01*
X111389944Y-76882192D01*
X111392463Y-76898604D01*
X111388620Y-76985749D01*
X111388500Y-76991189D01*
X111388500Y-77078325D01*
X111385266Y-77094583D01*
X111382988Y-77113441D01*
X111382256Y-77130031D01*
X111361488Y-77214737D01*
X111360312Y-77220037D01*
X111343307Y-77305527D01*
X111336957Y-77320857D01*
X111331049Y-77338893D01*
X111327095Y-77355020D01*
X111290211Y-77434026D01*
X111288011Y-77439023D01*
X111254658Y-77519545D01*
X111245444Y-77533335D01*
X111236122Y-77549887D01*
X111229102Y-77564924D01*
X111177511Y-77635220D01*
X111174366Y-77639710D01*
X111125961Y-77712154D01*
X111068960Y-77769155D01*
X111064311Y-77774063D01*
X110717676Y-78160388D01*
X109739223Y-79250876D01*
X109611179Y-79368102D01*
X109512131Y-79428145D01*
X109413083Y-79488189D01*
X109195366Y-79567323D01*
X108966395Y-79602461D01*
X108734970Y-79592254D01*
X108509981Y-79537093D01*
X108405227Y-79488189D01*
X108300079Y-79439102D01*
X108203338Y-79368102D01*
X108113323Y-79302039D01*
X107985719Y-79162659D01*
X107956898Y-79131179D01*
X107892229Y-79024500D01*
X107836811Y-78933083D01*
X107757677Y-78715366D01*
X107722539Y-78486395D01*
X107732746Y-78254970D01*
X107787907Y-78029981D01*
X107839472Y-77919528D01*
X107885898Y-77820080D01*
X107885900Y-77820077D01*
X107988614Y-77680122D01*
X108675328Y-76914778D01*
X109275287Y-76246121D01*
X109286181Y-76232089D01*
X109299039Y-76212846D01*
X109356073Y-76155812D01*
X109360723Y-76150903D01*
X109375778Y-76134124D01*
X109397201Y-76114511D01*
X109401182Y-76110703D01*
X109462846Y-76049039D01*
X109476643Y-76039820D01*
X109491602Y-76028085D01*
X109503821Y-76016898D01*
X109535885Y-75997461D01*
X109578330Y-75971731D01*
X109582921Y-75968808D01*
X109655455Y-75920342D01*
X109670800Y-75913986D01*
X109687748Y-75905401D01*
X109701916Y-75896812D01*
X109701917Y-75896812D01*
X109701918Y-75896811D01*
X109783812Y-75867045D01*
X109788910Y-75865063D01*
X109869473Y-75831693D01*
X109885752Y-75828455D01*
X109904042Y-75823344D01*
X109919635Y-75817677D01*
X110005800Y-75804454D01*
X110011163Y-75803509D01*
X110096673Y-75786500D01*
X110113266Y-75786500D01*
X110132209Y-75785055D01*
X110148606Y-75782539D01*
X110235705Y-75786381D01*
X110235705Y-75786381D01*
G37*
G36*
X91185705Y-75786381D02*
G01*
X91191145Y-75786500D01*
X91278328Y-75786500D01*
X91294597Y-75789736D01*
X91313456Y-75792015D01*
X91330032Y-75792746D01*
X91414723Y-75813510D01*
X91420018Y-75814684D01*
X91505527Y-75831693D01*
X91520862Y-75838045D01*
X91538901Y-75843955D01*
X91555021Y-75847907D01*
X91634004Y-75884780D01*
X91638994Y-75886977D01*
X91719545Y-75920342D01*
X91733341Y-75929560D01*
X91749893Y-75938882D01*
X91764926Y-75945900D01*
X91835194Y-75997471D01*
X91839692Y-76000622D01*
X91912156Y-76049041D01*
X91923883Y-76060768D01*
X91938309Y-76073148D01*
X91951679Y-76082961D01*
X91951680Y-76082962D01*
X92010521Y-76147233D01*
X92014329Y-76151214D01*
X92075959Y-76212844D01*
X92085174Y-76226635D01*
X92096896Y-76241578D01*
X92108105Y-76253821D01*
X92153299Y-76328374D01*
X92156246Y-76333001D01*
X92167936Y-76350497D01*
X92204658Y-76405455D01*
X92211005Y-76420777D01*
X92219592Y-76437731D01*
X92228191Y-76451917D01*
X92257978Y-76533868D01*
X92259952Y-76538948D01*
X92293307Y-76619473D01*
X92293307Y-76619474D01*
X92296541Y-76635733D01*
X92301658Y-76654042D01*
X92307325Y-76669634D01*
X92320555Y-76755845D01*
X92321501Y-76761213D01*
X92338500Y-76846673D01*
X92338500Y-76863252D01*
X92339944Y-76882192D01*
X92342463Y-76898604D01*
X92338620Y-76985749D01*
X92338500Y-76991189D01*
X92338500Y-77078325D01*
X92335266Y-77094583D01*
X92332988Y-77113441D01*
X92332256Y-77130031D01*
X92311488Y-77214737D01*
X92310312Y-77220037D01*
X92293307Y-77305527D01*
X92286957Y-77320857D01*
X92281049Y-77338893D01*
X92277095Y-77355020D01*
X92240211Y-77434026D01*
X92238011Y-77439023D01*
X92204658Y-77519545D01*
X92195444Y-77533335D01*
X92186122Y-77549887D01*
X92179102Y-77564924D01*
X92127511Y-77635220D01*
X92124366Y-77639710D01*
X92075961Y-77712154D01*
X92018960Y-77769155D01*
X92014311Y-77774063D01*
X91667676Y-78160388D01*
X90689223Y-79250876D01*
X90561179Y-79368102D01*
X90462131Y-79428145D01*
X90363083Y-79488189D01*
X90145366Y-79567323D01*
X89916395Y-79602461D01*
X89684970Y-79592254D01*
X89459981Y-79537093D01*
X89355227Y-79488189D01*
X89250079Y-79439102D01*
X89153338Y-79368102D01*
X89063323Y-79302039D01*
X88935719Y-79162659D01*
X88906898Y-79131179D01*
X88842229Y-79024500D01*
X88786811Y-78933083D01*
X88707677Y-78715366D01*
X88672539Y-78486395D01*
X88682746Y-78254970D01*
X88737907Y-78029981D01*
X88789472Y-77919528D01*
X88835898Y-77820080D01*
X88835900Y-77820077D01*
X88938614Y-77680122D01*
X89625328Y-76914778D01*
X90225287Y-76246121D01*
X90236181Y-76232089D01*
X90249039Y-76212846D01*
X90306073Y-76155812D01*
X90310723Y-76150903D01*
X90325778Y-76134124D01*
X90347201Y-76114511D01*
X90351182Y-76110703D01*
X90412846Y-76049039D01*
X90426643Y-76039820D01*
X90441602Y-76028085D01*
X90453821Y-76016898D01*
X90485885Y-75997461D01*
X90528330Y-75971731D01*
X90532921Y-75968808D01*
X90605455Y-75920342D01*
X90620800Y-75913986D01*
X90637748Y-75905401D01*
X90651916Y-75896812D01*
X90651917Y-75896812D01*
X90651918Y-75896811D01*
X90733812Y-75867045D01*
X90738910Y-75865063D01*
X90819473Y-75831693D01*
X90835752Y-75828455D01*
X90854042Y-75823344D01*
X90869635Y-75817677D01*
X90955800Y-75804454D01*
X90961163Y-75803509D01*
X91046673Y-75786500D01*
X91063266Y-75786500D01*
X91082209Y-75785055D01*
X91098606Y-75782539D01*
X91185705Y-75786381D01*
X91185705Y-75786381D01*
G37*
G36*
X81483468Y-77952065D02*
G01*
X81522138Y-77963796D01*
X81557777Y-77982846D01*
X81589017Y-78008483D01*
X81614654Y-78039723D01*
X81633704Y-78075362D01*
X81645435Y-78114032D01*
X81650000Y-78160388D01*
X81650000Y-78811612D01*
X81645435Y-78857968D01*
X81633704Y-78896638D01*
X81614654Y-78932277D01*
X81589017Y-78963517D01*
X81557777Y-78989154D01*
X81522138Y-79008204D01*
X81483468Y-79019935D01*
X81437112Y-79024500D01*
X80360888Y-79024500D01*
X80314532Y-79019935D01*
X80275862Y-79008204D01*
X80240223Y-78989154D01*
X80208983Y-78963517D01*
X80183346Y-78932277D01*
X80164296Y-78896638D01*
X80152565Y-78857968D01*
X80148000Y-78811612D01*
X80148000Y-78160388D01*
X80152565Y-78114032D01*
X80164296Y-78075362D01*
X80183346Y-78039723D01*
X80208983Y-78008483D01*
X80240223Y-77982846D01*
X80275862Y-77963796D01*
X80314532Y-77952065D01*
X80360888Y-77947500D01*
X81437112Y-77947500D01*
X81483468Y-77952065D01*
X81483468Y-77952065D01*
G37*
G36*
X96290627Y-74704761D02*
G01*
X96311400Y-74706500D01*
X96318327Y-74706500D01*
X96413254Y-74725382D01*
X96416848Y-74726042D01*
X96512230Y-74742124D01*
X96518703Y-74744585D01*
X96538728Y-74750341D01*
X96545527Y-74751693D01*
X96597319Y-74773146D01*
X96634943Y-74788730D01*
X96638344Y-74790081D01*
X96728755Y-74824461D01*
X96734627Y-74828140D01*
X96753136Y-74837687D01*
X96759545Y-74840342D01*
X96840063Y-74894142D01*
X96843054Y-74896078D01*
X96925057Y-74947459D01*
X96930084Y-74952200D01*
X96946396Y-74965191D01*
X96952152Y-74969037D01*
X97020610Y-75037495D01*
X97023189Y-75039999D01*
X97093590Y-75106389D01*
X97097595Y-75112019D01*
X97111059Y-75127944D01*
X97115959Y-75132844D01*
X97169744Y-75213339D01*
X97171791Y-75216307D01*
X97227880Y-75295145D01*
X97230714Y-75301458D01*
X97240808Y-75319693D01*
X97244658Y-75325455D01*
X97281720Y-75414930D01*
X97283124Y-75418185D01*
X97322765Y-75506473D01*
X97324315Y-75513225D01*
X97330652Y-75533062D01*
X97333307Y-75539473D01*
X97352192Y-75634417D01*
X97352938Y-75637901D01*
X97374598Y-75732251D01*
X97374598Y-75732254D01*
X97374800Y-75739154D01*
X97377147Y-75759870D01*
X97378500Y-75766674D01*
X97378500Y-75863486D01*
X97378553Y-75867084D01*
X97379688Y-75905777D01*
X97378795Y-75918725D01*
X97378500Y-75927297D01*
X97378500Y-75998326D01*
X97372581Y-76028085D01*
X97372104Y-76030479D01*
X97370000Y-76046250D01*
X97331738Y-76601045D01*
X97302876Y-76772230D01*
X97220538Y-76988755D01*
X97097541Y-77185057D01*
X96938611Y-77353590D01*
X96749855Y-77487880D01*
X96538527Y-77582765D01*
X96312749Y-77634598D01*
X96081198Y-77641389D01*
X96081197Y-77641389D01*
X96035512Y-77633686D01*
X95852770Y-77602876D01*
X95636245Y-77520538D01*
X95439943Y-77397541D01*
X95271410Y-77238611D01*
X95137120Y-77049855D01*
X95042235Y-76838527D01*
X94990402Y-76612749D01*
X94985312Y-76439223D01*
X95026204Y-75846294D01*
X95026500Y-75837696D01*
X95026500Y-75766675D01*
X95045382Y-75671750D01*
X95046044Y-75668145D01*
X95051731Y-75634417D01*
X95062124Y-75572770D01*
X95064585Y-75566299D01*
X95070342Y-75546267D01*
X95071693Y-75539474D01*
X95074343Y-75533076D01*
X95108764Y-75449976D01*
X95110053Y-75446730D01*
X95144462Y-75356245D01*
X95148136Y-75350381D01*
X95157687Y-75331865D01*
X95160342Y-75325455D01*
X95214157Y-75244915D01*
X95216077Y-75241949D01*
X95267459Y-75159943D01*
X95272211Y-75154904D01*
X95285189Y-75138607D01*
X95289037Y-75132848D01*
X95357493Y-75064392D01*
X95360046Y-75061762D01*
X95380523Y-75040048D01*
X95426389Y-74991410D01*
X95432021Y-74987403D01*
X95447947Y-74973938D01*
X95452846Y-74969039D01*
X95533324Y-74915266D01*
X95536306Y-74913210D01*
X95615145Y-74857120D01*
X95621455Y-74854287D01*
X95639694Y-74844191D01*
X95645451Y-74840344D01*
X95645454Y-74840343D01*
X95645455Y-74840342D01*
X95734929Y-74803281D01*
X95738187Y-74801875D01*
X95826473Y-74762235D01*
X95833225Y-74760685D01*
X95853062Y-74754348D01*
X95859473Y-74751693D01*
X95954399Y-74732811D01*
X95957946Y-74732051D01*
X96052251Y-74710401D01*
X96054630Y-74710331D01*
X96059165Y-74710198D01*
X96079881Y-74707851D01*
X96086674Y-74706500D01*
X96183459Y-74706500D01*
X96187084Y-74706447D01*
X96283802Y-74703610D01*
X96290627Y-74704761D01*
X96290627Y-74704761D01*
G37*
G36*
X115340627Y-74704761D02*
G01*
X115361400Y-74706500D01*
X115368327Y-74706500D01*
X115463254Y-74725382D01*
X115466848Y-74726042D01*
X115562230Y-74742124D01*
X115568703Y-74744585D01*
X115588728Y-74750341D01*
X115595527Y-74751693D01*
X115647319Y-74773146D01*
X115684943Y-74788730D01*
X115688344Y-74790081D01*
X115778755Y-74824461D01*
X115784627Y-74828140D01*
X115803136Y-74837687D01*
X115809545Y-74840342D01*
X115890063Y-74894142D01*
X115893054Y-74896078D01*
X115975057Y-74947459D01*
X115980084Y-74952200D01*
X115996396Y-74965191D01*
X116002152Y-74969037D01*
X116070610Y-75037495D01*
X116073189Y-75039999D01*
X116143590Y-75106389D01*
X116147595Y-75112019D01*
X116161059Y-75127944D01*
X116165959Y-75132844D01*
X116219744Y-75213339D01*
X116221791Y-75216307D01*
X116277880Y-75295145D01*
X116280714Y-75301458D01*
X116290808Y-75319693D01*
X116294658Y-75325455D01*
X116331720Y-75414930D01*
X116333124Y-75418185D01*
X116372765Y-75506473D01*
X116374315Y-75513225D01*
X116380652Y-75533062D01*
X116383307Y-75539473D01*
X116402192Y-75634417D01*
X116402938Y-75637901D01*
X116424598Y-75732251D01*
X116424598Y-75732254D01*
X116424800Y-75739154D01*
X116427147Y-75759870D01*
X116428500Y-75766674D01*
X116428500Y-75863486D01*
X116428553Y-75867084D01*
X116429688Y-75905777D01*
X116428795Y-75918725D01*
X116428500Y-75927297D01*
X116428500Y-75998326D01*
X116422581Y-76028085D01*
X116422104Y-76030479D01*
X116420000Y-76046250D01*
X116381738Y-76601045D01*
X116352876Y-76772230D01*
X116270538Y-76988755D01*
X116147541Y-77185057D01*
X115988611Y-77353590D01*
X115799855Y-77487880D01*
X115588527Y-77582765D01*
X115362749Y-77634598D01*
X115131198Y-77641389D01*
X115131197Y-77641389D01*
X115085512Y-77633686D01*
X114902770Y-77602876D01*
X114686245Y-77520538D01*
X114489943Y-77397541D01*
X114321410Y-77238611D01*
X114187120Y-77049855D01*
X114092235Y-76838527D01*
X114040402Y-76612749D01*
X114035312Y-76439223D01*
X114076204Y-75846294D01*
X114076500Y-75837696D01*
X114076500Y-75766675D01*
X114095382Y-75671750D01*
X114096044Y-75668145D01*
X114101731Y-75634417D01*
X114112124Y-75572770D01*
X114114585Y-75566299D01*
X114120342Y-75546267D01*
X114121693Y-75539474D01*
X114124343Y-75533076D01*
X114158764Y-75449976D01*
X114160053Y-75446730D01*
X114194462Y-75356245D01*
X114198136Y-75350381D01*
X114207687Y-75331865D01*
X114210342Y-75325455D01*
X114264157Y-75244915D01*
X114266077Y-75241949D01*
X114317459Y-75159943D01*
X114322211Y-75154904D01*
X114335189Y-75138607D01*
X114339037Y-75132848D01*
X114407493Y-75064392D01*
X114410046Y-75061762D01*
X114430523Y-75040048D01*
X114476389Y-74991410D01*
X114482021Y-74987403D01*
X114497947Y-74973938D01*
X114502846Y-74969039D01*
X114583324Y-74915266D01*
X114586306Y-74913210D01*
X114665145Y-74857120D01*
X114671455Y-74854287D01*
X114689694Y-74844191D01*
X114695451Y-74840344D01*
X114695454Y-74840343D01*
X114695455Y-74840342D01*
X114784929Y-74803281D01*
X114788187Y-74801875D01*
X114876473Y-74762235D01*
X114883225Y-74760685D01*
X114903062Y-74754348D01*
X114909473Y-74751693D01*
X115004399Y-74732811D01*
X115007946Y-74732051D01*
X115102251Y-74710401D01*
X115104630Y-74710331D01*
X115109165Y-74710198D01*
X115129881Y-74707851D01*
X115136674Y-74706500D01*
X115233459Y-74706500D01*
X115237084Y-74706447D01*
X115333802Y-74703610D01*
X115340627Y-74704761D01*
X115340627Y-74704761D01*
G37*
G36*
X62195568Y-74742365D02*
G01*
X62234238Y-74754096D01*
X62269877Y-74773146D01*
X62301117Y-74798783D01*
X62326754Y-74830023D01*
X62345804Y-74865662D01*
X62357535Y-74904332D01*
X62362100Y-74950688D01*
X62362100Y-76026912D01*
X62357535Y-76073268D01*
X62345804Y-76111938D01*
X62326754Y-76147577D01*
X62301117Y-76178817D01*
X62269877Y-76204454D01*
X62234238Y-76223504D01*
X62195568Y-76235235D01*
X62149212Y-76239800D01*
X61497988Y-76239800D01*
X61451632Y-76235235D01*
X61412962Y-76223504D01*
X61377323Y-76204454D01*
X61346083Y-76178817D01*
X61320446Y-76147577D01*
X61301396Y-76111938D01*
X61289665Y-76073268D01*
X61285100Y-76026912D01*
X61285100Y-74950688D01*
X61289665Y-74904332D01*
X61301396Y-74865662D01*
X61320446Y-74830023D01*
X61346083Y-74798783D01*
X61377323Y-74773146D01*
X61412962Y-74754096D01*
X61451632Y-74742365D01*
X61497988Y-74737800D01*
X62149212Y-74737800D01*
X62195568Y-74742365D01*
X62195568Y-74742365D01*
G37*
G36*
X60320568Y-74742365D02*
G01*
X60359238Y-74754096D01*
X60394877Y-74773146D01*
X60426117Y-74798783D01*
X60451754Y-74830023D01*
X60470804Y-74865662D01*
X60482535Y-74904332D01*
X60487100Y-74950688D01*
X60487100Y-76026912D01*
X60482535Y-76073268D01*
X60470804Y-76111938D01*
X60451754Y-76147577D01*
X60426117Y-76178817D01*
X60394877Y-76204454D01*
X60359238Y-76223504D01*
X60320568Y-76235235D01*
X60274212Y-76239800D01*
X59622988Y-76239800D01*
X59576632Y-76235235D01*
X59537962Y-76223504D01*
X59502323Y-76204454D01*
X59471083Y-76178817D01*
X59445446Y-76147577D01*
X59426396Y-76111938D01*
X59414665Y-76073268D01*
X59410100Y-76026912D01*
X59410100Y-74950688D01*
X59414665Y-74904332D01*
X59426396Y-74865662D01*
X59445446Y-74830023D01*
X59471083Y-74798783D01*
X59502323Y-74773146D01*
X59537962Y-74754096D01*
X59576632Y-74742365D01*
X59622988Y-74737800D01*
X60274212Y-74737800D01*
X60320568Y-74742365D01*
X60320568Y-74742365D01*
G37*
G36*
X46361604Y-71216347D02*
G01*
X46398144Y-71227432D01*
X46431821Y-71245433D01*
X46461341Y-71269659D01*
X46485567Y-71299179D01*
X46503568Y-71332856D01*
X46514653Y-71369396D01*
X46519000Y-71413538D01*
X46519000Y-72362462D01*
X46514653Y-72406604D01*
X46503568Y-72443144D01*
X46485567Y-72476821D01*
X46461341Y-72506341D01*
X46431821Y-72530567D01*
X46398144Y-72548568D01*
X46361604Y-72559653D01*
X46317462Y-72564000D01*
X44868538Y-72564000D01*
X44824396Y-72559653D01*
X44787856Y-72548568D01*
X44754179Y-72530567D01*
X44724659Y-72506341D01*
X44700433Y-72476821D01*
X44682432Y-72443144D01*
X44671347Y-72406604D01*
X44667000Y-72362462D01*
X44667000Y-71413538D01*
X44671347Y-71369396D01*
X44682432Y-71332856D01*
X44700433Y-71299179D01*
X44724659Y-71269659D01*
X44754179Y-71245433D01*
X44787856Y-71227432D01*
X44824396Y-71216347D01*
X44868538Y-71212000D01*
X46317462Y-71212000D01*
X46361604Y-71216347D01*
X46361604Y-71216347D01*
G37*
G36*
X71540327Y-65549440D02*
G01*
X71063030Y-66026738D01*
X65899738Y-71190030D01*
X65422440Y-71667327D01*
X64289655Y-70534542D01*
X64839066Y-69985131D01*
X64839077Y-69985122D01*
X64855341Y-69968857D01*
X65882059Y-68942139D01*
X65898324Y-68925875D01*
X65898333Y-68925864D01*
X66536122Y-68288075D01*
X66536133Y-68288066D01*
X66552398Y-68271802D01*
X66552397Y-68271801D01*
X67013430Y-67810768D01*
X67013431Y-67810769D01*
X67029695Y-67794504D01*
X67029704Y-67794493D01*
X67667493Y-67156704D01*
X67667504Y-67156695D01*
X67683769Y-67140431D01*
X67683768Y-67140430D01*
X68144801Y-66679397D01*
X68144802Y-66679398D01*
X68161066Y-66663133D01*
X68161075Y-66663122D01*
X68798864Y-66025333D01*
X68798875Y-66025324D01*
X68815139Y-66009059D01*
X69841857Y-64982341D01*
X69858122Y-64966077D01*
X69858131Y-64966066D01*
X70407542Y-64416655D01*
X71540327Y-65549440D01*
X71540327Y-65549440D01*
G37*
G36*
X74032874Y-64966071D02*
G01*
X74032879Y-64966077D01*
X75092126Y-66025324D01*
X75092132Y-66025329D01*
X75729930Y-66663127D01*
X75729935Y-66663133D01*
X76223497Y-67156695D01*
X76223503Y-67156700D01*
X76861301Y-67794498D01*
X76861306Y-67794504D01*
X77354868Y-68288066D01*
X77354874Y-68288071D01*
X77992672Y-68925869D01*
X77992677Y-68925875D01*
X79051924Y-69985122D01*
X79051930Y-69985127D01*
X79601345Y-70534542D01*
X78468560Y-71667327D01*
X77991263Y-71190030D01*
X77991257Y-71190025D01*
X76787774Y-69986542D01*
X76787769Y-69986536D01*
X76294207Y-69492974D01*
X76294201Y-69492969D01*
X75656403Y-68855171D01*
X75656398Y-68855165D01*
X75162836Y-68361603D01*
X75162830Y-68361598D01*
X74525032Y-67723800D01*
X74525027Y-67723794D01*
X74031465Y-67230232D01*
X74031459Y-67230227D01*
X72827976Y-66026744D01*
X72827971Y-66026738D01*
X72350673Y-65549440D01*
X73483458Y-64416655D01*
X74032874Y-64966071D01*
X74032874Y-64966071D01*
G37*
G36*
X46361604Y-68416347D02*
G01*
X46398144Y-68427432D01*
X46431821Y-68445433D01*
X46461341Y-68469659D01*
X46485567Y-68499179D01*
X46503568Y-68532856D01*
X46514653Y-68569396D01*
X46519000Y-68613538D01*
X46519000Y-69562462D01*
X46514653Y-69606604D01*
X46503568Y-69643144D01*
X46485567Y-69676821D01*
X46461341Y-69706341D01*
X46431821Y-69730567D01*
X46398144Y-69748568D01*
X46361604Y-69759653D01*
X46317462Y-69764000D01*
X44868538Y-69764000D01*
X44824396Y-69759653D01*
X44787856Y-69748568D01*
X44754179Y-69730567D01*
X44724659Y-69706341D01*
X44700433Y-69676821D01*
X44682432Y-69643144D01*
X44671347Y-69606604D01*
X44667000Y-69562462D01*
X44667000Y-68613538D01*
X44671347Y-68569396D01*
X44682432Y-68532856D01*
X44700433Y-68499179D01*
X44724659Y-68469659D01*
X44754179Y-68445433D01*
X44787856Y-68427432D01*
X44824396Y-68416347D01*
X44868538Y-68412000D01*
X46317462Y-68412000D01*
X46361604Y-68416347D01*
X46361604Y-68416347D01*
G37*
G36*
X111555162Y-65991750D02*
G01*
X111735210Y-66027563D01*
X111917836Y-66103209D01*
X112082194Y-66213030D01*
X112221970Y-66352806D01*
X112331791Y-66517164D01*
X112407437Y-66699790D01*
X112446000Y-66893664D01*
X112446000Y-67091336D01*
X112407437Y-67285210D01*
X112331791Y-67467836D01*
X112221970Y-67632194D01*
X112082194Y-67771970D01*
X111917836Y-67881791D01*
X111735210Y-67957437D01*
X111568925Y-67990512D01*
X111541337Y-67996000D01*
X111343663Y-67996000D01*
X111316075Y-67990512D01*
X111149790Y-67957437D01*
X110967164Y-67881791D01*
X110802806Y-67771970D01*
X110663030Y-67632194D01*
X110553209Y-67467836D01*
X110477563Y-67285210D01*
X110439000Y-67091336D01*
X110439000Y-66893664D01*
X110477563Y-66699790D01*
X110553209Y-66517164D01*
X110663030Y-66352806D01*
X110802806Y-66213030D01*
X110967164Y-66103209D01*
X111149790Y-66027563D01*
X111329838Y-65991750D01*
X111343663Y-65989000D01*
X111541337Y-65989000D01*
X111555162Y-65991750D01*
X111555162Y-65991750D01*
G37*
G36*
X114986000Y-67996000D02*
G01*
X112979000Y-67996000D01*
X112979000Y-65989000D01*
X114986000Y-65989000D01*
X114986000Y-67996000D01*
X114986000Y-67996000D01*
G37*
G36*
X92505162Y-65991750D02*
G01*
X92685210Y-66027563D01*
X92867836Y-66103209D01*
X93032194Y-66213030D01*
X93171970Y-66352806D01*
X93281791Y-66517164D01*
X93357437Y-66699790D01*
X93396000Y-66893664D01*
X93396000Y-67091336D01*
X93357437Y-67285210D01*
X93281791Y-67467836D01*
X93171970Y-67632194D01*
X93032194Y-67771970D01*
X92867836Y-67881791D01*
X92685210Y-67957437D01*
X92518925Y-67990512D01*
X92491337Y-67996000D01*
X92293663Y-67996000D01*
X92266075Y-67990512D01*
X92099790Y-67957437D01*
X91917164Y-67881791D01*
X91752806Y-67771970D01*
X91613030Y-67632194D01*
X91503209Y-67467836D01*
X91427563Y-67285210D01*
X91389000Y-67091336D01*
X91389000Y-66893664D01*
X91427563Y-66699790D01*
X91503209Y-66517164D01*
X91613030Y-66352806D01*
X91752806Y-66213030D01*
X91917164Y-66103209D01*
X92099790Y-66027563D01*
X92279838Y-65991750D01*
X92293663Y-65989000D01*
X92491337Y-65989000D01*
X92505162Y-65991750D01*
X92505162Y-65991750D01*
G37*
G36*
X95936000Y-67996000D02*
G01*
X93929000Y-67996000D01*
X93929000Y-65989000D01*
X95936000Y-65989000D01*
X95936000Y-67996000D01*
X95936000Y-67996000D01*
G37*
G36*
X81102468Y-65603065D02*
G01*
X81141138Y-65614796D01*
X81176777Y-65633846D01*
X81208017Y-65659483D01*
X81233654Y-65690723D01*
X81252704Y-65726362D01*
X81264435Y-65765032D01*
X81269000Y-65811388D01*
X81269000Y-66462612D01*
X81264435Y-66508968D01*
X81252704Y-66547638D01*
X81233654Y-66583277D01*
X81208017Y-66614517D01*
X81176777Y-66640154D01*
X81141138Y-66659204D01*
X81102468Y-66670935D01*
X81056112Y-66675500D01*
X79979888Y-66675500D01*
X79933532Y-66670935D01*
X79894862Y-66659204D01*
X79859223Y-66640154D01*
X79827983Y-66614517D01*
X79802346Y-66583277D01*
X79783296Y-66547638D01*
X79771565Y-66508968D01*
X79767000Y-66462612D01*
X79767000Y-65811388D01*
X79771565Y-65765032D01*
X79783296Y-65726362D01*
X79802346Y-65690723D01*
X79827983Y-65659483D01*
X79859223Y-65633846D01*
X79894862Y-65614796D01*
X79933532Y-65603065D01*
X79979888Y-65598500D01*
X81056112Y-65598500D01*
X81102468Y-65603065D01*
X81102468Y-65603065D01*
G37*
G36*
X49987468Y-65252065D02*
G01*
X50026138Y-65263796D01*
X50061777Y-65282846D01*
X50093017Y-65308483D01*
X50118654Y-65339723D01*
X50137704Y-65375362D01*
X50149435Y-65414032D01*
X50154000Y-65460388D01*
X50154000Y-66111612D01*
X50149435Y-66157968D01*
X50137704Y-66196638D01*
X50118654Y-66232277D01*
X50093017Y-66263517D01*
X50061777Y-66289154D01*
X50026138Y-66308204D01*
X49987468Y-66319935D01*
X49941112Y-66324500D01*
X48864888Y-66324500D01*
X48818532Y-66319935D01*
X48779862Y-66308204D01*
X48744223Y-66289154D01*
X48712983Y-66263517D01*
X48687346Y-66232277D01*
X48668296Y-66196638D01*
X48656565Y-66157968D01*
X48652000Y-66111612D01*
X48652000Y-65460388D01*
X48656565Y-65414032D01*
X48668296Y-65375362D01*
X48687346Y-65339723D01*
X48712983Y-65308483D01*
X48744223Y-65282846D01*
X48779862Y-65263796D01*
X48818532Y-65252065D01*
X48864888Y-65247500D01*
X49941112Y-65247500D01*
X49987468Y-65252065D01*
X49987468Y-65252065D01*
G37*
G36*
X53352968Y-65188565D02*
G01*
X53391638Y-65200296D01*
X53427277Y-65219346D01*
X53458517Y-65244983D01*
X53484154Y-65276223D01*
X53503204Y-65311862D01*
X53514935Y-65350532D01*
X53519500Y-65396888D01*
X53519500Y-66048112D01*
X53514935Y-66094468D01*
X53503204Y-66133138D01*
X53484154Y-66168777D01*
X53458517Y-66200017D01*
X53427277Y-66225654D01*
X53391638Y-66244704D01*
X53352968Y-66256435D01*
X53306612Y-66261000D01*
X52230388Y-66261000D01*
X52184032Y-66256435D01*
X52145362Y-66244704D01*
X52109723Y-66225654D01*
X52078483Y-66200017D01*
X52052846Y-66168777D01*
X52033796Y-66133138D01*
X52022065Y-66094468D01*
X52017500Y-66048112D01*
X52017500Y-65396888D01*
X52022065Y-65350532D01*
X52033796Y-65311862D01*
X52052846Y-65276223D01*
X52078483Y-65244983D01*
X52109723Y-65219346D01*
X52145362Y-65200296D01*
X52184032Y-65188565D01*
X52230388Y-65184000D01*
X53306612Y-65184000D01*
X53352968Y-65188565D01*
X53352968Y-65188565D01*
G37*
G36*
X81102468Y-63728065D02*
G01*
X81141138Y-63739796D01*
X81176777Y-63758846D01*
X81208017Y-63784483D01*
X81233654Y-63815723D01*
X81252704Y-63851362D01*
X81264435Y-63890032D01*
X81269000Y-63936388D01*
X81269000Y-64587612D01*
X81264435Y-64633968D01*
X81252704Y-64672638D01*
X81233654Y-64708277D01*
X81208017Y-64739517D01*
X81176777Y-64765154D01*
X81141138Y-64784204D01*
X81102468Y-64795935D01*
X81056112Y-64800500D01*
X79979888Y-64800500D01*
X79933532Y-64795935D01*
X79894862Y-64784204D01*
X79859223Y-64765154D01*
X79827983Y-64739517D01*
X79802346Y-64708277D01*
X79783296Y-64672638D01*
X79771565Y-64633968D01*
X79767000Y-64587612D01*
X79767000Y-63936388D01*
X79771565Y-63890032D01*
X79783296Y-63851362D01*
X79802346Y-63815723D01*
X79827983Y-63784483D01*
X79859223Y-63758846D01*
X79894862Y-63739796D01*
X79933532Y-63728065D01*
X79979888Y-63723500D01*
X81056112Y-63723500D01*
X81102468Y-63728065D01*
X81102468Y-63728065D01*
G37*
G36*
X49987468Y-63377065D02*
G01*
X50026138Y-63388796D01*
X50061777Y-63407846D01*
X50093017Y-63433483D01*
X50118654Y-63464723D01*
X50137704Y-63500362D01*
X50149435Y-63539032D01*
X50154000Y-63585388D01*
X50154000Y-64236612D01*
X50149435Y-64282968D01*
X50137704Y-64321638D01*
X50118654Y-64357277D01*
X50093017Y-64388517D01*
X50061777Y-64414154D01*
X50026138Y-64433204D01*
X49987468Y-64444935D01*
X49941112Y-64449500D01*
X48864888Y-64449500D01*
X48818532Y-64444935D01*
X48779862Y-64433204D01*
X48744223Y-64414154D01*
X48712983Y-64388517D01*
X48687346Y-64357277D01*
X48668296Y-64321638D01*
X48656565Y-64282968D01*
X48652000Y-64236612D01*
X48652000Y-63585388D01*
X48656565Y-63539032D01*
X48668296Y-63500362D01*
X48687346Y-63464723D01*
X48712983Y-63433483D01*
X48744223Y-63407846D01*
X48779862Y-63388796D01*
X48818532Y-63377065D01*
X48864888Y-63372500D01*
X49941112Y-63372500D01*
X49987468Y-63377065D01*
X49987468Y-63377065D01*
G37*
G36*
X53352968Y-63313565D02*
G01*
X53391638Y-63325296D01*
X53427277Y-63344346D01*
X53458517Y-63369983D01*
X53484154Y-63401223D01*
X53503204Y-63436862D01*
X53514935Y-63475532D01*
X53519500Y-63521888D01*
X53519500Y-64173112D01*
X53514935Y-64219468D01*
X53503204Y-64258138D01*
X53484154Y-64293777D01*
X53458517Y-64325017D01*
X53427277Y-64350654D01*
X53391638Y-64369704D01*
X53352968Y-64381435D01*
X53306612Y-64386000D01*
X52230388Y-64386000D01*
X52184032Y-64381435D01*
X52145362Y-64369704D01*
X52109723Y-64350654D01*
X52078483Y-64325017D01*
X52052846Y-64293777D01*
X52033796Y-64258138D01*
X52022065Y-64219468D01*
X52017500Y-64173112D01*
X52017500Y-63521888D01*
X52022065Y-63475532D01*
X52033796Y-63436862D01*
X52052846Y-63401223D01*
X52078483Y-63369983D01*
X52109723Y-63344346D01*
X52145362Y-63325296D01*
X52184032Y-63313565D01*
X52230388Y-63309000D01*
X53306612Y-63309000D01*
X53352968Y-63313565D01*
X53352968Y-63313565D01*
G37*
G36*
X102251000Y-64001000D02*
G01*
X100949000Y-64001000D01*
X100949000Y-62999000D01*
X102251000Y-62999000D01*
X102251000Y-64001000D01*
X102251000Y-64001000D01*
G37*
G36*
X121301000Y-63999000D02*
G01*
X119999000Y-63999000D01*
X119999000Y-62997000D01*
X121301000Y-62997000D01*
X121301000Y-63999000D01*
X121301000Y-63999000D01*
G37*
G36*
X113308974Y-59946184D02*
G01*
X113449720Y-60004483D01*
X113681123Y-60100333D01*
X114016048Y-60324123D01*
X114300877Y-60608952D01*
X114524667Y-60943877D01*
X114557062Y-61022086D01*
X114678816Y-61316026D01*
X114757400Y-61711094D01*
X114757400Y-62113906D01*
X114678816Y-62508974D01*
X114627951Y-62631772D01*
X114524667Y-62881123D01*
X114300877Y-63216048D01*
X114016048Y-63500877D01*
X113681123Y-63724667D01*
X113598607Y-63758846D01*
X113308974Y-63878816D01*
X112913906Y-63957400D01*
X112511094Y-63957400D01*
X112116026Y-63878816D01*
X111826393Y-63758846D01*
X111743877Y-63724667D01*
X111408952Y-63500877D01*
X111124123Y-63216048D01*
X110900333Y-62881123D01*
X110797049Y-62631772D01*
X110746184Y-62508974D01*
X110667600Y-62113906D01*
X110667600Y-61711094D01*
X110746184Y-61316026D01*
X110867938Y-61022086D01*
X110900333Y-60943877D01*
X111124123Y-60608952D01*
X111408952Y-60324123D01*
X111743877Y-60100333D01*
X111975280Y-60004483D01*
X112116026Y-59946184D01*
X112511094Y-59867600D01*
X112913906Y-59867600D01*
X113308974Y-59946184D01*
X113308974Y-59946184D01*
G37*
G36*
X94258974Y-59946184D02*
G01*
X94399720Y-60004483D01*
X94631123Y-60100333D01*
X94966048Y-60324123D01*
X95250877Y-60608952D01*
X95474667Y-60943877D01*
X95507062Y-61022086D01*
X95628816Y-61316026D01*
X95707400Y-61711094D01*
X95707400Y-62113906D01*
X95628816Y-62508974D01*
X95577951Y-62631772D01*
X95474667Y-62881123D01*
X95250877Y-63216048D01*
X94966048Y-63500877D01*
X94631123Y-63724667D01*
X94548607Y-63758846D01*
X94258974Y-63878816D01*
X93863906Y-63957400D01*
X93461094Y-63957400D01*
X93066026Y-63878816D01*
X92776393Y-63758846D01*
X92693877Y-63724667D01*
X92358952Y-63500877D01*
X92074123Y-63216048D01*
X91850333Y-62881123D01*
X91747049Y-62631772D01*
X91696184Y-62508974D01*
X91617600Y-62113906D01*
X91617600Y-61711094D01*
X91696184Y-61316026D01*
X91817938Y-61022086D01*
X91850333Y-60943877D01*
X92074123Y-60608952D01*
X92358952Y-60324123D01*
X92693877Y-60100333D01*
X92925280Y-60004483D01*
X93066026Y-59946184D01*
X93461094Y-59867600D01*
X93863906Y-59867600D01*
X94258974Y-59946184D01*
X94258974Y-59946184D01*
G37*
G36*
X61036468Y-61823065D02*
G01*
X61075138Y-61834796D01*
X61110777Y-61853846D01*
X61142017Y-61879483D01*
X61167654Y-61910723D01*
X61186704Y-61946362D01*
X61198435Y-61985032D01*
X61203000Y-62031388D01*
X61203000Y-62682612D01*
X61198435Y-62728968D01*
X61186704Y-62767638D01*
X61167654Y-62803277D01*
X61142017Y-62834517D01*
X61110777Y-62860154D01*
X61075138Y-62879204D01*
X61036468Y-62890935D01*
X60990112Y-62895500D01*
X59913888Y-62895500D01*
X59867532Y-62890935D01*
X59828862Y-62879204D01*
X59793223Y-62860154D01*
X59761983Y-62834517D01*
X59736346Y-62803277D01*
X59717296Y-62767638D01*
X59705565Y-62728968D01*
X59701000Y-62682612D01*
X59701000Y-62031388D01*
X59705565Y-61985032D01*
X59717296Y-61946362D01*
X59736346Y-61910723D01*
X59761983Y-61879483D01*
X59793223Y-61853846D01*
X59828862Y-61834796D01*
X59867532Y-61823065D01*
X59913888Y-61818500D01*
X60990112Y-61818500D01*
X61036468Y-61823065D01*
X61036468Y-61823065D01*
G37*
G36*
X64338468Y-61823065D02*
G01*
X64377138Y-61834796D01*
X64412777Y-61853846D01*
X64444017Y-61879483D01*
X64469654Y-61910723D01*
X64488704Y-61946362D01*
X64500435Y-61985032D01*
X64505000Y-62031388D01*
X64505000Y-62682612D01*
X64500435Y-62728968D01*
X64488704Y-62767638D01*
X64469654Y-62803277D01*
X64444017Y-62834517D01*
X64412777Y-62860154D01*
X64377138Y-62879204D01*
X64338468Y-62890935D01*
X64292112Y-62895500D01*
X63215888Y-62895500D01*
X63169532Y-62890935D01*
X63130862Y-62879204D01*
X63095223Y-62860154D01*
X63063983Y-62834517D01*
X63038346Y-62803277D01*
X63019296Y-62767638D01*
X63007565Y-62728968D01*
X63003000Y-62682612D01*
X63003000Y-62031388D01*
X63007565Y-61985032D01*
X63019296Y-61946362D01*
X63038346Y-61910723D01*
X63063983Y-61879483D01*
X63095223Y-61853846D01*
X63130862Y-61834796D01*
X63169532Y-61823065D01*
X63215888Y-61818500D01*
X64292112Y-61818500D01*
X64338468Y-61823065D01*
X64338468Y-61823065D01*
G37*
G36*
X88852604Y-61022085D02*
G01*
X89021126Y-61091889D01*
X89172791Y-61193228D01*
X89301772Y-61322209D01*
X89403111Y-61473874D01*
X89472915Y-61642396D01*
X89508500Y-61821297D01*
X89508500Y-62003703D01*
X89472915Y-62182604D01*
X89403111Y-62351126D01*
X89301772Y-62502791D01*
X89172791Y-62631772D01*
X89021126Y-62733111D01*
X88852604Y-62802915D01*
X88673703Y-62838500D01*
X88491297Y-62838500D01*
X88312396Y-62802915D01*
X88143874Y-62733111D01*
X87992209Y-62631772D01*
X87863228Y-62502791D01*
X87761889Y-62351126D01*
X87692085Y-62182604D01*
X87656500Y-62003703D01*
X87656500Y-61821297D01*
X87692085Y-61642396D01*
X87761889Y-61473874D01*
X87863228Y-61322209D01*
X87992209Y-61193228D01*
X88143874Y-61091889D01*
X88312396Y-61022085D01*
X88491297Y-60986500D01*
X88673703Y-60986500D01*
X88852604Y-61022085D01*
X88852604Y-61022085D01*
G37*
G36*
X118062604Y-61022085D02*
G01*
X118231126Y-61091889D01*
X118382791Y-61193228D01*
X118511772Y-61322209D01*
X118613111Y-61473874D01*
X118682915Y-61642396D01*
X118718500Y-61821297D01*
X118718500Y-62003703D01*
X118682915Y-62182604D01*
X118613111Y-62351126D01*
X118511772Y-62502791D01*
X118382791Y-62631772D01*
X118231126Y-62733111D01*
X118062604Y-62802915D01*
X117883703Y-62838500D01*
X117701297Y-62838500D01*
X117522396Y-62802915D01*
X117353874Y-62733111D01*
X117202209Y-62631772D01*
X117073228Y-62502791D01*
X116971889Y-62351126D01*
X116902085Y-62182604D01*
X116866500Y-62003703D01*
X116866500Y-61821297D01*
X116902085Y-61642396D01*
X116971889Y-61473874D01*
X117073228Y-61322209D01*
X117202209Y-61193228D01*
X117353874Y-61091889D01*
X117522396Y-61022085D01*
X117701297Y-60986500D01*
X117883703Y-60986500D01*
X118062604Y-61022085D01*
X118062604Y-61022085D01*
G37*
G36*
X99012604Y-61022085D02*
G01*
X99181126Y-61091889D01*
X99332791Y-61193228D01*
X99461772Y-61322209D01*
X99563111Y-61473874D01*
X99632915Y-61642396D01*
X99668500Y-61821297D01*
X99668500Y-62003703D01*
X99632915Y-62182604D01*
X99563111Y-62351126D01*
X99461772Y-62502791D01*
X99332791Y-62631772D01*
X99181126Y-62733111D01*
X99012604Y-62802915D01*
X98833703Y-62838500D01*
X98651297Y-62838500D01*
X98472396Y-62802915D01*
X98303874Y-62733111D01*
X98152209Y-62631772D01*
X98023228Y-62502791D01*
X97921889Y-62351126D01*
X97852085Y-62182604D01*
X97816500Y-62003703D01*
X97816500Y-61821297D01*
X97852085Y-61642396D01*
X97921889Y-61473874D01*
X98023228Y-61322209D01*
X98152209Y-61193228D01*
X98303874Y-61091889D01*
X98472396Y-61022085D01*
X98651297Y-60986500D01*
X98833703Y-60986500D01*
X99012604Y-61022085D01*
X99012604Y-61022085D01*
G37*
G36*
X107902604Y-61022085D02*
G01*
X108071126Y-61091889D01*
X108222791Y-61193228D01*
X108351772Y-61322209D01*
X108453111Y-61473874D01*
X108522915Y-61642396D01*
X108558500Y-61821297D01*
X108558500Y-62003703D01*
X108522915Y-62182604D01*
X108453111Y-62351126D01*
X108351772Y-62502791D01*
X108222791Y-62631772D01*
X108071126Y-62733111D01*
X107902604Y-62802915D01*
X107723703Y-62838500D01*
X107541297Y-62838500D01*
X107362396Y-62802915D01*
X107193874Y-62733111D01*
X107042209Y-62631772D01*
X106913228Y-62502791D01*
X106811889Y-62351126D01*
X106742085Y-62182604D01*
X106706500Y-62003703D01*
X106706500Y-61821297D01*
X106742085Y-61642396D01*
X106811889Y-61473874D01*
X106913228Y-61322209D01*
X107042209Y-61193228D01*
X107193874Y-61091889D01*
X107362396Y-61022085D01*
X107541297Y-60986500D01*
X107723703Y-60986500D01*
X107902604Y-61022085D01*
X107902604Y-61022085D01*
G37*
G36*
X61036468Y-59948065D02*
G01*
X61075138Y-59959796D01*
X61110777Y-59978846D01*
X61142017Y-60004483D01*
X61167654Y-60035723D01*
X61186704Y-60071362D01*
X61198435Y-60110032D01*
X61203000Y-60156388D01*
X61203000Y-60807612D01*
X61198435Y-60853968D01*
X61186704Y-60892638D01*
X61167654Y-60928277D01*
X61142017Y-60959517D01*
X61110777Y-60985154D01*
X61075138Y-61004204D01*
X61036468Y-61015935D01*
X60990112Y-61020500D01*
X59913888Y-61020500D01*
X59867532Y-61015935D01*
X59828862Y-61004204D01*
X59793223Y-60985154D01*
X59761983Y-60959517D01*
X59736346Y-60928277D01*
X59717296Y-60892638D01*
X59705565Y-60853968D01*
X59701000Y-60807612D01*
X59701000Y-60156388D01*
X59705565Y-60110032D01*
X59717296Y-60071362D01*
X59736346Y-60035723D01*
X59761983Y-60004483D01*
X59793223Y-59978846D01*
X59828862Y-59959796D01*
X59867532Y-59948065D01*
X59913888Y-59943500D01*
X60990112Y-59943500D01*
X61036468Y-59948065D01*
X61036468Y-59948065D01*
G37*
G36*
X64338468Y-59948065D02*
G01*
X64377138Y-59959796D01*
X64412777Y-59978846D01*
X64444017Y-60004483D01*
X64469654Y-60035723D01*
X64488704Y-60071362D01*
X64500435Y-60110032D01*
X64505000Y-60156388D01*
X64505000Y-60807612D01*
X64500435Y-60853968D01*
X64488704Y-60892638D01*
X64469654Y-60928277D01*
X64444017Y-60959517D01*
X64412777Y-60985154D01*
X64377138Y-61004204D01*
X64338468Y-61015935D01*
X64292112Y-61020500D01*
X63215888Y-61020500D01*
X63169532Y-61015935D01*
X63130862Y-61004204D01*
X63095223Y-60985154D01*
X63063983Y-60959517D01*
X63038346Y-60928277D01*
X63019296Y-60892638D01*
X63007565Y-60853968D01*
X63003000Y-60807612D01*
X63003000Y-60156388D01*
X63007565Y-60110032D01*
X63019296Y-60071362D01*
X63038346Y-60035723D01*
X63063983Y-60004483D01*
X63095223Y-59978846D01*
X63130862Y-59959796D01*
X63169532Y-59948065D01*
X63215888Y-59943500D01*
X64292112Y-59943500D01*
X64338468Y-59948065D01*
X64338468Y-59948065D01*
G37*
G36*
X102251000Y-60701000D02*
G01*
X100949000Y-60701000D01*
X100949000Y-59699000D01*
X102251000Y-59699000D01*
X102251000Y-60701000D01*
X102251000Y-60701000D01*
G37*
G36*
X121301000Y-60699000D02*
G01*
X119999000Y-60699000D01*
X119999000Y-59697000D01*
X121301000Y-59697000D01*
X121301000Y-60699000D01*
X121301000Y-60699000D01*
G37*
G36*
X91185705Y-56736381D02*
G01*
X91191145Y-56736500D01*
X91278328Y-56736500D01*
X91294597Y-56739736D01*
X91313456Y-56742015D01*
X91330032Y-56742746D01*
X91414723Y-56763510D01*
X91420018Y-56764684D01*
X91505527Y-56781693D01*
X91520862Y-56788045D01*
X91538901Y-56793955D01*
X91555021Y-56797907D01*
X91634004Y-56834780D01*
X91638994Y-56836977D01*
X91719545Y-56870342D01*
X91733341Y-56879560D01*
X91749893Y-56888882D01*
X91764926Y-56895900D01*
X91835194Y-56947471D01*
X91839692Y-56950622D01*
X91912156Y-56999041D01*
X91923883Y-57010768D01*
X91938309Y-57023148D01*
X91951679Y-57032961D01*
X92008122Y-57094612D01*
X92010521Y-57097233D01*
X92014329Y-57101214D01*
X92075959Y-57162844D01*
X92085174Y-57176635D01*
X92096896Y-57191578D01*
X92108105Y-57203821D01*
X92153299Y-57278374D01*
X92156246Y-57283001D01*
X92182159Y-57321783D01*
X92204658Y-57355455D01*
X92211005Y-57370777D01*
X92219592Y-57387731D01*
X92228191Y-57401917D01*
X92257978Y-57483868D01*
X92259952Y-57488948D01*
X92293307Y-57569473D01*
X92293307Y-57569474D01*
X92296541Y-57585733D01*
X92301658Y-57604042D01*
X92307325Y-57619634D01*
X92320555Y-57705845D01*
X92321501Y-57711213D01*
X92338500Y-57796673D01*
X92338500Y-57813252D01*
X92339944Y-57832192D01*
X92342463Y-57848604D01*
X92338620Y-57935749D01*
X92338500Y-57941189D01*
X92338500Y-58028325D01*
X92335266Y-58044583D01*
X92332988Y-58063441D01*
X92332256Y-58080031D01*
X92311488Y-58164737D01*
X92310312Y-58170037D01*
X92293307Y-58255527D01*
X92286957Y-58270857D01*
X92281049Y-58288893D01*
X92277095Y-58305020D01*
X92240211Y-58384026D01*
X92238011Y-58389023D01*
X92204658Y-58469545D01*
X92195444Y-58483335D01*
X92186122Y-58499887D01*
X92179102Y-58514924D01*
X92127511Y-58585220D01*
X92124366Y-58589710D01*
X92075961Y-58662154D01*
X92018960Y-58719155D01*
X92014311Y-58724063D01*
X91685721Y-59090277D01*
X90689223Y-60200876D01*
X90561179Y-60318102D01*
X90462131Y-60378145D01*
X90363083Y-60438189D01*
X90145366Y-60517323D01*
X89916395Y-60552461D01*
X89684970Y-60542254D01*
X89459981Y-60487093D01*
X89355227Y-60438189D01*
X89250079Y-60389102D01*
X89153338Y-60318102D01*
X89063323Y-60252039D01*
X88988894Y-60170741D01*
X88906898Y-60081179D01*
X88825064Y-59946185D01*
X88786811Y-59883083D01*
X88707677Y-59665366D01*
X88672539Y-59436395D01*
X88682746Y-59204970D01*
X88737907Y-58979981D01*
X88789472Y-58869528D01*
X88835898Y-58770080D01*
X88835900Y-58770077D01*
X88938614Y-58630122D01*
X89693745Y-57788527D01*
X90225287Y-57196121D01*
X90236181Y-57182089D01*
X90249039Y-57162846D01*
X90306073Y-57105812D01*
X90310723Y-57100903D01*
X90325778Y-57084124D01*
X90347201Y-57064511D01*
X90351182Y-57060703D01*
X90412846Y-56999039D01*
X90426643Y-56989820D01*
X90441602Y-56978085D01*
X90453821Y-56966898D01*
X90493836Y-56942641D01*
X90528330Y-56921731D01*
X90532921Y-56918808D01*
X90605455Y-56870342D01*
X90620800Y-56863986D01*
X90637748Y-56855401D01*
X90651916Y-56846812D01*
X90651917Y-56846812D01*
X90651918Y-56846811D01*
X90733812Y-56817045D01*
X90738910Y-56815063D01*
X90819473Y-56781693D01*
X90835752Y-56778455D01*
X90854042Y-56773344D01*
X90869635Y-56767677D01*
X90955800Y-56754454D01*
X90961163Y-56753509D01*
X91046673Y-56736500D01*
X91063266Y-56736500D01*
X91082209Y-56735055D01*
X91098606Y-56732539D01*
X91185705Y-56736381D01*
X91185705Y-56736381D01*
G37*
G36*
X110235705Y-56736381D02*
G01*
X110241145Y-56736500D01*
X110328328Y-56736500D01*
X110344597Y-56739736D01*
X110363456Y-56742015D01*
X110380032Y-56742746D01*
X110464723Y-56763510D01*
X110470018Y-56764684D01*
X110555527Y-56781693D01*
X110570862Y-56788045D01*
X110588901Y-56793955D01*
X110605021Y-56797907D01*
X110684004Y-56834780D01*
X110688994Y-56836977D01*
X110769545Y-56870342D01*
X110783341Y-56879560D01*
X110799893Y-56888882D01*
X110814926Y-56895900D01*
X110885194Y-56947471D01*
X110889692Y-56950622D01*
X110962156Y-56999041D01*
X110973883Y-57010768D01*
X110988309Y-57023148D01*
X111001679Y-57032961D01*
X111058122Y-57094612D01*
X111060521Y-57097233D01*
X111064329Y-57101214D01*
X111125959Y-57162844D01*
X111135174Y-57176635D01*
X111146896Y-57191578D01*
X111158105Y-57203821D01*
X111203299Y-57278374D01*
X111206246Y-57283001D01*
X111232159Y-57321783D01*
X111254658Y-57355455D01*
X111261005Y-57370777D01*
X111269592Y-57387731D01*
X111278191Y-57401917D01*
X111307978Y-57483868D01*
X111309952Y-57488948D01*
X111343307Y-57569473D01*
X111343307Y-57569474D01*
X111346541Y-57585733D01*
X111351658Y-57604042D01*
X111357325Y-57619634D01*
X111370555Y-57705845D01*
X111371501Y-57711213D01*
X111388500Y-57796673D01*
X111388500Y-57813252D01*
X111389944Y-57832192D01*
X111392463Y-57848604D01*
X111388620Y-57935749D01*
X111388500Y-57941189D01*
X111388500Y-58028325D01*
X111385266Y-58044583D01*
X111382988Y-58063441D01*
X111382256Y-58080031D01*
X111361488Y-58164737D01*
X111360312Y-58170037D01*
X111343307Y-58255527D01*
X111336957Y-58270857D01*
X111331049Y-58288893D01*
X111327095Y-58305020D01*
X111290211Y-58384026D01*
X111288011Y-58389023D01*
X111254658Y-58469545D01*
X111245444Y-58483335D01*
X111236122Y-58499887D01*
X111229102Y-58514924D01*
X111177511Y-58585220D01*
X111174366Y-58589710D01*
X111125961Y-58662154D01*
X111068960Y-58719155D01*
X111064311Y-58724063D01*
X110735721Y-59090277D01*
X109739223Y-60200876D01*
X109611179Y-60318102D01*
X109512131Y-60378145D01*
X109413083Y-60438189D01*
X109195366Y-60517323D01*
X108966395Y-60552461D01*
X108734970Y-60542254D01*
X108509981Y-60487093D01*
X108405227Y-60438189D01*
X108300079Y-60389102D01*
X108203338Y-60318102D01*
X108113323Y-60252039D01*
X108038894Y-60170741D01*
X107956898Y-60081179D01*
X107875064Y-59946185D01*
X107836811Y-59883083D01*
X107757677Y-59665366D01*
X107722539Y-59436395D01*
X107732746Y-59204970D01*
X107787907Y-58979981D01*
X107839472Y-58869528D01*
X107885898Y-58770080D01*
X107885900Y-58770077D01*
X107988614Y-58630122D01*
X108743745Y-57788527D01*
X109275287Y-57196121D01*
X109286181Y-57182089D01*
X109299039Y-57162846D01*
X109356073Y-57105812D01*
X109360723Y-57100903D01*
X109375778Y-57084124D01*
X109397201Y-57064511D01*
X109401182Y-57060703D01*
X109462846Y-56999039D01*
X109476643Y-56989820D01*
X109491602Y-56978085D01*
X109503821Y-56966898D01*
X109543836Y-56942641D01*
X109578330Y-56921731D01*
X109582921Y-56918808D01*
X109655455Y-56870342D01*
X109670800Y-56863986D01*
X109687748Y-56855401D01*
X109701916Y-56846812D01*
X109701917Y-56846812D01*
X109701918Y-56846811D01*
X109783812Y-56817045D01*
X109788910Y-56815063D01*
X109869473Y-56781693D01*
X109885752Y-56778455D01*
X109904042Y-56773344D01*
X109919635Y-56767677D01*
X110005800Y-56754454D01*
X110011163Y-56753509D01*
X110096673Y-56736500D01*
X110113266Y-56736500D01*
X110132209Y-56735055D01*
X110148606Y-56732539D01*
X110235705Y-56736381D01*
X110235705Y-56736381D01*
G37*
G36*
X55388627Y-56960037D02*
G01*
X55558466Y-57011557D01*
X55714991Y-57095222D01*
X55750729Y-57124552D01*
X55852186Y-57207814D01*
X55913889Y-57283001D01*
X55964778Y-57345009D01*
X56048443Y-57501534D01*
X56099963Y-57671373D01*
X56104972Y-57722230D01*
X56113000Y-57803740D01*
X56113000Y-58892260D01*
X56108681Y-58936112D01*
X56099963Y-59024627D01*
X56048443Y-59194465D01*
X56048442Y-59194468D01*
X56042828Y-59204971D01*
X55964778Y-59350991D01*
X55935448Y-59386729D01*
X55852186Y-59488186D01*
X55714989Y-59600779D01*
X55594146Y-59665371D01*
X55558465Y-59684443D01*
X55388626Y-59735963D01*
X55212000Y-59753359D01*
X55035373Y-59735963D01*
X54865534Y-59684443D01*
X54709009Y-59600778D01*
X54673271Y-59571448D01*
X54571814Y-59488186D01*
X54459221Y-59350989D01*
X54375558Y-59194467D01*
X54375557Y-59194465D01*
X54324037Y-59024626D01*
X54314942Y-58932278D01*
X54311000Y-58892259D01*
X54311001Y-57803740D01*
X54319029Y-57722230D01*
X54324038Y-57671373D01*
X54375558Y-57501534D01*
X54459223Y-57345009D01*
X54510112Y-57283001D01*
X54571815Y-57207814D01*
X54673272Y-57124552D01*
X54709010Y-57095222D01*
X54865535Y-57011557D01*
X55035374Y-56960037D01*
X55212000Y-56942641D01*
X55388627Y-56960037D01*
X55388627Y-56960037D01*
G37*
G36*
X48088627Y-56960037D02*
G01*
X48258466Y-57011557D01*
X48414991Y-57095222D01*
X48450729Y-57124552D01*
X48552186Y-57207814D01*
X48613889Y-57283001D01*
X48664778Y-57345009D01*
X48748443Y-57501534D01*
X48799963Y-57671373D01*
X48804972Y-57722230D01*
X48813000Y-57803740D01*
X48813000Y-58892260D01*
X48808681Y-58936112D01*
X48799963Y-59024627D01*
X48748443Y-59194465D01*
X48748442Y-59194468D01*
X48742828Y-59204971D01*
X48664778Y-59350991D01*
X48635448Y-59386729D01*
X48552186Y-59488186D01*
X48414989Y-59600779D01*
X48294146Y-59665371D01*
X48258465Y-59684443D01*
X48088626Y-59735963D01*
X47912000Y-59753359D01*
X47735373Y-59735963D01*
X47565534Y-59684443D01*
X47409009Y-59600778D01*
X47373271Y-59571448D01*
X47271814Y-59488186D01*
X47159221Y-59350989D01*
X47075558Y-59194467D01*
X47075557Y-59194465D01*
X47024037Y-59024626D01*
X47014942Y-58932278D01*
X47011000Y-58892259D01*
X47011001Y-57803740D01*
X47019029Y-57722230D01*
X47024038Y-57671373D01*
X47075558Y-57501534D01*
X47159223Y-57345009D01*
X47210112Y-57283001D01*
X47271815Y-57207814D01*
X47373272Y-57124552D01*
X47409010Y-57095222D01*
X47565535Y-57011557D01*
X47735374Y-56960037D01*
X47912000Y-56942641D01*
X48088627Y-56960037D01*
X48088627Y-56960037D01*
G37*
G36*
X53463000Y-59524000D02*
G01*
X49661000Y-59524000D01*
X49661000Y-57172000D01*
X53463000Y-57172000D01*
X53463000Y-59524000D01*
X53463000Y-59524000D01*
G37*
G36*
X72592000Y-59198000D02*
G01*
X71090000Y-59198000D01*
X71090000Y-57896000D01*
X72592000Y-57896000D01*
X72592000Y-59198000D01*
X72592000Y-59198000D01*
G37*
G36*
X74792000Y-59198000D02*
G01*
X73290000Y-59198000D01*
X73290000Y-57896000D01*
X74792000Y-57896000D01*
X74792000Y-59198000D01*
X74792000Y-59198000D01*
G37*
G36*
X69164468Y-58110065D02*
G01*
X69203138Y-58121796D01*
X69238777Y-58140846D01*
X69270017Y-58166483D01*
X69295654Y-58197723D01*
X69314704Y-58233362D01*
X69326435Y-58272032D01*
X69331000Y-58318388D01*
X69331000Y-58969612D01*
X69326435Y-59015968D01*
X69314704Y-59054638D01*
X69295654Y-59090277D01*
X69270017Y-59121517D01*
X69238777Y-59147154D01*
X69203138Y-59166204D01*
X69164468Y-59177935D01*
X69118112Y-59182500D01*
X68041888Y-59182500D01*
X67995532Y-59177935D01*
X67956862Y-59166204D01*
X67921223Y-59147154D01*
X67889983Y-59121517D01*
X67864346Y-59090277D01*
X67845296Y-59054638D01*
X67833565Y-59015968D01*
X67829000Y-58969612D01*
X67829000Y-58318388D01*
X67833565Y-58272032D01*
X67845296Y-58233362D01*
X67864346Y-58197723D01*
X67889983Y-58166483D01*
X67921223Y-58140846D01*
X67956862Y-58121796D01*
X67995532Y-58110065D01*
X68041888Y-58105500D01*
X69118112Y-58105500D01*
X69164468Y-58110065D01*
X69164468Y-58110065D01*
G37*
G36*
X77927468Y-58076565D02*
G01*
X77966138Y-58088296D01*
X78001777Y-58107346D01*
X78033017Y-58132983D01*
X78058654Y-58164223D01*
X78077704Y-58199862D01*
X78089435Y-58238532D01*
X78094000Y-58284888D01*
X78094000Y-58936112D01*
X78089435Y-58982468D01*
X78077704Y-59021138D01*
X78058654Y-59056777D01*
X78033017Y-59088017D01*
X78001777Y-59113654D01*
X77966138Y-59132704D01*
X77927468Y-59144435D01*
X77881112Y-59149000D01*
X76804888Y-59149000D01*
X76758532Y-59144435D01*
X76719862Y-59132704D01*
X76684223Y-59113654D01*
X76652983Y-59088017D01*
X76627346Y-59056777D01*
X76608296Y-59021138D01*
X76596565Y-58982468D01*
X76592000Y-58936112D01*
X76592000Y-58284888D01*
X76596565Y-58238532D01*
X76608296Y-58199862D01*
X76627346Y-58164223D01*
X76652983Y-58132983D01*
X76684223Y-58107346D01*
X76719862Y-58088296D01*
X76758532Y-58076565D01*
X76804888Y-58072000D01*
X77881112Y-58072000D01*
X77927468Y-58076565D01*
X77927468Y-58076565D01*
G37*
G36*
X96290627Y-55654761D02*
G01*
X96311400Y-55656500D01*
X96318327Y-55656500D01*
X96413254Y-55675382D01*
X96416848Y-55676042D01*
X96512230Y-55692124D01*
X96518703Y-55694585D01*
X96538728Y-55700341D01*
X96545527Y-55701693D01*
X96607914Y-55727534D01*
X96634943Y-55738730D01*
X96638344Y-55740081D01*
X96728755Y-55774461D01*
X96734627Y-55778140D01*
X96753136Y-55787687D01*
X96759545Y-55790342D01*
X96840063Y-55844142D01*
X96843054Y-55846078D01*
X96925057Y-55897459D01*
X96930084Y-55902200D01*
X96946396Y-55915191D01*
X96952152Y-55919037D01*
X97020610Y-55987495D01*
X97023189Y-55989999D01*
X97093590Y-56056389D01*
X97097595Y-56062019D01*
X97111059Y-56077944D01*
X97115959Y-56082844D01*
X97169744Y-56163339D01*
X97171791Y-56166307D01*
X97227880Y-56245145D01*
X97230714Y-56251458D01*
X97240808Y-56269693D01*
X97244658Y-56275455D01*
X97281720Y-56364930D01*
X97283124Y-56368185D01*
X97322765Y-56456473D01*
X97324315Y-56463225D01*
X97330652Y-56483062D01*
X97333307Y-56489473D01*
X97352192Y-56584417D01*
X97352938Y-56587901D01*
X97374598Y-56682251D01*
X97374598Y-56682254D01*
X97374800Y-56689154D01*
X97377147Y-56709870D01*
X97378500Y-56716674D01*
X97378500Y-56813486D01*
X97378553Y-56817084D01*
X97379688Y-56855777D01*
X97378795Y-56868725D01*
X97378500Y-56877297D01*
X97378500Y-56948326D01*
X97372581Y-56978085D01*
X97372104Y-56980479D01*
X97370000Y-56996250D01*
X97331738Y-57551045D01*
X97302876Y-57722230D01*
X97220538Y-57938755D01*
X97097541Y-58135057D01*
X96938611Y-58303590D01*
X96749855Y-58437880D01*
X96538527Y-58532765D01*
X96312749Y-58584598D01*
X96081198Y-58591389D01*
X96081197Y-58591389D01*
X96035512Y-58583686D01*
X95852770Y-58552876D01*
X95636245Y-58470538D01*
X95439943Y-58347541D01*
X95271410Y-58188611D01*
X95137120Y-57999855D01*
X95042235Y-57788527D01*
X94990402Y-57562749D01*
X94985312Y-57389223D01*
X95026204Y-56796294D01*
X95026500Y-56787696D01*
X95026500Y-56716675D01*
X95045382Y-56621750D01*
X95046044Y-56618145D01*
X95051731Y-56584417D01*
X95062124Y-56522770D01*
X95064585Y-56516299D01*
X95070342Y-56496267D01*
X95071693Y-56489474D01*
X95074343Y-56483076D01*
X95108764Y-56399976D01*
X95110060Y-56396712D01*
X95144462Y-56306245D01*
X95148136Y-56300381D01*
X95157687Y-56281865D01*
X95160342Y-56275455D01*
X95214157Y-56194915D01*
X95216077Y-56191949D01*
X95267459Y-56109943D01*
X95272211Y-56104904D01*
X95285189Y-56088607D01*
X95289037Y-56082848D01*
X95357493Y-56014392D01*
X95360046Y-56011762D01*
X95380523Y-55990048D01*
X95426389Y-55941410D01*
X95432021Y-55937403D01*
X95447947Y-55923938D01*
X95452846Y-55919039D01*
X95533324Y-55865266D01*
X95536306Y-55863210D01*
X95615145Y-55807120D01*
X95621455Y-55804287D01*
X95639694Y-55794191D01*
X95645451Y-55790344D01*
X95645454Y-55790343D01*
X95645455Y-55790342D01*
X95734929Y-55753281D01*
X95738187Y-55751875D01*
X95826473Y-55712235D01*
X95833225Y-55710685D01*
X95853062Y-55704348D01*
X95859473Y-55701693D01*
X95954399Y-55682811D01*
X95957946Y-55682051D01*
X96052251Y-55660401D01*
X96054630Y-55660331D01*
X96059165Y-55660198D01*
X96079881Y-55657851D01*
X96086674Y-55656500D01*
X96183459Y-55656500D01*
X96187084Y-55656447D01*
X96283802Y-55653610D01*
X96290627Y-55654761D01*
X96290627Y-55654761D01*
G37*
G36*
X115340627Y-55654761D02*
G01*
X115361400Y-55656500D01*
X115368327Y-55656500D01*
X115463254Y-55675382D01*
X115466848Y-55676042D01*
X115562230Y-55692124D01*
X115568703Y-55694585D01*
X115588728Y-55700341D01*
X115595527Y-55701693D01*
X115657914Y-55727534D01*
X115684943Y-55738730D01*
X115688344Y-55740081D01*
X115778755Y-55774461D01*
X115784627Y-55778140D01*
X115803136Y-55787687D01*
X115809545Y-55790342D01*
X115890063Y-55844142D01*
X115893054Y-55846078D01*
X115975057Y-55897459D01*
X115980084Y-55902200D01*
X115996396Y-55915191D01*
X116002152Y-55919037D01*
X116070610Y-55987495D01*
X116073189Y-55989999D01*
X116143590Y-56056389D01*
X116147595Y-56062019D01*
X116161059Y-56077944D01*
X116165959Y-56082844D01*
X116219744Y-56163339D01*
X116221791Y-56166307D01*
X116277880Y-56245145D01*
X116280714Y-56251458D01*
X116290808Y-56269693D01*
X116294658Y-56275455D01*
X116331720Y-56364930D01*
X116333124Y-56368185D01*
X116372765Y-56456473D01*
X116374315Y-56463225D01*
X116380652Y-56483062D01*
X116383307Y-56489473D01*
X116402192Y-56584417D01*
X116402938Y-56587901D01*
X116424598Y-56682251D01*
X116424598Y-56682254D01*
X116424800Y-56689154D01*
X116427147Y-56709870D01*
X116428500Y-56716674D01*
X116428500Y-56813486D01*
X116428553Y-56817084D01*
X116429688Y-56855777D01*
X116428795Y-56868725D01*
X116428500Y-56877297D01*
X116428500Y-56948326D01*
X116422581Y-56978085D01*
X116422104Y-56980479D01*
X116420000Y-56996250D01*
X116381738Y-57551045D01*
X116352876Y-57722230D01*
X116270538Y-57938755D01*
X116147541Y-58135057D01*
X115988611Y-58303590D01*
X115799855Y-58437880D01*
X115588527Y-58532765D01*
X115362749Y-58584598D01*
X115131198Y-58591389D01*
X115131197Y-58591389D01*
X115085512Y-58583686D01*
X114902770Y-58552876D01*
X114686245Y-58470538D01*
X114489943Y-58347541D01*
X114321410Y-58188611D01*
X114187120Y-57999855D01*
X114092235Y-57788527D01*
X114040402Y-57562749D01*
X114035312Y-57389223D01*
X114076204Y-56796294D01*
X114076500Y-56787696D01*
X114076500Y-56716675D01*
X114095382Y-56621750D01*
X114096044Y-56618145D01*
X114101731Y-56584417D01*
X114112124Y-56522770D01*
X114114585Y-56516299D01*
X114120342Y-56496267D01*
X114121693Y-56489474D01*
X114124343Y-56483076D01*
X114158764Y-56399976D01*
X114160060Y-56396712D01*
X114194462Y-56306245D01*
X114198136Y-56300381D01*
X114207687Y-56281865D01*
X114210342Y-56275455D01*
X114264157Y-56194915D01*
X114266077Y-56191949D01*
X114317459Y-56109943D01*
X114322211Y-56104904D01*
X114335189Y-56088607D01*
X114339037Y-56082848D01*
X114407493Y-56014392D01*
X114410046Y-56011762D01*
X114430523Y-55990048D01*
X114476389Y-55941410D01*
X114482021Y-55937403D01*
X114497947Y-55923938D01*
X114502846Y-55919039D01*
X114583324Y-55865266D01*
X114586306Y-55863210D01*
X114665145Y-55807120D01*
X114671455Y-55804287D01*
X114689694Y-55794191D01*
X114695451Y-55790344D01*
X114695454Y-55790343D01*
X114695455Y-55790342D01*
X114784929Y-55753281D01*
X114788187Y-55751875D01*
X114876473Y-55712235D01*
X114883225Y-55710685D01*
X114903062Y-55704348D01*
X114909473Y-55701693D01*
X115004399Y-55682811D01*
X115007946Y-55682051D01*
X115102251Y-55660401D01*
X115104630Y-55660331D01*
X115109165Y-55660198D01*
X115129881Y-55657851D01*
X115136674Y-55656500D01*
X115233459Y-55656500D01*
X115237084Y-55656447D01*
X115333802Y-55653610D01*
X115340627Y-55654761D01*
X115340627Y-55654761D01*
G37*
G36*
X74792000Y-57498000D02*
G01*
X73290000Y-57498000D01*
X73290000Y-56196000D01*
X74792000Y-56196000D01*
X74792000Y-57498000D01*
X74792000Y-57498000D01*
G37*
G36*
X72592000Y-57498000D02*
G01*
X71090000Y-57498000D01*
X71090000Y-56196000D01*
X72592000Y-56196000D01*
X72592000Y-57498000D01*
X72592000Y-57498000D01*
G37*
G36*
X69164468Y-56235065D02*
G01*
X69203138Y-56246796D01*
X69238777Y-56265846D01*
X69270017Y-56291483D01*
X69295654Y-56322723D01*
X69314704Y-56358362D01*
X69326435Y-56397032D01*
X69331000Y-56443388D01*
X69331000Y-57094612D01*
X69326435Y-57140968D01*
X69314704Y-57179638D01*
X69295654Y-57215277D01*
X69270017Y-57246517D01*
X69238777Y-57272154D01*
X69203138Y-57291204D01*
X69164468Y-57302935D01*
X69118112Y-57307500D01*
X68041888Y-57307500D01*
X67995532Y-57302935D01*
X67956862Y-57291204D01*
X67921223Y-57272154D01*
X67889983Y-57246517D01*
X67864346Y-57215277D01*
X67845296Y-57179638D01*
X67833565Y-57140968D01*
X67829000Y-57094612D01*
X67829000Y-56443388D01*
X67833565Y-56397032D01*
X67845296Y-56358362D01*
X67864346Y-56322723D01*
X67889983Y-56291483D01*
X67921223Y-56265846D01*
X67956862Y-56246796D01*
X67995532Y-56235065D01*
X68041888Y-56230500D01*
X69118112Y-56230500D01*
X69164468Y-56235065D01*
X69164468Y-56235065D01*
G37*
G36*
X77927468Y-56201565D02*
G01*
X77966138Y-56213296D01*
X78001777Y-56232346D01*
X78033017Y-56257983D01*
X78058654Y-56289223D01*
X78077704Y-56324862D01*
X78089435Y-56363532D01*
X78094000Y-56409888D01*
X78094000Y-57061112D01*
X78089435Y-57107468D01*
X78077704Y-57146138D01*
X78058654Y-57181777D01*
X78033017Y-57213017D01*
X78001777Y-57238654D01*
X77966138Y-57257704D01*
X77927468Y-57269435D01*
X77881112Y-57274000D01*
X76804888Y-57274000D01*
X76758532Y-57269435D01*
X76719862Y-57257704D01*
X76684223Y-57238654D01*
X76652983Y-57213017D01*
X76627346Y-57181777D01*
X76608296Y-57146138D01*
X76596565Y-57107468D01*
X76592000Y-57061112D01*
X76592000Y-56409888D01*
X76596565Y-56363532D01*
X76608296Y-56324862D01*
X76627346Y-56289223D01*
X76652983Y-56257983D01*
X76684223Y-56232346D01*
X76719862Y-56213296D01*
X76758532Y-56201565D01*
X76804888Y-56197000D01*
X77881112Y-56197000D01*
X77927468Y-56201565D01*
X77927468Y-56201565D01*
G37*
G36*
X48088627Y-52460037D02*
G01*
X48258466Y-52511557D01*
X48414991Y-52595222D01*
X48450729Y-52624552D01*
X48552186Y-52707814D01*
X48635448Y-52809271D01*
X48664778Y-52845009D01*
X48748443Y-53001534D01*
X48799963Y-53171373D01*
X48813000Y-53303742D01*
X48813000Y-54392258D01*
X48799963Y-54524627D01*
X48748443Y-54694466D01*
X48664778Y-54850991D01*
X48635448Y-54886729D01*
X48552186Y-54988186D01*
X48414989Y-55100779D01*
X48258467Y-55184442D01*
X48258465Y-55184443D01*
X48088626Y-55235963D01*
X47912000Y-55253359D01*
X47735373Y-55235963D01*
X47565534Y-55184443D01*
X47409009Y-55100778D01*
X47373271Y-55071448D01*
X47271814Y-54988186D01*
X47159221Y-54850989D01*
X47075558Y-54694467D01*
X47075557Y-54694465D01*
X47024037Y-54524626D01*
X47011000Y-54392257D01*
X47011001Y-53303742D01*
X47024038Y-53171373D01*
X47075558Y-53001534D01*
X47159223Y-52845009D01*
X47188553Y-52809271D01*
X47271815Y-52707814D01*
X47373272Y-52624552D01*
X47409010Y-52595222D01*
X47565535Y-52511557D01*
X47735374Y-52460037D01*
X47912000Y-52442641D01*
X48088627Y-52460037D01*
X48088627Y-52460037D01*
G37*
G36*
X55388627Y-52460037D02*
G01*
X55558466Y-52511557D01*
X55714991Y-52595222D01*
X55750729Y-52624552D01*
X55852186Y-52707814D01*
X55935448Y-52809271D01*
X55964778Y-52845009D01*
X56048443Y-53001534D01*
X56099963Y-53171373D01*
X56113000Y-53303742D01*
X56113000Y-54392258D01*
X56099963Y-54524627D01*
X56048443Y-54694466D01*
X55964778Y-54850991D01*
X55935448Y-54886729D01*
X55852186Y-54988186D01*
X55714989Y-55100779D01*
X55558467Y-55184442D01*
X55558465Y-55184443D01*
X55388626Y-55235963D01*
X55212000Y-55253359D01*
X55035373Y-55235963D01*
X54865534Y-55184443D01*
X54709009Y-55100778D01*
X54673271Y-55071448D01*
X54571814Y-54988186D01*
X54459221Y-54850989D01*
X54375558Y-54694467D01*
X54375557Y-54694465D01*
X54324037Y-54524626D01*
X54311000Y-54392257D01*
X54311001Y-53303742D01*
X54324038Y-53171373D01*
X54375558Y-53001534D01*
X54459223Y-52845009D01*
X54488553Y-52809271D01*
X54571815Y-52707814D01*
X54673272Y-52624552D01*
X54709010Y-52595222D01*
X54865535Y-52511557D01*
X55035374Y-52460037D01*
X55212000Y-52442641D01*
X55388627Y-52460037D01*
X55388627Y-52460037D01*
G37*
M02*
