G04 #@! TF.GenerationSoftware,KiCad,Pcbnew,(5.1.4)-1*
G04 #@! TF.CreationDate,2023-01-01T19:50:54-03:00*
G04 #@! TF.ProjectId,osukeypad-pcb,6f73756b-6579-4706-9164-2d7063622e6b,rev?*
G04 #@! TF.SameCoordinates,Original*
G04 #@! TF.FileFunction,Copper,L2,Bot*
G04 #@! TF.FilePolarity,Positive*
%FSLAX46Y46*%
G04 Gerber Fmt 4.6, Leading zero omitted, Abs format (unit mm)*
G04 Created by KiCad (PCBNEW (5.1.4)-1) date 2023-01-01 19:50:54*
%MOMM*%
%LPD*%
G04 APERTURE LIST*
%ADD10R,1.905000X1.905000*%
%ADD11C,1.905000*%
%ADD12C,2.250000*%
%ADD13C,2.250000*%
%ADD14C,0.100000*%
%ADD15C,0.975000*%
%ADD16R,1.400000X1.200000*%
%ADD17O,1.700000X2.700000*%
%ADD18R,0.500000X2.250000*%
%ADD19C,0.550000*%
%ADD20R,1.800000X1.100000*%
%ADD21C,1.250000*%
%ADD22R,1.200000X0.900000*%
%ADD23C,0.800000*%
%ADD24C,0.300000*%
%ADD25C,0.250000*%
%ADD26C,0.400000*%
%ADD27C,0.254000*%
G04 APERTURE END LIST*
D10*
X113982500Y-66992500D03*
D11*
X111442500Y-66992500D03*
D12*
X110212500Y-57912500D03*
X109557501Y-58642500D03*
D13*
X108902500Y-59372500D02*
X110212502Y-57912500D01*
D12*
X115252500Y-56832500D03*
X115232500Y-57122500D03*
D13*
X115212500Y-57412500D02*
X115252500Y-56832500D01*
D14*
G36*
X63027642Y-81652674D02*
G01*
X63051303Y-81656184D01*
X63074507Y-81661996D01*
X63097029Y-81670054D01*
X63118653Y-81680282D01*
X63139170Y-81692579D01*
X63158383Y-81706829D01*
X63176107Y-81722893D01*
X63192171Y-81740617D01*
X63206421Y-81759830D01*
X63218718Y-81780347D01*
X63228946Y-81801971D01*
X63237004Y-81824493D01*
X63242816Y-81847697D01*
X63246326Y-81871358D01*
X63247500Y-81895250D01*
X63247500Y-82382750D01*
X63246326Y-82406642D01*
X63242816Y-82430303D01*
X63237004Y-82453507D01*
X63228946Y-82476029D01*
X63218718Y-82497653D01*
X63206421Y-82518170D01*
X63192171Y-82537383D01*
X63176107Y-82555107D01*
X63158383Y-82571171D01*
X63139170Y-82585421D01*
X63118653Y-82597718D01*
X63097029Y-82607946D01*
X63074507Y-82616004D01*
X63051303Y-82621816D01*
X63027642Y-82625326D01*
X63003750Y-82626500D01*
X62091250Y-82626500D01*
X62067358Y-82625326D01*
X62043697Y-82621816D01*
X62020493Y-82616004D01*
X61997971Y-82607946D01*
X61976347Y-82597718D01*
X61955830Y-82585421D01*
X61936617Y-82571171D01*
X61918893Y-82555107D01*
X61902829Y-82537383D01*
X61888579Y-82518170D01*
X61876282Y-82497653D01*
X61866054Y-82476029D01*
X61857996Y-82453507D01*
X61852184Y-82430303D01*
X61848674Y-82406642D01*
X61847500Y-82382750D01*
X61847500Y-81895250D01*
X61848674Y-81871358D01*
X61852184Y-81847697D01*
X61857996Y-81824493D01*
X61866054Y-81801971D01*
X61876282Y-81780347D01*
X61888579Y-81759830D01*
X61902829Y-81740617D01*
X61918893Y-81722893D01*
X61936617Y-81706829D01*
X61955830Y-81692579D01*
X61976347Y-81680282D01*
X61997971Y-81670054D01*
X62020493Y-81661996D01*
X62043697Y-81656184D01*
X62067358Y-81652674D01*
X62091250Y-81651500D01*
X63003750Y-81651500D01*
X63027642Y-81652674D01*
X63027642Y-81652674D01*
G37*
D15*
X62547500Y-82139000D03*
D14*
G36*
X63027642Y-79777674D02*
G01*
X63051303Y-79781184D01*
X63074507Y-79786996D01*
X63097029Y-79795054D01*
X63118653Y-79805282D01*
X63139170Y-79817579D01*
X63158383Y-79831829D01*
X63176107Y-79847893D01*
X63192171Y-79865617D01*
X63206421Y-79884830D01*
X63218718Y-79905347D01*
X63228946Y-79926971D01*
X63237004Y-79949493D01*
X63242816Y-79972697D01*
X63246326Y-79996358D01*
X63247500Y-80020250D01*
X63247500Y-80507750D01*
X63246326Y-80531642D01*
X63242816Y-80555303D01*
X63237004Y-80578507D01*
X63228946Y-80601029D01*
X63218718Y-80622653D01*
X63206421Y-80643170D01*
X63192171Y-80662383D01*
X63176107Y-80680107D01*
X63158383Y-80696171D01*
X63139170Y-80710421D01*
X63118653Y-80722718D01*
X63097029Y-80732946D01*
X63074507Y-80741004D01*
X63051303Y-80746816D01*
X63027642Y-80750326D01*
X63003750Y-80751500D01*
X62091250Y-80751500D01*
X62067358Y-80750326D01*
X62043697Y-80746816D01*
X62020493Y-80741004D01*
X61997971Y-80732946D01*
X61976347Y-80722718D01*
X61955830Y-80710421D01*
X61936617Y-80696171D01*
X61918893Y-80680107D01*
X61902829Y-80662383D01*
X61888579Y-80643170D01*
X61876282Y-80622653D01*
X61866054Y-80601029D01*
X61857996Y-80578507D01*
X61852184Y-80555303D01*
X61848674Y-80531642D01*
X61847500Y-80507750D01*
X61847500Y-80020250D01*
X61848674Y-79996358D01*
X61852184Y-79972697D01*
X61857996Y-79949493D01*
X61866054Y-79926971D01*
X61876282Y-79905347D01*
X61888579Y-79884830D01*
X61902829Y-79865617D01*
X61918893Y-79847893D01*
X61936617Y-79831829D01*
X61955830Y-79817579D01*
X61976347Y-79805282D01*
X61997971Y-79795054D01*
X62020493Y-79786996D01*
X62043697Y-79781184D01*
X62067358Y-79777674D01*
X62091250Y-79776500D01*
X63003750Y-79776500D01*
X63027642Y-79777674D01*
X63027642Y-79777674D01*
G37*
D15*
X62547500Y-80264000D03*
D16*
X74041000Y-56847000D03*
X71841000Y-56847000D03*
X71841000Y-58547000D03*
X74041000Y-58547000D03*
D17*
X47912000Y-53848000D03*
X55212000Y-53848000D03*
X55212000Y-58348000D03*
X47912000Y-58348000D03*
D18*
X49962000Y-58348000D03*
X50762000Y-58348000D03*
X51562000Y-58348000D03*
X52362000Y-58348000D03*
X53162000Y-58348000D03*
D19*
X73147582Y-78931436D03*
D14*
G36*
X72422798Y-78595560D02*
G01*
X72811706Y-78206652D01*
X73872366Y-79267312D01*
X73483458Y-79656220D01*
X72422798Y-78595560D01*
X72422798Y-78595560D01*
G37*
D19*
X73713267Y-78365750D03*
D14*
G36*
X72988483Y-78029874D02*
G01*
X73377391Y-77640966D01*
X74438051Y-78701626D01*
X74049143Y-79090534D01*
X72988483Y-78029874D01*
X72988483Y-78029874D01*
G37*
D19*
X74278952Y-77800065D03*
D14*
G36*
X73554168Y-77464189D02*
G01*
X73943076Y-77075281D01*
X75003736Y-78135941D01*
X74614828Y-78524849D01*
X73554168Y-77464189D01*
X73554168Y-77464189D01*
G37*
D19*
X74844638Y-77234380D03*
D14*
G36*
X74119854Y-76898504D02*
G01*
X74508762Y-76509596D01*
X75569422Y-77570256D01*
X75180514Y-77959164D01*
X74119854Y-76898504D01*
X74119854Y-76898504D01*
G37*
D19*
X75410323Y-76668694D03*
D14*
G36*
X74685539Y-76332818D02*
G01*
X75074447Y-75943910D01*
X76135107Y-77004570D01*
X75746199Y-77393478D01*
X74685539Y-76332818D01*
X74685539Y-76332818D01*
G37*
D19*
X75976009Y-76103009D03*
D14*
G36*
X75251225Y-75767133D02*
G01*
X75640133Y-75378225D01*
X76700793Y-76438885D01*
X76311885Y-76827793D01*
X75251225Y-75767133D01*
X75251225Y-75767133D01*
G37*
D19*
X76541694Y-75537323D03*
D14*
G36*
X75816910Y-75201447D02*
G01*
X76205818Y-74812539D01*
X77266478Y-75873199D01*
X76877570Y-76262107D01*
X75816910Y-75201447D01*
X75816910Y-75201447D01*
G37*
D19*
X77107380Y-74971638D03*
D14*
G36*
X76382596Y-74635762D02*
G01*
X76771504Y-74246854D01*
X77832164Y-75307514D01*
X77443256Y-75696422D01*
X76382596Y-74635762D01*
X76382596Y-74635762D01*
G37*
D19*
X77673065Y-74405952D03*
D14*
G36*
X76948281Y-74070076D02*
G01*
X77337189Y-73681168D01*
X78397849Y-74741828D01*
X78008941Y-75130736D01*
X76948281Y-74070076D01*
X76948281Y-74070076D01*
G37*
D19*
X78238750Y-73840267D03*
D14*
G36*
X77513966Y-73504391D02*
G01*
X77902874Y-73115483D01*
X78963534Y-74176143D01*
X78574626Y-74565051D01*
X77513966Y-73504391D01*
X77513966Y-73504391D01*
G37*
D19*
X78804436Y-73274582D03*
D14*
G36*
X78079652Y-72938706D02*
G01*
X78468560Y-72549798D01*
X79529220Y-73610458D01*
X79140312Y-73999366D01*
X78079652Y-72938706D01*
X78079652Y-72938706D01*
G37*
D19*
X78804436Y-70870418D03*
D14*
G36*
X78468560Y-71595202D02*
G01*
X78079652Y-71206294D01*
X79140312Y-70145634D01*
X79529220Y-70534542D01*
X78468560Y-71595202D01*
X78468560Y-71595202D01*
G37*
D19*
X78238750Y-70304733D03*
D14*
G36*
X77902874Y-71029517D02*
G01*
X77513966Y-70640609D01*
X78574626Y-69579949D01*
X78963534Y-69968857D01*
X77902874Y-71029517D01*
X77902874Y-71029517D01*
G37*
D19*
X77673065Y-69739048D03*
D14*
G36*
X77337189Y-70463832D02*
G01*
X76948281Y-70074924D01*
X78008941Y-69014264D01*
X78397849Y-69403172D01*
X77337189Y-70463832D01*
X77337189Y-70463832D01*
G37*
D19*
X77107380Y-69173362D03*
D14*
G36*
X76771504Y-69898146D02*
G01*
X76382596Y-69509238D01*
X77443256Y-68448578D01*
X77832164Y-68837486D01*
X76771504Y-69898146D01*
X76771504Y-69898146D01*
G37*
D19*
X76541694Y-68607677D03*
D14*
G36*
X76205818Y-69332461D02*
G01*
X75816910Y-68943553D01*
X76877570Y-67882893D01*
X77266478Y-68271801D01*
X76205818Y-69332461D01*
X76205818Y-69332461D01*
G37*
D19*
X75976009Y-68041991D03*
D14*
G36*
X75640133Y-68766775D02*
G01*
X75251225Y-68377867D01*
X76311885Y-67317207D01*
X76700793Y-67706115D01*
X75640133Y-68766775D01*
X75640133Y-68766775D01*
G37*
D19*
X75410323Y-67476306D03*
D14*
G36*
X75074447Y-68201090D02*
G01*
X74685539Y-67812182D01*
X75746199Y-66751522D01*
X76135107Y-67140430D01*
X75074447Y-68201090D01*
X75074447Y-68201090D01*
G37*
D19*
X74844638Y-66910620D03*
D14*
G36*
X74508762Y-67635404D02*
G01*
X74119854Y-67246496D01*
X75180514Y-66185836D01*
X75569422Y-66574744D01*
X74508762Y-67635404D01*
X74508762Y-67635404D01*
G37*
D19*
X74278952Y-66344935D03*
D14*
G36*
X73943076Y-67069719D02*
G01*
X73554168Y-66680811D01*
X74614828Y-65620151D01*
X75003736Y-66009059D01*
X73943076Y-67069719D01*
X73943076Y-67069719D01*
G37*
D19*
X73713267Y-65779250D03*
D14*
G36*
X73377391Y-66504034D02*
G01*
X72988483Y-66115126D01*
X74049143Y-65054466D01*
X74438051Y-65443374D01*
X73377391Y-66504034D01*
X73377391Y-66504034D01*
G37*
D19*
X73147582Y-65213564D03*
D14*
G36*
X72811706Y-65938348D02*
G01*
X72422798Y-65549440D01*
X73483458Y-64488780D01*
X73872366Y-64877688D01*
X72811706Y-65938348D01*
X72811706Y-65938348D01*
G37*
D19*
X70743418Y-65213564D03*
D14*
G36*
X70018634Y-64877688D02*
G01*
X70407542Y-64488780D01*
X71468202Y-65549440D01*
X71079294Y-65938348D01*
X70018634Y-64877688D01*
X70018634Y-64877688D01*
G37*
D19*
X70177733Y-65779250D03*
D14*
G36*
X69452949Y-65443374D02*
G01*
X69841857Y-65054466D01*
X70902517Y-66115126D01*
X70513609Y-66504034D01*
X69452949Y-65443374D01*
X69452949Y-65443374D01*
G37*
D19*
X69612048Y-66344935D03*
D14*
G36*
X68887264Y-66009059D02*
G01*
X69276172Y-65620151D01*
X70336832Y-66680811D01*
X69947924Y-67069719D01*
X68887264Y-66009059D01*
X68887264Y-66009059D01*
G37*
D19*
X69046362Y-66910620D03*
D14*
G36*
X68321578Y-66574744D02*
G01*
X68710486Y-66185836D01*
X69771146Y-67246496D01*
X69382238Y-67635404D01*
X68321578Y-66574744D01*
X68321578Y-66574744D01*
G37*
D19*
X68480677Y-67476306D03*
D14*
G36*
X67755893Y-67140430D02*
G01*
X68144801Y-66751522D01*
X69205461Y-67812182D01*
X68816553Y-68201090D01*
X67755893Y-67140430D01*
X67755893Y-67140430D01*
G37*
D19*
X67914991Y-68041991D03*
D14*
G36*
X67190207Y-67706115D02*
G01*
X67579115Y-67317207D01*
X68639775Y-68377867D01*
X68250867Y-68766775D01*
X67190207Y-67706115D01*
X67190207Y-67706115D01*
G37*
D19*
X67349306Y-68607677D03*
D14*
G36*
X66624522Y-68271801D02*
G01*
X67013430Y-67882893D01*
X68074090Y-68943553D01*
X67685182Y-69332461D01*
X66624522Y-68271801D01*
X66624522Y-68271801D01*
G37*
D19*
X66783620Y-69173362D03*
D14*
G36*
X66058836Y-68837486D02*
G01*
X66447744Y-68448578D01*
X67508404Y-69509238D01*
X67119496Y-69898146D01*
X66058836Y-68837486D01*
X66058836Y-68837486D01*
G37*
D19*
X66217935Y-69739048D03*
D14*
G36*
X65493151Y-69403172D02*
G01*
X65882059Y-69014264D01*
X66942719Y-70074924D01*
X66553811Y-70463832D01*
X65493151Y-69403172D01*
X65493151Y-69403172D01*
G37*
D19*
X65652250Y-70304733D03*
D14*
G36*
X64927466Y-69968857D02*
G01*
X65316374Y-69579949D01*
X66377034Y-70640609D01*
X65988126Y-71029517D01*
X64927466Y-69968857D01*
X64927466Y-69968857D01*
G37*
D19*
X65086564Y-70870418D03*
D14*
G36*
X64361780Y-70534542D02*
G01*
X64750688Y-70145634D01*
X65811348Y-71206294D01*
X65422440Y-71595202D01*
X64361780Y-70534542D01*
X64361780Y-70534542D01*
G37*
D19*
X65086564Y-73274582D03*
D14*
G36*
X64750688Y-73999366D02*
G01*
X64361780Y-73610458D01*
X65422440Y-72549798D01*
X65811348Y-72938706D01*
X64750688Y-73999366D01*
X64750688Y-73999366D01*
G37*
D19*
X65652250Y-73840267D03*
D14*
G36*
X65316374Y-74565051D02*
G01*
X64927466Y-74176143D01*
X65988126Y-73115483D01*
X66377034Y-73504391D01*
X65316374Y-74565051D01*
X65316374Y-74565051D01*
G37*
D19*
X66217935Y-74405952D03*
D14*
G36*
X65882059Y-75130736D02*
G01*
X65493151Y-74741828D01*
X66553811Y-73681168D01*
X66942719Y-74070076D01*
X65882059Y-75130736D01*
X65882059Y-75130736D01*
G37*
D19*
X66783620Y-74971638D03*
D14*
G36*
X66447744Y-75696422D02*
G01*
X66058836Y-75307514D01*
X67119496Y-74246854D01*
X67508404Y-74635762D01*
X66447744Y-75696422D01*
X66447744Y-75696422D01*
G37*
D19*
X67349306Y-75537323D03*
D14*
G36*
X67013430Y-76262107D02*
G01*
X66624522Y-75873199D01*
X67685182Y-74812539D01*
X68074090Y-75201447D01*
X67013430Y-76262107D01*
X67013430Y-76262107D01*
G37*
D19*
X67914991Y-76103009D03*
D14*
G36*
X67579115Y-76827793D02*
G01*
X67190207Y-76438885D01*
X68250867Y-75378225D01*
X68639775Y-75767133D01*
X67579115Y-76827793D01*
X67579115Y-76827793D01*
G37*
D19*
X68480677Y-76668694D03*
D14*
G36*
X68144801Y-77393478D02*
G01*
X67755893Y-77004570D01*
X68816553Y-75943910D01*
X69205461Y-76332818D01*
X68144801Y-77393478D01*
X68144801Y-77393478D01*
G37*
D19*
X69046362Y-77234380D03*
D14*
G36*
X68710486Y-77959164D02*
G01*
X68321578Y-77570256D01*
X69382238Y-76509596D01*
X69771146Y-76898504D01*
X68710486Y-77959164D01*
X68710486Y-77959164D01*
G37*
D19*
X69612048Y-77800065D03*
D14*
G36*
X69276172Y-78524849D02*
G01*
X68887264Y-78135941D01*
X69947924Y-77075281D01*
X70336832Y-77464189D01*
X69276172Y-78524849D01*
X69276172Y-78524849D01*
G37*
D19*
X70177733Y-78365750D03*
D14*
G36*
X69841857Y-79090534D02*
G01*
X69452949Y-78701626D01*
X70513609Y-77640966D01*
X70902517Y-78029874D01*
X69841857Y-79090534D01*
X69841857Y-79090534D01*
G37*
D19*
X70743418Y-78931436D03*
D14*
G36*
X70407542Y-79656220D02*
G01*
X70018634Y-79267312D01*
X71079294Y-78206652D01*
X71468202Y-78595560D01*
X70407542Y-79656220D01*
X70407542Y-79656220D01*
G37*
D20*
X54165500Y-84916500D03*
X47965500Y-81216500D03*
X54165500Y-81216500D03*
X47965500Y-84916500D03*
D14*
G36*
X81379142Y-77999674D02*
G01*
X81402803Y-78003184D01*
X81426007Y-78008996D01*
X81448529Y-78017054D01*
X81470153Y-78027282D01*
X81490670Y-78039579D01*
X81509883Y-78053829D01*
X81527607Y-78069893D01*
X81543671Y-78087617D01*
X81557921Y-78106830D01*
X81570218Y-78127347D01*
X81580446Y-78148971D01*
X81588504Y-78171493D01*
X81594316Y-78194697D01*
X81597826Y-78218358D01*
X81599000Y-78242250D01*
X81599000Y-78729750D01*
X81597826Y-78753642D01*
X81594316Y-78777303D01*
X81588504Y-78800507D01*
X81580446Y-78823029D01*
X81570218Y-78844653D01*
X81557921Y-78865170D01*
X81543671Y-78884383D01*
X81527607Y-78902107D01*
X81509883Y-78918171D01*
X81490670Y-78932421D01*
X81470153Y-78944718D01*
X81448529Y-78954946D01*
X81426007Y-78963004D01*
X81402803Y-78968816D01*
X81379142Y-78972326D01*
X81355250Y-78973500D01*
X80442750Y-78973500D01*
X80418858Y-78972326D01*
X80395197Y-78968816D01*
X80371993Y-78963004D01*
X80349471Y-78954946D01*
X80327847Y-78944718D01*
X80307330Y-78932421D01*
X80288117Y-78918171D01*
X80270393Y-78902107D01*
X80254329Y-78884383D01*
X80240079Y-78865170D01*
X80227782Y-78844653D01*
X80217554Y-78823029D01*
X80209496Y-78800507D01*
X80203684Y-78777303D01*
X80200174Y-78753642D01*
X80199000Y-78729750D01*
X80199000Y-78242250D01*
X80200174Y-78218358D01*
X80203684Y-78194697D01*
X80209496Y-78171493D01*
X80217554Y-78148971D01*
X80227782Y-78127347D01*
X80240079Y-78106830D01*
X80254329Y-78087617D01*
X80270393Y-78069893D01*
X80288117Y-78053829D01*
X80307330Y-78039579D01*
X80327847Y-78027282D01*
X80349471Y-78017054D01*
X80371993Y-78008996D01*
X80395197Y-78003184D01*
X80418858Y-77999674D01*
X80442750Y-77998500D01*
X81355250Y-77998500D01*
X81379142Y-77999674D01*
X81379142Y-77999674D01*
G37*
D15*
X80899000Y-78486000D03*
D14*
G36*
X81379142Y-79874674D02*
G01*
X81402803Y-79878184D01*
X81426007Y-79883996D01*
X81448529Y-79892054D01*
X81470153Y-79902282D01*
X81490670Y-79914579D01*
X81509883Y-79928829D01*
X81527607Y-79944893D01*
X81543671Y-79962617D01*
X81557921Y-79981830D01*
X81570218Y-80002347D01*
X81580446Y-80023971D01*
X81588504Y-80046493D01*
X81594316Y-80069697D01*
X81597826Y-80093358D01*
X81599000Y-80117250D01*
X81599000Y-80604750D01*
X81597826Y-80628642D01*
X81594316Y-80652303D01*
X81588504Y-80675507D01*
X81580446Y-80698029D01*
X81570218Y-80719653D01*
X81557921Y-80740170D01*
X81543671Y-80759383D01*
X81527607Y-80777107D01*
X81509883Y-80793171D01*
X81490670Y-80807421D01*
X81470153Y-80819718D01*
X81448529Y-80829946D01*
X81426007Y-80838004D01*
X81402803Y-80843816D01*
X81379142Y-80847326D01*
X81355250Y-80848500D01*
X80442750Y-80848500D01*
X80418858Y-80847326D01*
X80395197Y-80843816D01*
X80371993Y-80838004D01*
X80349471Y-80829946D01*
X80327847Y-80819718D01*
X80307330Y-80807421D01*
X80288117Y-80793171D01*
X80270393Y-80777107D01*
X80254329Y-80759383D01*
X80240079Y-80740170D01*
X80227782Y-80719653D01*
X80217554Y-80698029D01*
X80209496Y-80675507D01*
X80203684Y-80652303D01*
X80200174Y-80628642D01*
X80199000Y-80604750D01*
X80199000Y-80117250D01*
X80200174Y-80093358D01*
X80203684Y-80069697D01*
X80209496Y-80046493D01*
X80217554Y-80023971D01*
X80227782Y-80002347D01*
X80240079Y-79981830D01*
X80254329Y-79962617D01*
X80270393Y-79944893D01*
X80288117Y-79928829D01*
X80307330Y-79914579D01*
X80327847Y-79902282D01*
X80349471Y-79892054D01*
X80371993Y-79883996D01*
X80395197Y-79878184D01*
X80418858Y-79874674D01*
X80442750Y-79873500D01*
X81355250Y-79873500D01*
X81379142Y-79874674D01*
X81379142Y-79874674D01*
G37*
D15*
X80899000Y-80361000D03*
D14*
G36*
X60932142Y-61870674D02*
G01*
X60955803Y-61874184D01*
X60979007Y-61879996D01*
X61001529Y-61888054D01*
X61023153Y-61898282D01*
X61043670Y-61910579D01*
X61062883Y-61924829D01*
X61080607Y-61940893D01*
X61096671Y-61958617D01*
X61110921Y-61977830D01*
X61123218Y-61998347D01*
X61133446Y-62019971D01*
X61141504Y-62042493D01*
X61147316Y-62065697D01*
X61150826Y-62089358D01*
X61152000Y-62113250D01*
X61152000Y-62600750D01*
X61150826Y-62624642D01*
X61147316Y-62648303D01*
X61141504Y-62671507D01*
X61133446Y-62694029D01*
X61123218Y-62715653D01*
X61110921Y-62736170D01*
X61096671Y-62755383D01*
X61080607Y-62773107D01*
X61062883Y-62789171D01*
X61043670Y-62803421D01*
X61023153Y-62815718D01*
X61001529Y-62825946D01*
X60979007Y-62834004D01*
X60955803Y-62839816D01*
X60932142Y-62843326D01*
X60908250Y-62844500D01*
X59995750Y-62844500D01*
X59971858Y-62843326D01*
X59948197Y-62839816D01*
X59924993Y-62834004D01*
X59902471Y-62825946D01*
X59880847Y-62815718D01*
X59860330Y-62803421D01*
X59841117Y-62789171D01*
X59823393Y-62773107D01*
X59807329Y-62755383D01*
X59793079Y-62736170D01*
X59780782Y-62715653D01*
X59770554Y-62694029D01*
X59762496Y-62671507D01*
X59756684Y-62648303D01*
X59753174Y-62624642D01*
X59752000Y-62600750D01*
X59752000Y-62113250D01*
X59753174Y-62089358D01*
X59756684Y-62065697D01*
X59762496Y-62042493D01*
X59770554Y-62019971D01*
X59780782Y-61998347D01*
X59793079Y-61977830D01*
X59807329Y-61958617D01*
X59823393Y-61940893D01*
X59841117Y-61924829D01*
X59860330Y-61910579D01*
X59880847Y-61898282D01*
X59902471Y-61888054D01*
X59924993Y-61879996D01*
X59948197Y-61874184D01*
X59971858Y-61870674D01*
X59995750Y-61869500D01*
X60908250Y-61869500D01*
X60932142Y-61870674D01*
X60932142Y-61870674D01*
G37*
D15*
X60452000Y-62357000D03*
D14*
G36*
X60932142Y-59995674D02*
G01*
X60955803Y-59999184D01*
X60979007Y-60004996D01*
X61001529Y-60013054D01*
X61023153Y-60023282D01*
X61043670Y-60035579D01*
X61062883Y-60049829D01*
X61080607Y-60065893D01*
X61096671Y-60083617D01*
X61110921Y-60102830D01*
X61123218Y-60123347D01*
X61133446Y-60144971D01*
X61141504Y-60167493D01*
X61147316Y-60190697D01*
X61150826Y-60214358D01*
X61152000Y-60238250D01*
X61152000Y-60725750D01*
X61150826Y-60749642D01*
X61147316Y-60773303D01*
X61141504Y-60796507D01*
X61133446Y-60819029D01*
X61123218Y-60840653D01*
X61110921Y-60861170D01*
X61096671Y-60880383D01*
X61080607Y-60898107D01*
X61062883Y-60914171D01*
X61043670Y-60928421D01*
X61023153Y-60940718D01*
X61001529Y-60950946D01*
X60979007Y-60959004D01*
X60955803Y-60964816D01*
X60932142Y-60968326D01*
X60908250Y-60969500D01*
X59995750Y-60969500D01*
X59971858Y-60968326D01*
X59948197Y-60964816D01*
X59924993Y-60959004D01*
X59902471Y-60950946D01*
X59880847Y-60940718D01*
X59860330Y-60928421D01*
X59841117Y-60914171D01*
X59823393Y-60898107D01*
X59807329Y-60880383D01*
X59793079Y-60861170D01*
X59780782Y-60840653D01*
X59770554Y-60819029D01*
X59762496Y-60796507D01*
X59756684Y-60773303D01*
X59753174Y-60749642D01*
X59752000Y-60725750D01*
X59752000Y-60238250D01*
X59753174Y-60214358D01*
X59756684Y-60190697D01*
X59762496Y-60167493D01*
X59770554Y-60144971D01*
X59780782Y-60123347D01*
X59793079Y-60102830D01*
X59807329Y-60083617D01*
X59823393Y-60065893D01*
X59841117Y-60049829D01*
X59860330Y-60035579D01*
X59880847Y-60023282D01*
X59902471Y-60013054D01*
X59924993Y-60004996D01*
X59948197Y-59999184D01*
X59971858Y-59995674D01*
X59995750Y-59994500D01*
X60908250Y-59994500D01*
X60932142Y-59995674D01*
X60932142Y-59995674D01*
G37*
D15*
X60452000Y-60482000D03*
D14*
G36*
X53248642Y-63361174D02*
G01*
X53272303Y-63364684D01*
X53295507Y-63370496D01*
X53318029Y-63378554D01*
X53339653Y-63388782D01*
X53360170Y-63401079D01*
X53379383Y-63415329D01*
X53397107Y-63431393D01*
X53413171Y-63449117D01*
X53427421Y-63468330D01*
X53439718Y-63488847D01*
X53449946Y-63510471D01*
X53458004Y-63532993D01*
X53463816Y-63556197D01*
X53467326Y-63579858D01*
X53468500Y-63603750D01*
X53468500Y-64091250D01*
X53467326Y-64115142D01*
X53463816Y-64138803D01*
X53458004Y-64162007D01*
X53449946Y-64184529D01*
X53439718Y-64206153D01*
X53427421Y-64226670D01*
X53413171Y-64245883D01*
X53397107Y-64263607D01*
X53379383Y-64279671D01*
X53360170Y-64293921D01*
X53339653Y-64306218D01*
X53318029Y-64316446D01*
X53295507Y-64324504D01*
X53272303Y-64330316D01*
X53248642Y-64333826D01*
X53224750Y-64335000D01*
X52312250Y-64335000D01*
X52288358Y-64333826D01*
X52264697Y-64330316D01*
X52241493Y-64324504D01*
X52218971Y-64316446D01*
X52197347Y-64306218D01*
X52176830Y-64293921D01*
X52157617Y-64279671D01*
X52139893Y-64263607D01*
X52123829Y-64245883D01*
X52109579Y-64226670D01*
X52097282Y-64206153D01*
X52087054Y-64184529D01*
X52078996Y-64162007D01*
X52073184Y-64138803D01*
X52069674Y-64115142D01*
X52068500Y-64091250D01*
X52068500Y-63603750D01*
X52069674Y-63579858D01*
X52073184Y-63556197D01*
X52078996Y-63532993D01*
X52087054Y-63510471D01*
X52097282Y-63488847D01*
X52109579Y-63468330D01*
X52123829Y-63449117D01*
X52139893Y-63431393D01*
X52157617Y-63415329D01*
X52176830Y-63401079D01*
X52197347Y-63388782D01*
X52218971Y-63378554D01*
X52241493Y-63370496D01*
X52264697Y-63364684D01*
X52288358Y-63361174D01*
X52312250Y-63360000D01*
X53224750Y-63360000D01*
X53248642Y-63361174D01*
X53248642Y-63361174D01*
G37*
D15*
X52768500Y-63847500D03*
D14*
G36*
X53248642Y-65236174D02*
G01*
X53272303Y-65239684D01*
X53295507Y-65245496D01*
X53318029Y-65253554D01*
X53339653Y-65263782D01*
X53360170Y-65276079D01*
X53379383Y-65290329D01*
X53397107Y-65306393D01*
X53413171Y-65324117D01*
X53427421Y-65343330D01*
X53439718Y-65363847D01*
X53449946Y-65385471D01*
X53458004Y-65407993D01*
X53463816Y-65431197D01*
X53467326Y-65454858D01*
X53468500Y-65478750D01*
X53468500Y-65966250D01*
X53467326Y-65990142D01*
X53463816Y-66013803D01*
X53458004Y-66037007D01*
X53449946Y-66059529D01*
X53439718Y-66081153D01*
X53427421Y-66101670D01*
X53413171Y-66120883D01*
X53397107Y-66138607D01*
X53379383Y-66154671D01*
X53360170Y-66168921D01*
X53339653Y-66181218D01*
X53318029Y-66191446D01*
X53295507Y-66199504D01*
X53272303Y-66205316D01*
X53248642Y-66208826D01*
X53224750Y-66210000D01*
X52312250Y-66210000D01*
X52288358Y-66208826D01*
X52264697Y-66205316D01*
X52241493Y-66199504D01*
X52218971Y-66191446D01*
X52197347Y-66181218D01*
X52176830Y-66168921D01*
X52157617Y-66154671D01*
X52139893Y-66138607D01*
X52123829Y-66120883D01*
X52109579Y-66101670D01*
X52097282Y-66081153D01*
X52087054Y-66059529D01*
X52078996Y-66037007D01*
X52073184Y-66013803D01*
X52069674Y-65990142D01*
X52068500Y-65966250D01*
X52068500Y-65478750D01*
X52069674Y-65454858D01*
X52073184Y-65431197D01*
X52078996Y-65407993D01*
X52087054Y-65385471D01*
X52097282Y-65363847D01*
X52109579Y-65343330D01*
X52123829Y-65324117D01*
X52139893Y-65306393D01*
X52157617Y-65290329D01*
X52176830Y-65276079D01*
X52197347Y-65263782D01*
X52218971Y-65253554D01*
X52241493Y-65245496D01*
X52264697Y-65239684D01*
X52288358Y-65236174D01*
X52312250Y-65235000D01*
X53224750Y-65235000D01*
X53248642Y-65236174D01*
X53248642Y-65236174D01*
G37*
D15*
X52768500Y-65722500D03*
D14*
G36*
X49883142Y-63424674D02*
G01*
X49906803Y-63428184D01*
X49930007Y-63433996D01*
X49952529Y-63442054D01*
X49974153Y-63452282D01*
X49994670Y-63464579D01*
X50013883Y-63478829D01*
X50031607Y-63494893D01*
X50047671Y-63512617D01*
X50061921Y-63531830D01*
X50074218Y-63552347D01*
X50084446Y-63573971D01*
X50092504Y-63596493D01*
X50098316Y-63619697D01*
X50101826Y-63643358D01*
X50103000Y-63667250D01*
X50103000Y-64154750D01*
X50101826Y-64178642D01*
X50098316Y-64202303D01*
X50092504Y-64225507D01*
X50084446Y-64248029D01*
X50074218Y-64269653D01*
X50061921Y-64290170D01*
X50047671Y-64309383D01*
X50031607Y-64327107D01*
X50013883Y-64343171D01*
X49994670Y-64357421D01*
X49974153Y-64369718D01*
X49952529Y-64379946D01*
X49930007Y-64388004D01*
X49906803Y-64393816D01*
X49883142Y-64397326D01*
X49859250Y-64398500D01*
X48946750Y-64398500D01*
X48922858Y-64397326D01*
X48899197Y-64393816D01*
X48875993Y-64388004D01*
X48853471Y-64379946D01*
X48831847Y-64369718D01*
X48811330Y-64357421D01*
X48792117Y-64343171D01*
X48774393Y-64327107D01*
X48758329Y-64309383D01*
X48744079Y-64290170D01*
X48731782Y-64269653D01*
X48721554Y-64248029D01*
X48713496Y-64225507D01*
X48707684Y-64202303D01*
X48704174Y-64178642D01*
X48703000Y-64154750D01*
X48703000Y-63667250D01*
X48704174Y-63643358D01*
X48707684Y-63619697D01*
X48713496Y-63596493D01*
X48721554Y-63573971D01*
X48731782Y-63552347D01*
X48744079Y-63531830D01*
X48758329Y-63512617D01*
X48774393Y-63494893D01*
X48792117Y-63478829D01*
X48811330Y-63464579D01*
X48831847Y-63452282D01*
X48853471Y-63442054D01*
X48875993Y-63433996D01*
X48899197Y-63428184D01*
X48922858Y-63424674D01*
X48946750Y-63423500D01*
X49859250Y-63423500D01*
X49883142Y-63424674D01*
X49883142Y-63424674D01*
G37*
D15*
X49403000Y-63911000D03*
D14*
G36*
X49883142Y-65299674D02*
G01*
X49906803Y-65303184D01*
X49930007Y-65308996D01*
X49952529Y-65317054D01*
X49974153Y-65327282D01*
X49994670Y-65339579D01*
X50013883Y-65353829D01*
X50031607Y-65369893D01*
X50047671Y-65387617D01*
X50061921Y-65406830D01*
X50074218Y-65427347D01*
X50084446Y-65448971D01*
X50092504Y-65471493D01*
X50098316Y-65494697D01*
X50101826Y-65518358D01*
X50103000Y-65542250D01*
X50103000Y-66029750D01*
X50101826Y-66053642D01*
X50098316Y-66077303D01*
X50092504Y-66100507D01*
X50084446Y-66123029D01*
X50074218Y-66144653D01*
X50061921Y-66165170D01*
X50047671Y-66184383D01*
X50031607Y-66202107D01*
X50013883Y-66218171D01*
X49994670Y-66232421D01*
X49974153Y-66244718D01*
X49952529Y-66254946D01*
X49930007Y-66263004D01*
X49906803Y-66268816D01*
X49883142Y-66272326D01*
X49859250Y-66273500D01*
X48946750Y-66273500D01*
X48922858Y-66272326D01*
X48899197Y-66268816D01*
X48875993Y-66263004D01*
X48853471Y-66254946D01*
X48831847Y-66244718D01*
X48811330Y-66232421D01*
X48792117Y-66218171D01*
X48774393Y-66202107D01*
X48758329Y-66184383D01*
X48744079Y-66165170D01*
X48731782Y-66144653D01*
X48721554Y-66123029D01*
X48713496Y-66100507D01*
X48707684Y-66077303D01*
X48704174Y-66053642D01*
X48703000Y-66029750D01*
X48703000Y-65542250D01*
X48704174Y-65518358D01*
X48707684Y-65494697D01*
X48713496Y-65471493D01*
X48721554Y-65448971D01*
X48731782Y-65427347D01*
X48744079Y-65406830D01*
X48758329Y-65387617D01*
X48774393Y-65369893D01*
X48792117Y-65353829D01*
X48811330Y-65339579D01*
X48831847Y-65327282D01*
X48853471Y-65317054D01*
X48875993Y-65308996D01*
X48899197Y-65303184D01*
X48922858Y-65299674D01*
X48946750Y-65298500D01*
X49859250Y-65298500D01*
X49883142Y-65299674D01*
X49883142Y-65299674D01*
G37*
D15*
X49403000Y-65786000D03*
D10*
X113982500Y-86042500D03*
D11*
X111442500Y-86042500D03*
D12*
X110212500Y-76962500D03*
X109557501Y-77692500D03*
D13*
X108902500Y-78422500D02*
X110212502Y-76962500D01*
D12*
X115252500Y-75882500D03*
X115232500Y-76172500D03*
D13*
X115212500Y-76462500D02*
X115252500Y-75882500D01*
D10*
X94932500Y-86042500D03*
D11*
X92392500Y-86042500D03*
D12*
X91162500Y-76962500D03*
X90507501Y-77692500D03*
D13*
X89852500Y-78422500D02*
X91162502Y-76962500D01*
D12*
X96202500Y-75882500D03*
X96182500Y-76172500D03*
D13*
X96162500Y-76462500D02*
X96202500Y-75882500D01*
D10*
X94932500Y-66992500D03*
D11*
X92392500Y-66992500D03*
D12*
X91162500Y-57912500D03*
X90507501Y-58642500D03*
D13*
X89852500Y-59372500D02*
X91162502Y-57912500D01*
D12*
X96202500Y-56832500D03*
X96182500Y-57122500D03*
D13*
X96162500Y-57412500D02*
X96202500Y-56832500D01*
D14*
G36*
X46242504Y-68464204D02*
G01*
X46266773Y-68467804D01*
X46290571Y-68473765D01*
X46313671Y-68482030D01*
X46335849Y-68492520D01*
X46356893Y-68505133D01*
X46376598Y-68519747D01*
X46394777Y-68536223D01*
X46411253Y-68554402D01*
X46425867Y-68574107D01*
X46438480Y-68595151D01*
X46448970Y-68617329D01*
X46457235Y-68640429D01*
X46463196Y-68664227D01*
X46466796Y-68688496D01*
X46468000Y-68713000D01*
X46468000Y-69463000D01*
X46466796Y-69487504D01*
X46463196Y-69511773D01*
X46457235Y-69535571D01*
X46448970Y-69558671D01*
X46438480Y-69580849D01*
X46425867Y-69601893D01*
X46411253Y-69621598D01*
X46394777Y-69639777D01*
X46376598Y-69656253D01*
X46356893Y-69670867D01*
X46335849Y-69683480D01*
X46313671Y-69693970D01*
X46290571Y-69702235D01*
X46266773Y-69708196D01*
X46242504Y-69711796D01*
X46218000Y-69713000D01*
X44968000Y-69713000D01*
X44943496Y-69711796D01*
X44919227Y-69708196D01*
X44895429Y-69702235D01*
X44872329Y-69693970D01*
X44850151Y-69683480D01*
X44829107Y-69670867D01*
X44809402Y-69656253D01*
X44791223Y-69639777D01*
X44774747Y-69621598D01*
X44760133Y-69601893D01*
X44747520Y-69580849D01*
X44737030Y-69558671D01*
X44728765Y-69535571D01*
X44722804Y-69511773D01*
X44719204Y-69487504D01*
X44718000Y-69463000D01*
X44718000Y-68713000D01*
X44719204Y-68688496D01*
X44722804Y-68664227D01*
X44728765Y-68640429D01*
X44737030Y-68617329D01*
X44747520Y-68595151D01*
X44760133Y-68574107D01*
X44774747Y-68554402D01*
X44791223Y-68536223D01*
X44809402Y-68519747D01*
X44829107Y-68505133D01*
X44850151Y-68492520D01*
X44872329Y-68482030D01*
X44895429Y-68473765D01*
X44919227Y-68467804D01*
X44943496Y-68464204D01*
X44968000Y-68463000D01*
X46218000Y-68463000D01*
X46242504Y-68464204D01*
X46242504Y-68464204D01*
G37*
D21*
X45593000Y-69088000D03*
D14*
G36*
X46242504Y-71264204D02*
G01*
X46266773Y-71267804D01*
X46290571Y-71273765D01*
X46313671Y-71282030D01*
X46335849Y-71292520D01*
X46356893Y-71305133D01*
X46376598Y-71319747D01*
X46394777Y-71336223D01*
X46411253Y-71354402D01*
X46425867Y-71374107D01*
X46438480Y-71395151D01*
X46448970Y-71417329D01*
X46457235Y-71440429D01*
X46463196Y-71464227D01*
X46466796Y-71488496D01*
X46468000Y-71513000D01*
X46468000Y-72263000D01*
X46466796Y-72287504D01*
X46463196Y-72311773D01*
X46457235Y-72335571D01*
X46448970Y-72358671D01*
X46438480Y-72380849D01*
X46425867Y-72401893D01*
X46411253Y-72421598D01*
X46394777Y-72439777D01*
X46376598Y-72456253D01*
X46356893Y-72470867D01*
X46335849Y-72483480D01*
X46313671Y-72493970D01*
X46290571Y-72502235D01*
X46266773Y-72508196D01*
X46242504Y-72511796D01*
X46218000Y-72513000D01*
X44968000Y-72513000D01*
X44943496Y-72511796D01*
X44919227Y-72508196D01*
X44895429Y-72502235D01*
X44872329Y-72493970D01*
X44850151Y-72483480D01*
X44829107Y-72470867D01*
X44809402Y-72456253D01*
X44791223Y-72439777D01*
X44774747Y-72421598D01*
X44760133Y-72401893D01*
X44747520Y-72380849D01*
X44737030Y-72358671D01*
X44728765Y-72335571D01*
X44722804Y-72311773D01*
X44719204Y-72287504D01*
X44718000Y-72263000D01*
X44718000Y-71513000D01*
X44719204Y-71488496D01*
X44722804Y-71464227D01*
X44728765Y-71440429D01*
X44737030Y-71417329D01*
X44747520Y-71395151D01*
X44760133Y-71374107D01*
X44774747Y-71354402D01*
X44791223Y-71336223D01*
X44809402Y-71319747D01*
X44829107Y-71305133D01*
X44850151Y-71292520D01*
X44872329Y-71282030D01*
X44895429Y-71273765D01*
X44919227Y-71267804D01*
X44943496Y-71264204D01*
X44968000Y-71263000D01*
X46218000Y-71263000D01*
X46242504Y-71264204D01*
X46242504Y-71264204D01*
G37*
D21*
X45593000Y-71888000D03*
D22*
X120650000Y-79248000D03*
X120650000Y-82548000D03*
X120650000Y-60198000D03*
X120650000Y-63498000D03*
X101600000Y-79250000D03*
X101600000Y-82550000D03*
X101600000Y-60200000D03*
X101600000Y-63500000D03*
D14*
G36*
X60216242Y-74789974D02*
G01*
X60239903Y-74793484D01*
X60263107Y-74799296D01*
X60285629Y-74807354D01*
X60307253Y-74817582D01*
X60327770Y-74829879D01*
X60346983Y-74844129D01*
X60364707Y-74860193D01*
X60380771Y-74877917D01*
X60395021Y-74897130D01*
X60407318Y-74917647D01*
X60417546Y-74939271D01*
X60425604Y-74961793D01*
X60431416Y-74984997D01*
X60434926Y-75008658D01*
X60436100Y-75032550D01*
X60436100Y-75945050D01*
X60434926Y-75968942D01*
X60431416Y-75992603D01*
X60425604Y-76015807D01*
X60417546Y-76038329D01*
X60407318Y-76059953D01*
X60395021Y-76080470D01*
X60380771Y-76099683D01*
X60364707Y-76117407D01*
X60346983Y-76133471D01*
X60327770Y-76147721D01*
X60307253Y-76160018D01*
X60285629Y-76170246D01*
X60263107Y-76178304D01*
X60239903Y-76184116D01*
X60216242Y-76187626D01*
X60192350Y-76188800D01*
X59704850Y-76188800D01*
X59680958Y-76187626D01*
X59657297Y-76184116D01*
X59634093Y-76178304D01*
X59611571Y-76170246D01*
X59589947Y-76160018D01*
X59569430Y-76147721D01*
X59550217Y-76133471D01*
X59532493Y-76117407D01*
X59516429Y-76099683D01*
X59502179Y-76080470D01*
X59489882Y-76059953D01*
X59479654Y-76038329D01*
X59471596Y-76015807D01*
X59465784Y-75992603D01*
X59462274Y-75968942D01*
X59461100Y-75945050D01*
X59461100Y-75032550D01*
X59462274Y-75008658D01*
X59465784Y-74984997D01*
X59471596Y-74961793D01*
X59479654Y-74939271D01*
X59489882Y-74917647D01*
X59502179Y-74897130D01*
X59516429Y-74877917D01*
X59532493Y-74860193D01*
X59550217Y-74844129D01*
X59569430Y-74829879D01*
X59589947Y-74817582D01*
X59611571Y-74807354D01*
X59634093Y-74799296D01*
X59657297Y-74793484D01*
X59680958Y-74789974D01*
X59704850Y-74788800D01*
X60192350Y-74788800D01*
X60216242Y-74789974D01*
X60216242Y-74789974D01*
G37*
D15*
X59948600Y-75488800D03*
D14*
G36*
X62091242Y-74789974D02*
G01*
X62114903Y-74793484D01*
X62138107Y-74799296D01*
X62160629Y-74807354D01*
X62182253Y-74817582D01*
X62202770Y-74829879D01*
X62221983Y-74844129D01*
X62239707Y-74860193D01*
X62255771Y-74877917D01*
X62270021Y-74897130D01*
X62282318Y-74917647D01*
X62292546Y-74939271D01*
X62300604Y-74961793D01*
X62306416Y-74984997D01*
X62309926Y-75008658D01*
X62311100Y-75032550D01*
X62311100Y-75945050D01*
X62309926Y-75968942D01*
X62306416Y-75992603D01*
X62300604Y-76015807D01*
X62292546Y-76038329D01*
X62282318Y-76059953D01*
X62270021Y-76080470D01*
X62255771Y-76099683D01*
X62239707Y-76117407D01*
X62221983Y-76133471D01*
X62202770Y-76147721D01*
X62182253Y-76160018D01*
X62160629Y-76170246D01*
X62138107Y-76178304D01*
X62114903Y-76184116D01*
X62091242Y-76187626D01*
X62067350Y-76188800D01*
X61579850Y-76188800D01*
X61555958Y-76187626D01*
X61532297Y-76184116D01*
X61509093Y-76178304D01*
X61486571Y-76170246D01*
X61464947Y-76160018D01*
X61444430Y-76147721D01*
X61425217Y-76133471D01*
X61407493Y-76117407D01*
X61391429Y-76099683D01*
X61377179Y-76080470D01*
X61364882Y-76059953D01*
X61354654Y-76038329D01*
X61346596Y-76015807D01*
X61340784Y-75992603D01*
X61337274Y-75968942D01*
X61336100Y-75945050D01*
X61336100Y-75032550D01*
X61337274Y-75008658D01*
X61340784Y-74984997D01*
X61346596Y-74961793D01*
X61354654Y-74939271D01*
X61364882Y-74917647D01*
X61377179Y-74897130D01*
X61391429Y-74877917D01*
X61407493Y-74860193D01*
X61425217Y-74844129D01*
X61444430Y-74829879D01*
X61464947Y-74817582D01*
X61486571Y-74807354D01*
X61509093Y-74799296D01*
X61532297Y-74793484D01*
X61555958Y-74789974D01*
X61579850Y-74788800D01*
X62067350Y-74788800D01*
X62091242Y-74789974D01*
X62091242Y-74789974D01*
G37*
D15*
X61823600Y-75488800D03*
D14*
G36*
X71671642Y-84454674D02*
G01*
X71695303Y-84458184D01*
X71718507Y-84463996D01*
X71741029Y-84472054D01*
X71762653Y-84482282D01*
X71783170Y-84494579D01*
X71802383Y-84508829D01*
X71820107Y-84524893D01*
X71836171Y-84542617D01*
X71850421Y-84561830D01*
X71862718Y-84582347D01*
X71872946Y-84603971D01*
X71881004Y-84626493D01*
X71886816Y-84649697D01*
X71890326Y-84673358D01*
X71891500Y-84697250D01*
X71891500Y-85609750D01*
X71890326Y-85633642D01*
X71886816Y-85657303D01*
X71881004Y-85680507D01*
X71872946Y-85703029D01*
X71862718Y-85724653D01*
X71850421Y-85745170D01*
X71836171Y-85764383D01*
X71820107Y-85782107D01*
X71802383Y-85798171D01*
X71783170Y-85812421D01*
X71762653Y-85824718D01*
X71741029Y-85834946D01*
X71718507Y-85843004D01*
X71695303Y-85848816D01*
X71671642Y-85852326D01*
X71647750Y-85853500D01*
X71160250Y-85853500D01*
X71136358Y-85852326D01*
X71112697Y-85848816D01*
X71089493Y-85843004D01*
X71066971Y-85834946D01*
X71045347Y-85824718D01*
X71024830Y-85812421D01*
X71005617Y-85798171D01*
X70987893Y-85782107D01*
X70971829Y-85764383D01*
X70957579Y-85745170D01*
X70945282Y-85724653D01*
X70935054Y-85703029D01*
X70926996Y-85680507D01*
X70921184Y-85657303D01*
X70917674Y-85633642D01*
X70916500Y-85609750D01*
X70916500Y-84697250D01*
X70917674Y-84673358D01*
X70921184Y-84649697D01*
X70926996Y-84626493D01*
X70935054Y-84603971D01*
X70945282Y-84582347D01*
X70957579Y-84561830D01*
X70971829Y-84542617D01*
X70987893Y-84524893D01*
X71005617Y-84508829D01*
X71024830Y-84494579D01*
X71045347Y-84482282D01*
X71066971Y-84472054D01*
X71089493Y-84463996D01*
X71112697Y-84458184D01*
X71136358Y-84454674D01*
X71160250Y-84453500D01*
X71647750Y-84453500D01*
X71671642Y-84454674D01*
X71671642Y-84454674D01*
G37*
D15*
X71404000Y-85153500D03*
D14*
G36*
X73546642Y-84454674D02*
G01*
X73570303Y-84458184D01*
X73593507Y-84463996D01*
X73616029Y-84472054D01*
X73637653Y-84482282D01*
X73658170Y-84494579D01*
X73677383Y-84508829D01*
X73695107Y-84524893D01*
X73711171Y-84542617D01*
X73725421Y-84561830D01*
X73737718Y-84582347D01*
X73747946Y-84603971D01*
X73756004Y-84626493D01*
X73761816Y-84649697D01*
X73765326Y-84673358D01*
X73766500Y-84697250D01*
X73766500Y-85609750D01*
X73765326Y-85633642D01*
X73761816Y-85657303D01*
X73756004Y-85680507D01*
X73747946Y-85703029D01*
X73737718Y-85724653D01*
X73725421Y-85745170D01*
X73711171Y-85764383D01*
X73695107Y-85782107D01*
X73677383Y-85798171D01*
X73658170Y-85812421D01*
X73637653Y-85824718D01*
X73616029Y-85834946D01*
X73593507Y-85843004D01*
X73570303Y-85848816D01*
X73546642Y-85852326D01*
X73522750Y-85853500D01*
X73035250Y-85853500D01*
X73011358Y-85852326D01*
X72987697Y-85848816D01*
X72964493Y-85843004D01*
X72941971Y-85834946D01*
X72920347Y-85824718D01*
X72899830Y-85812421D01*
X72880617Y-85798171D01*
X72862893Y-85782107D01*
X72846829Y-85764383D01*
X72832579Y-85745170D01*
X72820282Y-85724653D01*
X72810054Y-85703029D01*
X72801996Y-85680507D01*
X72796184Y-85657303D01*
X72792674Y-85633642D01*
X72791500Y-85609750D01*
X72791500Y-84697250D01*
X72792674Y-84673358D01*
X72796184Y-84649697D01*
X72801996Y-84626493D01*
X72810054Y-84603971D01*
X72820282Y-84582347D01*
X72832579Y-84561830D01*
X72846829Y-84542617D01*
X72862893Y-84524893D01*
X72880617Y-84508829D01*
X72899830Y-84494579D01*
X72920347Y-84482282D01*
X72941971Y-84472054D01*
X72964493Y-84463996D01*
X72987697Y-84458184D01*
X73011358Y-84454674D01*
X73035250Y-84453500D01*
X73522750Y-84453500D01*
X73546642Y-84454674D01*
X73546642Y-84454674D01*
G37*
D15*
X73279000Y-85153500D03*
D14*
G36*
X69060142Y-58157674D02*
G01*
X69083803Y-58161184D01*
X69107007Y-58166996D01*
X69129529Y-58175054D01*
X69151153Y-58185282D01*
X69171670Y-58197579D01*
X69190883Y-58211829D01*
X69208607Y-58227893D01*
X69224671Y-58245617D01*
X69238921Y-58264830D01*
X69251218Y-58285347D01*
X69261446Y-58306971D01*
X69269504Y-58329493D01*
X69275316Y-58352697D01*
X69278826Y-58376358D01*
X69280000Y-58400250D01*
X69280000Y-58887750D01*
X69278826Y-58911642D01*
X69275316Y-58935303D01*
X69269504Y-58958507D01*
X69261446Y-58981029D01*
X69251218Y-59002653D01*
X69238921Y-59023170D01*
X69224671Y-59042383D01*
X69208607Y-59060107D01*
X69190883Y-59076171D01*
X69171670Y-59090421D01*
X69151153Y-59102718D01*
X69129529Y-59112946D01*
X69107007Y-59121004D01*
X69083803Y-59126816D01*
X69060142Y-59130326D01*
X69036250Y-59131500D01*
X68123750Y-59131500D01*
X68099858Y-59130326D01*
X68076197Y-59126816D01*
X68052993Y-59121004D01*
X68030471Y-59112946D01*
X68008847Y-59102718D01*
X67988330Y-59090421D01*
X67969117Y-59076171D01*
X67951393Y-59060107D01*
X67935329Y-59042383D01*
X67921079Y-59023170D01*
X67908782Y-59002653D01*
X67898554Y-58981029D01*
X67890496Y-58958507D01*
X67884684Y-58935303D01*
X67881174Y-58911642D01*
X67880000Y-58887750D01*
X67880000Y-58400250D01*
X67881174Y-58376358D01*
X67884684Y-58352697D01*
X67890496Y-58329493D01*
X67898554Y-58306971D01*
X67908782Y-58285347D01*
X67921079Y-58264830D01*
X67935329Y-58245617D01*
X67951393Y-58227893D01*
X67969117Y-58211829D01*
X67988330Y-58197579D01*
X68008847Y-58185282D01*
X68030471Y-58175054D01*
X68052993Y-58166996D01*
X68076197Y-58161184D01*
X68099858Y-58157674D01*
X68123750Y-58156500D01*
X69036250Y-58156500D01*
X69060142Y-58157674D01*
X69060142Y-58157674D01*
G37*
D15*
X68580000Y-58644000D03*
D14*
G36*
X69060142Y-56282674D02*
G01*
X69083803Y-56286184D01*
X69107007Y-56291996D01*
X69129529Y-56300054D01*
X69151153Y-56310282D01*
X69171670Y-56322579D01*
X69190883Y-56336829D01*
X69208607Y-56352893D01*
X69224671Y-56370617D01*
X69238921Y-56389830D01*
X69251218Y-56410347D01*
X69261446Y-56431971D01*
X69269504Y-56454493D01*
X69275316Y-56477697D01*
X69278826Y-56501358D01*
X69280000Y-56525250D01*
X69280000Y-57012750D01*
X69278826Y-57036642D01*
X69275316Y-57060303D01*
X69269504Y-57083507D01*
X69261446Y-57106029D01*
X69251218Y-57127653D01*
X69238921Y-57148170D01*
X69224671Y-57167383D01*
X69208607Y-57185107D01*
X69190883Y-57201171D01*
X69171670Y-57215421D01*
X69151153Y-57227718D01*
X69129529Y-57237946D01*
X69107007Y-57246004D01*
X69083803Y-57251816D01*
X69060142Y-57255326D01*
X69036250Y-57256500D01*
X68123750Y-57256500D01*
X68099858Y-57255326D01*
X68076197Y-57251816D01*
X68052993Y-57246004D01*
X68030471Y-57237946D01*
X68008847Y-57227718D01*
X67988330Y-57215421D01*
X67969117Y-57201171D01*
X67951393Y-57185107D01*
X67935329Y-57167383D01*
X67921079Y-57148170D01*
X67908782Y-57127653D01*
X67898554Y-57106029D01*
X67890496Y-57083507D01*
X67884684Y-57060303D01*
X67881174Y-57036642D01*
X67880000Y-57012750D01*
X67880000Y-56525250D01*
X67881174Y-56501358D01*
X67884684Y-56477697D01*
X67890496Y-56454493D01*
X67898554Y-56431971D01*
X67908782Y-56410347D01*
X67921079Y-56389830D01*
X67935329Y-56370617D01*
X67951393Y-56352893D01*
X67969117Y-56336829D01*
X67988330Y-56322579D01*
X68008847Y-56310282D01*
X68030471Y-56300054D01*
X68052993Y-56291996D01*
X68076197Y-56286184D01*
X68099858Y-56282674D01*
X68123750Y-56281500D01*
X69036250Y-56281500D01*
X69060142Y-56282674D01*
X69060142Y-56282674D01*
G37*
D15*
X68580000Y-56769000D03*
D14*
G36*
X77823142Y-56249174D02*
G01*
X77846803Y-56252684D01*
X77870007Y-56258496D01*
X77892529Y-56266554D01*
X77914153Y-56276782D01*
X77934670Y-56289079D01*
X77953883Y-56303329D01*
X77971607Y-56319393D01*
X77987671Y-56337117D01*
X78001921Y-56356330D01*
X78014218Y-56376847D01*
X78024446Y-56398471D01*
X78032504Y-56420993D01*
X78038316Y-56444197D01*
X78041826Y-56467858D01*
X78043000Y-56491750D01*
X78043000Y-56979250D01*
X78041826Y-57003142D01*
X78038316Y-57026803D01*
X78032504Y-57050007D01*
X78024446Y-57072529D01*
X78014218Y-57094153D01*
X78001921Y-57114670D01*
X77987671Y-57133883D01*
X77971607Y-57151607D01*
X77953883Y-57167671D01*
X77934670Y-57181921D01*
X77914153Y-57194218D01*
X77892529Y-57204446D01*
X77870007Y-57212504D01*
X77846803Y-57218316D01*
X77823142Y-57221826D01*
X77799250Y-57223000D01*
X76886750Y-57223000D01*
X76862858Y-57221826D01*
X76839197Y-57218316D01*
X76815993Y-57212504D01*
X76793471Y-57204446D01*
X76771847Y-57194218D01*
X76751330Y-57181921D01*
X76732117Y-57167671D01*
X76714393Y-57151607D01*
X76698329Y-57133883D01*
X76684079Y-57114670D01*
X76671782Y-57094153D01*
X76661554Y-57072529D01*
X76653496Y-57050007D01*
X76647684Y-57026803D01*
X76644174Y-57003142D01*
X76643000Y-56979250D01*
X76643000Y-56491750D01*
X76644174Y-56467858D01*
X76647684Y-56444197D01*
X76653496Y-56420993D01*
X76661554Y-56398471D01*
X76671782Y-56376847D01*
X76684079Y-56356330D01*
X76698329Y-56337117D01*
X76714393Y-56319393D01*
X76732117Y-56303329D01*
X76751330Y-56289079D01*
X76771847Y-56276782D01*
X76793471Y-56266554D01*
X76815993Y-56258496D01*
X76839197Y-56252684D01*
X76862858Y-56249174D01*
X76886750Y-56248000D01*
X77799250Y-56248000D01*
X77823142Y-56249174D01*
X77823142Y-56249174D01*
G37*
D15*
X77343000Y-56735500D03*
D14*
G36*
X77823142Y-58124174D02*
G01*
X77846803Y-58127684D01*
X77870007Y-58133496D01*
X77892529Y-58141554D01*
X77914153Y-58151782D01*
X77934670Y-58164079D01*
X77953883Y-58178329D01*
X77971607Y-58194393D01*
X77987671Y-58212117D01*
X78001921Y-58231330D01*
X78014218Y-58251847D01*
X78024446Y-58273471D01*
X78032504Y-58295993D01*
X78038316Y-58319197D01*
X78041826Y-58342858D01*
X78043000Y-58366750D01*
X78043000Y-58854250D01*
X78041826Y-58878142D01*
X78038316Y-58901803D01*
X78032504Y-58925007D01*
X78024446Y-58947529D01*
X78014218Y-58969153D01*
X78001921Y-58989670D01*
X77987671Y-59008883D01*
X77971607Y-59026607D01*
X77953883Y-59042671D01*
X77934670Y-59056921D01*
X77914153Y-59069218D01*
X77892529Y-59079446D01*
X77870007Y-59087504D01*
X77846803Y-59093316D01*
X77823142Y-59096826D01*
X77799250Y-59098000D01*
X76886750Y-59098000D01*
X76862858Y-59096826D01*
X76839197Y-59093316D01*
X76815993Y-59087504D01*
X76793471Y-59079446D01*
X76771847Y-59069218D01*
X76751330Y-59056921D01*
X76732117Y-59042671D01*
X76714393Y-59026607D01*
X76698329Y-59008883D01*
X76684079Y-58989670D01*
X76671782Y-58969153D01*
X76661554Y-58947529D01*
X76653496Y-58925007D01*
X76647684Y-58901803D01*
X76644174Y-58878142D01*
X76643000Y-58854250D01*
X76643000Y-58366750D01*
X76644174Y-58342858D01*
X76647684Y-58319197D01*
X76653496Y-58295993D01*
X76661554Y-58273471D01*
X76671782Y-58251847D01*
X76684079Y-58231330D01*
X76698329Y-58212117D01*
X76714393Y-58194393D01*
X76732117Y-58178329D01*
X76751330Y-58164079D01*
X76771847Y-58151782D01*
X76793471Y-58141554D01*
X76815993Y-58133496D01*
X76839197Y-58127684D01*
X76862858Y-58124174D01*
X76886750Y-58123000D01*
X77799250Y-58123000D01*
X77823142Y-58124174D01*
X77823142Y-58124174D01*
G37*
D15*
X77343000Y-58610500D03*
D14*
G36*
X80998142Y-63775674D02*
G01*
X81021803Y-63779184D01*
X81045007Y-63784996D01*
X81067529Y-63793054D01*
X81089153Y-63803282D01*
X81109670Y-63815579D01*
X81128883Y-63829829D01*
X81146607Y-63845893D01*
X81162671Y-63863617D01*
X81176921Y-63882830D01*
X81189218Y-63903347D01*
X81199446Y-63924971D01*
X81207504Y-63947493D01*
X81213316Y-63970697D01*
X81216826Y-63994358D01*
X81218000Y-64018250D01*
X81218000Y-64505750D01*
X81216826Y-64529642D01*
X81213316Y-64553303D01*
X81207504Y-64576507D01*
X81199446Y-64599029D01*
X81189218Y-64620653D01*
X81176921Y-64641170D01*
X81162671Y-64660383D01*
X81146607Y-64678107D01*
X81128883Y-64694171D01*
X81109670Y-64708421D01*
X81089153Y-64720718D01*
X81067529Y-64730946D01*
X81045007Y-64739004D01*
X81021803Y-64744816D01*
X80998142Y-64748326D01*
X80974250Y-64749500D01*
X80061750Y-64749500D01*
X80037858Y-64748326D01*
X80014197Y-64744816D01*
X79990993Y-64739004D01*
X79968471Y-64730946D01*
X79946847Y-64720718D01*
X79926330Y-64708421D01*
X79907117Y-64694171D01*
X79889393Y-64678107D01*
X79873329Y-64660383D01*
X79859079Y-64641170D01*
X79846782Y-64620653D01*
X79836554Y-64599029D01*
X79828496Y-64576507D01*
X79822684Y-64553303D01*
X79819174Y-64529642D01*
X79818000Y-64505750D01*
X79818000Y-64018250D01*
X79819174Y-63994358D01*
X79822684Y-63970697D01*
X79828496Y-63947493D01*
X79836554Y-63924971D01*
X79846782Y-63903347D01*
X79859079Y-63882830D01*
X79873329Y-63863617D01*
X79889393Y-63845893D01*
X79907117Y-63829829D01*
X79926330Y-63815579D01*
X79946847Y-63803282D01*
X79968471Y-63793054D01*
X79990993Y-63784996D01*
X80014197Y-63779184D01*
X80037858Y-63775674D01*
X80061750Y-63774500D01*
X80974250Y-63774500D01*
X80998142Y-63775674D01*
X80998142Y-63775674D01*
G37*
D15*
X80518000Y-64262000D03*
D14*
G36*
X80998142Y-65650674D02*
G01*
X81021803Y-65654184D01*
X81045007Y-65659996D01*
X81067529Y-65668054D01*
X81089153Y-65678282D01*
X81109670Y-65690579D01*
X81128883Y-65704829D01*
X81146607Y-65720893D01*
X81162671Y-65738617D01*
X81176921Y-65757830D01*
X81189218Y-65778347D01*
X81199446Y-65799971D01*
X81207504Y-65822493D01*
X81213316Y-65845697D01*
X81216826Y-65869358D01*
X81218000Y-65893250D01*
X81218000Y-66380750D01*
X81216826Y-66404642D01*
X81213316Y-66428303D01*
X81207504Y-66451507D01*
X81199446Y-66474029D01*
X81189218Y-66495653D01*
X81176921Y-66516170D01*
X81162671Y-66535383D01*
X81146607Y-66553107D01*
X81128883Y-66569171D01*
X81109670Y-66583421D01*
X81089153Y-66595718D01*
X81067529Y-66605946D01*
X81045007Y-66614004D01*
X81021803Y-66619816D01*
X80998142Y-66623326D01*
X80974250Y-66624500D01*
X80061750Y-66624500D01*
X80037858Y-66623326D01*
X80014197Y-66619816D01*
X79990993Y-66614004D01*
X79968471Y-66605946D01*
X79946847Y-66595718D01*
X79926330Y-66583421D01*
X79907117Y-66569171D01*
X79889393Y-66553107D01*
X79873329Y-66535383D01*
X79859079Y-66516170D01*
X79846782Y-66495653D01*
X79836554Y-66474029D01*
X79828496Y-66451507D01*
X79822684Y-66428303D01*
X79819174Y-66404642D01*
X79818000Y-66380750D01*
X79818000Y-65893250D01*
X79819174Y-65869358D01*
X79822684Y-65845697D01*
X79828496Y-65822493D01*
X79836554Y-65799971D01*
X79846782Y-65778347D01*
X79859079Y-65757830D01*
X79873329Y-65738617D01*
X79889393Y-65720893D01*
X79907117Y-65704829D01*
X79926330Y-65690579D01*
X79946847Y-65678282D01*
X79968471Y-65668054D01*
X79990993Y-65659996D01*
X80014197Y-65654184D01*
X80037858Y-65650674D01*
X80061750Y-65649500D01*
X80974250Y-65649500D01*
X80998142Y-65650674D01*
X80998142Y-65650674D01*
G37*
D15*
X80518000Y-66137000D03*
D14*
G36*
X64234142Y-59995674D02*
G01*
X64257803Y-59999184D01*
X64281007Y-60004996D01*
X64303529Y-60013054D01*
X64325153Y-60023282D01*
X64345670Y-60035579D01*
X64364883Y-60049829D01*
X64382607Y-60065893D01*
X64398671Y-60083617D01*
X64412921Y-60102830D01*
X64425218Y-60123347D01*
X64435446Y-60144971D01*
X64443504Y-60167493D01*
X64449316Y-60190697D01*
X64452826Y-60214358D01*
X64454000Y-60238250D01*
X64454000Y-60725750D01*
X64452826Y-60749642D01*
X64449316Y-60773303D01*
X64443504Y-60796507D01*
X64435446Y-60819029D01*
X64425218Y-60840653D01*
X64412921Y-60861170D01*
X64398671Y-60880383D01*
X64382607Y-60898107D01*
X64364883Y-60914171D01*
X64345670Y-60928421D01*
X64325153Y-60940718D01*
X64303529Y-60950946D01*
X64281007Y-60959004D01*
X64257803Y-60964816D01*
X64234142Y-60968326D01*
X64210250Y-60969500D01*
X63297750Y-60969500D01*
X63273858Y-60968326D01*
X63250197Y-60964816D01*
X63226993Y-60959004D01*
X63204471Y-60950946D01*
X63182847Y-60940718D01*
X63162330Y-60928421D01*
X63143117Y-60914171D01*
X63125393Y-60898107D01*
X63109329Y-60880383D01*
X63095079Y-60861170D01*
X63082782Y-60840653D01*
X63072554Y-60819029D01*
X63064496Y-60796507D01*
X63058684Y-60773303D01*
X63055174Y-60749642D01*
X63054000Y-60725750D01*
X63054000Y-60238250D01*
X63055174Y-60214358D01*
X63058684Y-60190697D01*
X63064496Y-60167493D01*
X63072554Y-60144971D01*
X63082782Y-60123347D01*
X63095079Y-60102830D01*
X63109329Y-60083617D01*
X63125393Y-60065893D01*
X63143117Y-60049829D01*
X63162330Y-60035579D01*
X63182847Y-60023282D01*
X63204471Y-60013054D01*
X63226993Y-60004996D01*
X63250197Y-59999184D01*
X63273858Y-59995674D01*
X63297750Y-59994500D01*
X64210250Y-59994500D01*
X64234142Y-59995674D01*
X64234142Y-59995674D01*
G37*
D15*
X63754000Y-60482000D03*
D14*
G36*
X64234142Y-61870674D02*
G01*
X64257803Y-61874184D01*
X64281007Y-61879996D01*
X64303529Y-61888054D01*
X64325153Y-61898282D01*
X64345670Y-61910579D01*
X64364883Y-61924829D01*
X64382607Y-61940893D01*
X64398671Y-61958617D01*
X64412921Y-61977830D01*
X64425218Y-61998347D01*
X64435446Y-62019971D01*
X64443504Y-62042493D01*
X64449316Y-62065697D01*
X64452826Y-62089358D01*
X64454000Y-62113250D01*
X64454000Y-62600750D01*
X64452826Y-62624642D01*
X64449316Y-62648303D01*
X64443504Y-62671507D01*
X64435446Y-62694029D01*
X64425218Y-62715653D01*
X64412921Y-62736170D01*
X64398671Y-62755383D01*
X64382607Y-62773107D01*
X64364883Y-62789171D01*
X64345670Y-62803421D01*
X64325153Y-62815718D01*
X64303529Y-62825946D01*
X64281007Y-62834004D01*
X64257803Y-62839816D01*
X64234142Y-62843326D01*
X64210250Y-62844500D01*
X63297750Y-62844500D01*
X63273858Y-62843326D01*
X63250197Y-62839816D01*
X63226993Y-62834004D01*
X63204471Y-62825946D01*
X63182847Y-62815718D01*
X63162330Y-62803421D01*
X63143117Y-62789171D01*
X63125393Y-62773107D01*
X63109329Y-62755383D01*
X63095079Y-62736170D01*
X63082782Y-62715653D01*
X63072554Y-62694029D01*
X63064496Y-62671507D01*
X63058684Y-62648303D01*
X63055174Y-62624642D01*
X63054000Y-62600750D01*
X63054000Y-62113250D01*
X63055174Y-62089358D01*
X63058684Y-62065697D01*
X63064496Y-62042493D01*
X63072554Y-62019971D01*
X63082782Y-61998347D01*
X63095079Y-61977830D01*
X63109329Y-61958617D01*
X63125393Y-61940893D01*
X63143117Y-61924829D01*
X63162330Y-61910579D01*
X63182847Y-61898282D01*
X63204471Y-61888054D01*
X63226993Y-61879996D01*
X63250197Y-61874184D01*
X63273858Y-61870674D01*
X63297750Y-61869500D01*
X64210250Y-61869500D01*
X64234142Y-61870674D01*
X64234142Y-61870674D01*
G37*
D15*
X63754000Y-62357000D03*
D23*
X65405000Y-76200000D03*
X74930000Y-85090000D03*
X67183000Y-79502000D03*
X82520000Y-66137000D03*
X62071250Y-60229750D03*
X58420000Y-62357000D03*
X56845200Y-81127600D03*
D24*
X60207310Y-79798810D02*
X62547500Y-82139000D01*
X46765500Y-84916500D02*
X45923200Y-84074200D01*
X47965500Y-84916500D02*
X46765500Y-84916500D01*
X45923200Y-84074200D02*
X45923200Y-79603600D01*
X45923200Y-79603600D02*
X46024800Y-79502000D01*
X46024800Y-79502000D02*
X51774880Y-79502000D01*
X52071690Y-79798810D02*
X60207310Y-79798810D01*
X51774880Y-79502000D02*
X52071690Y-79798810D01*
X74099146Y-64262000D02*
X73147582Y-65213564D01*
X80518000Y-64262000D02*
X74099146Y-64262000D01*
X67879637Y-77269734D02*
X68480677Y-76668694D01*
X67673286Y-77476085D02*
X67879637Y-77269734D01*
X61935885Y-77476085D02*
X67673286Y-77476085D01*
X59948600Y-75488800D02*
X61935885Y-77476085D01*
X73941000Y-56847000D02*
X74041000Y-56847000D01*
X72241000Y-58547000D02*
X73941000Y-56847000D01*
X71841000Y-58547000D02*
X72241000Y-58547000D01*
X77231500Y-56847000D02*
X77343000Y-56735500D01*
X74041000Y-56847000D02*
X77231500Y-56847000D01*
X71744000Y-58644000D02*
X71841000Y-58547000D01*
X78393010Y-59968136D02*
X74099146Y-64262000D01*
X78393010Y-57785510D02*
X78393010Y-59968136D01*
X77343000Y-56735500D02*
X78393010Y-57785510D01*
X53098500Y-60027000D02*
X54864000Y-61792500D01*
X54864000Y-61792500D02*
X54864000Y-77216000D01*
X55124085Y-77476085D02*
X61935885Y-77476085D01*
X54864000Y-77216000D02*
X55124085Y-77476085D01*
X68389500Y-82139000D02*
X71404000Y-85153500D01*
X62547500Y-82139000D02*
X68389500Y-82139000D01*
X80899000Y-86741000D02*
X80899000Y-80361000D01*
X80010000Y-87630000D02*
X80899000Y-86741000D01*
X73080500Y-87630000D02*
X80010000Y-87630000D01*
X71404000Y-85153500D02*
X71404000Y-85953500D01*
X71404000Y-85953500D02*
X73080500Y-87630000D01*
X74041000Y-55753000D02*
X74041000Y-56847000D01*
X73660000Y-55372000D02*
X74041000Y-55753000D01*
X66675000Y-55372000D02*
X73660000Y-55372000D01*
X66675000Y-58293000D02*
X66675000Y-55372000D01*
X68580000Y-58644000D02*
X67026000Y-58644000D01*
X67026000Y-58644000D02*
X66675000Y-58293000D01*
X66182580Y-68572322D02*
X66783620Y-69173362D01*
X66040000Y-68429742D02*
X66182580Y-68572322D01*
X66040000Y-63103294D02*
X66040000Y-68429742D01*
X63754000Y-60817294D02*
X66040000Y-63103294D01*
X63754000Y-60482000D02*
X63754000Y-60817294D01*
X68480677Y-76421221D02*
X68480677Y-76668694D01*
X68989785Y-75912113D02*
X68480677Y-76421221D01*
X66783620Y-69173362D02*
X68989785Y-71379527D01*
X68989785Y-71379527D02*
X68989785Y-75912113D01*
X69081717Y-76067654D02*
X68480677Y-76668694D01*
X71415171Y-76067654D02*
X69081717Y-76067654D01*
X73713267Y-78365750D02*
X71415171Y-76067654D01*
X77637710Y-73239227D02*
X78238750Y-73840267D01*
X74756483Y-70358000D02*
X77637710Y-73239227D01*
X67968258Y-70358000D02*
X74756483Y-70358000D01*
X66783620Y-69173362D02*
X67968258Y-70358000D01*
X72546542Y-65814604D02*
X73147582Y-65213564D01*
X68586744Y-69774402D02*
X72546542Y-65814604D01*
X67384660Y-69774402D02*
X68586744Y-69774402D01*
X66783620Y-69173362D02*
X67384660Y-69774402D01*
X53098500Y-58602000D02*
X53098500Y-60027000D01*
X60207310Y-79798810D02*
X46778810Y-79798810D01*
X48764304Y-64884990D02*
X53470696Y-64884990D01*
X48352990Y-69026536D02*
X48352990Y-65296304D01*
X59948600Y-74688800D02*
X59948600Y-75488800D01*
X48352990Y-65296304D02*
X48764304Y-64884990D01*
X46466536Y-70912990D02*
X48352990Y-69026536D01*
X53470696Y-64884990D02*
X59948600Y-71362894D01*
X44719464Y-70912990D02*
X46466536Y-70912990D01*
X44367990Y-71264464D02*
X44719464Y-70912990D01*
X59948600Y-71362894D02*
X59948600Y-74688800D01*
X44367990Y-77387990D02*
X44367990Y-71264464D01*
X46778810Y-79798810D02*
X44367990Y-77387990D01*
X62547500Y-79362300D02*
X62547500Y-80264000D01*
X62484000Y-79298800D02*
X62547500Y-79362300D01*
X52278800Y-79298800D02*
X62484000Y-79298800D01*
X45593000Y-71888000D02*
X45593000Y-72613000D01*
X45593000Y-72613000D02*
X52278800Y-79298800D01*
X70177733Y-78365750D02*
X69041483Y-79502000D01*
X69041483Y-79502000D02*
X67183000Y-79502000D01*
X67183000Y-79502000D02*
X67183000Y-79502000D01*
X74866500Y-85153500D02*
X74930000Y-85090000D01*
X73279000Y-85153500D02*
X74866500Y-85153500D01*
X80518000Y-66137000D02*
X82520000Y-66137000D01*
X82520000Y-66137000D02*
X82520000Y-66137000D01*
X60452000Y-60482000D02*
X61088750Y-61118750D01*
X62515750Y-61118750D02*
X63754000Y-62357000D01*
X63754000Y-67275113D02*
X66217935Y-69739048D01*
X63754000Y-62357000D02*
X63754000Y-67275113D01*
X79961763Y-65580763D02*
X80518000Y-66137000D01*
X79559210Y-65178210D02*
X79961763Y-65580763D01*
X74314307Y-65178210D02*
X79559210Y-65178210D01*
X73713267Y-65779250D02*
X74314307Y-65178210D01*
X62071250Y-61118750D02*
X62071250Y-60229750D01*
X62071250Y-61118750D02*
X62515750Y-61118750D01*
X61088750Y-61118750D02*
X62071250Y-61118750D01*
X62071250Y-60229750D02*
X62071250Y-60229750D01*
X66686629Y-76200000D02*
X65405000Y-76200000D01*
X67349306Y-75537323D02*
X66686629Y-76200000D01*
X66421000Y-80264000D02*
X67183000Y-79502000D01*
X62547500Y-80264000D02*
X66421000Y-80264000D01*
X74930000Y-80645000D02*
X74930000Y-85090000D01*
X73147582Y-78931436D02*
X73216436Y-78931436D01*
X73216436Y-78931436D02*
X74930000Y-80645000D01*
X79405476Y-76169524D02*
X74930000Y-80645000D01*
X79405476Y-73875622D02*
X79405476Y-76169524D01*
X78804436Y-73274582D02*
X79405476Y-73875622D01*
D25*
X77279500Y-58547000D02*
X77343000Y-58610500D01*
X74041000Y-58547000D02*
X77279500Y-58547000D01*
X67313951Y-67440951D02*
X67914991Y-68041991D01*
X67183000Y-67310000D02*
X67313951Y-67440951D01*
X67183000Y-65305000D02*
X67183000Y-67310000D01*
X73941000Y-58547000D02*
X67183000Y-65305000D01*
X74041000Y-58547000D02*
X73941000Y-58547000D01*
X71763000Y-56769000D02*
X71841000Y-56847000D01*
X68580000Y-56769000D02*
X71763000Y-56769000D01*
X67349306Y-68607677D02*
X67249983Y-68707000D01*
X66748266Y-68006637D02*
X67349306Y-68607677D01*
X66732990Y-67991361D02*
X66748266Y-68006637D01*
X66732990Y-65118600D02*
X66732990Y-67991361D01*
X69605010Y-62246580D02*
X66732990Y-65118600D01*
X69605010Y-58164660D02*
X69605010Y-62246580D01*
X68580000Y-57139650D02*
X69605010Y-58164660D01*
X68580000Y-56769000D02*
X68580000Y-57139650D01*
X67313951Y-76704049D02*
X67914991Y-76103009D01*
X67024250Y-76993750D02*
X67313951Y-76704049D01*
X63328550Y-76993750D02*
X67024250Y-76993750D01*
X61823600Y-75488800D02*
X63328550Y-76993750D01*
D26*
X96742500Y-56832500D02*
X96162500Y-57412500D01*
D25*
X96782500Y-57412500D02*
X96162500Y-57412500D01*
X99570000Y-60200000D02*
X96782500Y-57412500D01*
X101600000Y-60200000D02*
X99570000Y-60200000D01*
X120650000Y-64198000D02*
X120205000Y-64643000D01*
X120650000Y-63498000D02*
X120650000Y-64198000D01*
X120205000Y-64643000D02*
X103632000Y-64643000D01*
X102489000Y-63500000D02*
X101600000Y-63500000D01*
X103632000Y-64643000D02*
X102489000Y-63500000D01*
D26*
X96742500Y-75882500D02*
X96162500Y-76462500D01*
D25*
X99570000Y-79250000D02*
X96202500Y-75882500D01*
X101600000Y-79250000D02*
X99570000Y-79250000D01*
X101750000Y-82550000D02*
X101600000Y-82550000D01*
X103020000Y-83820000D02*
X101750000Y-82550000D01*
X120078000Y-83820000D02*
X103020000Y-83820000D01*
X120650000Y-83248000D02*
X120078000Y-83820000D01*
X120650000Y-82548000D02*
X120650000Y-83248000D01*
X101600000Y-83250000D02*
X101284000Y-83566000D01*
X101600000Y-82550000D02*
X101600000Y-83250000D01*
X101284000Y-83566000D02*
X87630000Y-83566000D01*
X87630000Y-83566000D02*
X84328000Y-80264000D01*
X77708420Y-68572322D02*
X77107380Y-69173362D01*
X78026633Y-68572322D02*
X77708420Y-68572322D01*
X84328000Y-80264000D02*
X84328000Y-74873689D01*
X84328000Y-74873689D02*
X78026633Y-68572322D01*
D26*
X115792500Y-56832500D02*
X115212500Y-57412500D01*
D25*
X118618000Y-60198000D02*
X115252500Y-56832500D01*
X120650000Y-60198000D02*
X118618000Y-60198000D01*
D26*
X115792500Y-75882500D02*
X115212500Y-76462500D01*
D25*
X115832500Y-76462500D02*
X115212500Y-76462500D01*
X118618000Y-79248000D02*
X115832500Y-76462500D01*
X120650000Y-79248000D02*
X118618000Y-79248000D01*
D24*
X49898500Y-59477000D02*
X49898500Y-58602000D01*
X45593000Y-69088000D02*
X45593000Y-63782500D01*
X45593000Y-63782500D02*
X49898500Y-59477000D01*
D25*
X77142734Y-68006637D02*
X76541694Y-68607677D01*
X79436637Y-68006637D02*
X77142734Y-68006637D01*
X89852500Y-78422500D02*
X79436637Y-68006637D01*
X103480000Y-73000000D02*
X108902500Y-78422500D01*
X96509298Y-73000000D02*
X103480000Y-73000000D01*
X90950249Y-67440951D02*
X96509298Y-73000000D01*
X76577049Y-67440951D02*
X90950249Y-67440951D01*
X75976009Y-68041991D02*
X76577049Y-67440951D01*
X50698500Y-62615500D02*
X49403000Y-63911000D01*
X50698500Y-58602000D02*
X50698500Y-62615500D01*
X49403000Y-65786000D02*
X53390800Y-69773800D01*
X53390800Y-69773800D02*
X53390800Y-77724000D01*
X69011008Y-78401105D02*
X69612048Y-77800065D01*
X54067905Y-78401105D02*
X69011008Y-78401105D01*
X53390800Y-77724000D02*
X54067905Y-78401105D01*
X51498500Y-62577500D02*
X52768500Y-63847500D01*
X51498500Y-58602000D02*
X51498500Y-62577500D01*
X51866800Y-66624200D02*
X51866800Y-67613390D01*
X52768500Y-65722500D02*
X51866800Y-66624200D01*
X51866800Y-67613390D02*
X53840810Y-69587400D01*
X68329647Y-77951095D02*
X69046362Y-77234380D01*
X53840810Y-69587400D02*
X53840810Y-77537600D01*
X53840810Y-77537600D02*
X54254305Y-77951095D01*
X54254305Y-77951095D02*
X68329647Y-77951095D01*
X56756300Y-81216500D02*
X56845200Y-81127600D01*
X54165500Y-81216500D02*
X56756300Y-81216500D01*
X60452000Y-62357000D02*
X58420000Y-62357000D01*
X60452000Y-65104483D02*
X65652250Y-70304733D01*
X60452000Y-62357000D02*
X60452000Y-65104483D01*
X79069600Y-71135582D02*
X78804436Y-70870418D01*
X80899000Y-72964982D02*
X78804436Y-70870418D01*
X80899000Y-78486000D02*
X80899000Y-72964982D01*
X49012000Y-53848000D02*
X55212000Y-53848000D01*
X47912000Y-53848000D02*
X49012000Y-53848000D01*
X47912000Y-53848000D02*
X47912000Y-58348000D01*
X55212000Y-57848000D02*
X55212000Y-58348000D01*
X54112000Y-56748000D02*
X55212000Y-57848000D01*
X49012000Y-56748000D02*
X54112000Y-56748000D01*
X47912000Y-57848000D02*
X49012000Y-56748000D01*
X47912000Y-58348000D02*
X47912000Y-57848000D01*
X55212000Y-55448000D02*
X55212000Y-58348000D01*
X55212000Y-53848000D02*
X55212000Y-55448000D01*
D27*
G36*
X46533401Y-52776966D02*
G01*
X46448487Y-53056889D01*
X46427000Y-53275050D01*
X46427000Y-54420949D01*
X46448487Y-54639110D01*
X46533401Y-54919033D01*
X46671294Y-55177013D01*
X46856866Y-55403134D01*
X47082986Y-55588706D01*
X47152000Y-55625595D01*
X47152001Y-56570406D01*
X47082987Y-56607294D01*
X46856867Y-56792866D01*
X46671294Y-57018986D01*
X46533401Y-57276966D01*
X46448487Y-57556889D01*
X46427000Y-57775050D01*
X46427000Y-58920949D01*
X46448487Y-59139110D01*
X46533401Y-59419033D01*
X46671294Y-59677013D01*
X46856866Y-59903134D01*
X47082986Y-60088706D01*
X47340966Y-60226599D01*
X47620889Y-60311513D01*
X47912000Y-60340185D01*
X47926595Y-60338748D01*
X45065185Y-63200158D01*
X45035237Y-63224736D01*
X45010659Y-63254684D01*
X45010655Y-63254688D01*
X44977690Y-63294856D01*
X44937139Y-63344267D01*
X44907351Y-63399998D01*
X44864246Y-63480641D01*
X44819359Y-63628614D01*
X44804203Y-63782500D01*
X44808001Y-63821063D01*
X44808000Y-67840687D01*
X44794746Y-67841992D01*
X44628150Y-67892528D01*
X44474614Y-67974595D01*
X44340038Y-68085038D01*
X44229595Y-68219614D01*
X44147528Y-68373150D01*
X44096992Y-68539746D01*
X44079928Y-68713000D01*
X44079928Y-69463000D01*
X44096992Y-69636254D01*
X44147528Y-69802850D01*
X44229595Y-69956386D01*
X44340038Y-70090962D01*
X44474614Y-70201405D01*
X44628150Y-70283472D01*
X44794746Y-70334008D01*
X44968000Y-70351072D01*
X46218000Y-70351072D01*
X46391254Y-70334008D01*
X46557850Y-70283472D01*
X46711386Y-70201405D01*
X46845962Y-70090962D01*
X46956405Y-69956386D01*
X47038472Y-69802850D01*
X47089008Y-69636254D01*
X47106072Y-69463000D01*
X47106072Y-68713000D01*
X47089008Y-68539746D01*
X47038472Y-68373150D01*
X46956405Y-68219614D01*
X46845962Y-68085038D01*
X46711386Y-67974595D01*
X46557850Y-67892528D01*
X46391254Y-67841992D01*
X46378000Y-67840687D01*
X46378000Y-64107657D01*
X49938500Y-60547157D01*
X49938501Y-62300697D01*
X49453771Y-62785428D01*
X48946750Y-62785428D01*
X48774715Y-62802372D01*
X48609291Y-62852553D01*
X48456836Y-62934042D01*
X48323208Y-63043708D01*
X48213542Y-63177336D01*
X48132053Y-63329791D01*
X48081872Y-63495215D01*
X48064928Y-63667250D01*
X48064928Y-64154750D01*
X48081872Y-64326785D01*
X48132053Y-64492209D01*
X48213542Y-64644664D01*
X48323208Y-64778292D01*
X48408756Y-64848500D01*
X48323208Y-64918708D01*
X48213542Y-65052336D01*
X48132053Y-65204791D01*
X48081872Y-65370215D01*
X48064928Y-65542250D01*
X48064928Y-66029750D01*
X48081872Y-66201785D01*
X48132053Y-66367209D01*
X48213542Y-66519664D01*
X48323208Y-66653292D01*
X48456836Y-66762958D01*
X48609291Y-66844447D01*
X48774715Y-66894628D01*
X48946750Y-66911572D01*
X49453771Y-66911572D01*
X52630800Y-70088602D01*
X52630801Y-77686668D01*
X52627124Y-77724000D01*
X52641798Y-77872985D01*
X52685254Y-78016246D01*
X52755826Y-78148276D01*
X52827001Y-78235002D01*
X52850800Y-78264001D01*
X52879798Y-78287799D01*
X53105799Y-78513800D01*
X52603958Y-78513800D01*
X46906884Y-72816727D01*
X46956405Y-72756386D01*
X47038472Y-72602850D01*
X47089008Y-72436254D01*
X47106072Y-72263000D01*
X47106072Y-71513000D01*
X47089008Y-71339746D01*
X47038472Y-71173150D01*
X46956405Y-71019614D01*
X46845962Y-70885038D01*
X46711386Y-70774595D01*
X46557850Y-70692528D01*
X46391254Y-70641992D01*
X46218000Y-70624928D01*
X44968000Y-70624928D01*
X44794746Y-70641992D01*
X44628150Y-70692528D01*
X44474614Y-70774595D01*
X44340038Y-70885038D01*
X44229595Y-71019614D01*
X44147528Y-71173150D01*
X44096992Y-71339746D01*
X44079928Y-71513000D01*
X44079928Y-72263000D01*
X44096992Y-72436254D01*
X44147528Y-72602850D01*
X44229595Y-72756386D01*
X44340038Y-72890962D01*
X44474614Y-73001405D01*
X44628150Y-73083472D01*
X44794746Y-73134008D01*
X44968000Y-73151072D01*
X45019076Y-73151072D01*
X45035237Y-73170764D01*
X45065185Y-73195342D01*
X51696458Y-79826616D01*
X51721036Y-79856564D01*
X51750984Y-79881142D01*
X51750987Y-79881145D01*
X51780359Y-79905250D01*
X51840567Y-79954662D01*
X51976940Y-80027554D01*
X52124913Y-80072441D01*
X52240239Y-80083800D01*
X52240246Y-80083800D01*
X52278799Y-80087597D01*
X52317352Y-80083800D01*
X53008595Y-80083800D01*
X52911006Y-80135963D01*
X52814315Y-80215315D01*
X52734963Y-80312006D01*
X52675998Y-80422320D01*
X52639688Y-80542018D01*
X52627428Y-80666500D01*
X52627428Y-81766500D01*
X52639688Y-81890982D01*
X52675998Y-82010680D01*
X52734963Y-82120994D01*
X52814315Y-82217685D01*
X52911006Y-82297037D01*
X53021320Y-82356002D01*
X53141018Y-82392312D01*
X53265500Y-82404572D01*
X55065500Y-82404572D01*
X55189982Y-82392312D01*
X55309680Y-82356002D01*
X55419994Y-82297037D01*
X55516685Y-82217685D01*
X55596037Y-82120994D01*
X55655002Y-82010680D01*
X55665370Y-81976500D01*
X56252718Y-81976500D01*
X56354944Y-82044805D01*
X56543302Y-82122826D01*
X56743261Y-82162600D01*
X56947139Y-82162600D01*
X57147098Y-82122826D01*
X57335456Y-82044805D01*
X57504974Y-81931537D01*
X57649137Y-81787374D01*
X57762405Y-81617856D01*
X57840426Y-81429498D01*
X57880200Y-81229539D01*
X57880200Y-81025661D01*
X57840426Y-80825702D01*
X57762405Y-80637344D01*
X57649137Y-80467826D01*
X57504974Y-80323663D01*
X57335456Y-80210395D01*
X57147098Y-80132374D01*
X56947139Y-80092600D01*
X56743261Y-80092600D01*
X56543302Y-80132374D01*
X56354944Y-80210395D01*
X56185426Y-80323663D01*
X56052589Y-80456500D01*
X55665370Y-80456500D01*
X55655002Y-80422320D01*
X55596037Y-80312006D01*
X55516685Y-80215315D01*
X55419994Y-80135963D01*
X55322405Y-80083800D01*
X61209428Y-80083800D01*
X61209428Y-80507750D01*
X61226372Y-80679785D01*
X61276553Y-80845209D01*
X61358042Y-80997664D01*
X61467708Y-81131292D01*
X61474064Y-81136508D01*
X61396315Y-81200315D01*
X61316963Y-81297006D01*
X61257998Y-81407320D01*
X61221688Y-81527018D01*
X61209428Y-81651500D01*
X61212500Y-81853250D01*
X61371250Y-82012000D01*
X62420500Y-82012000D01*
X62420500Y-81992000D01*
X62674500Y-81992000D01*
X62674500Y-82012000D01*
X63723750Y-82012000D01*
X63882500Y-81853250D01*
X63885572Y-81651500D01*
X63873312Y-81527018D01*
X63837002Y-81407320D01*
X63778037Y-81297006D01*
X63698685Y-81200315D01*
X63620936Y-81136508D01*
X63627292Y-81131292D01*
X63694828Y-81049000D01*
X66382447Y-81049000D01*
X66421000Y-81052797D01*
X66459553Y-81049000D01*
X66459561Y-81049000D01*
X66574887Y-81037641D01*
X66722860Y-80992754D01*
X66859233Y-80919862D01*
X66978764Y-80821764D01*
X67003347Y-80791810D01*
X67258157Y-80537000D01*
X67284939Y-80537000D01*
X67484898Y-80497226D01*
X67673256Y-80419205D01*
X67842774Y-80305937D01*
X67861711Y-80287000D01*
X69002930Y-80287000D01*
X69041483Y-80290797D01*
X69080036Y-80287000D01*
X69080044Y-80287000D01*
X69195370Y-80275641D01*
X69343343Y-80230754D01*
X69479716Y-80157862D01*
X69599247Y-80059764D01*
X69623830Y-80029810D01*
X69751296Y-79902344D01*
X69956357Y-80107405D01*
X70053048Y-80186757D01*
X70163362Y-80245722D01*
X70283060Y-80282032D01*
X70407542Y-80294292D01*
X70532024Y-80282032D01*
X70651722Y-80245722D01*
X70762036Y-80186757D01*
X70858727Y-80107405D01*
X71919387Y-79046745D01*
X71945500Y-79014926D01*
X71971613Y-79046745D01*
X73032273Y-80107405D01*
X73128964Y-80186757D01*
X73239278Y-80245722D01*
X73358976Y-80282032D01*
X73467570Y-80292727D01*
X74145000Y-80970158D01*
X74145001Y-84072648D01*
X74012664Y-83964042D01*
X73860209Y-83882553D01*
X73694785Y-83832372D01*
X73522750Y-83815428D01*
X73035250Y-83815428D01*
X72863215Y-83832372D01*
X72697791Y-83882553D01*
X72545336Y-83964042D01*
X72411708Y-84073708D01*
X72406492Y-84080064D01*
X72342685Y-84002315D01*
X72245994Y-83922963D01*
X72135680Y-83863998D01*
X72015982Y-83827688D01*
X71891500Y-83815428D01*
X71689750Y-83818500D01*
X71531000Y-83977250D01*
X71531000Y-85026500D01*
X71551000Y-85026500D01*
X71551000Y-85280500D01*
X71531000Y-85280500D01*
X71531000Y-86329750D01*
X71689750Y-86488500D01*
X71891500Y-86491572D01*
X72015982Y-86479312D01*
X72135680Y-86443002D01*
X72245994Y-86384037D01*
X72342685Y-86304685D01*
X72406492Y-86226936D01*
X72411708Y-86233292D01*
X72545336Y-86342958D01*
X72697791Y-86424447D01*
X72863215Y-86474628D01*
X73035250Y-86491572D01*
X73522750Y-86491572D01*
X73694785Y-86474628D01*
X73860209Y-86424447D01*
X74012664Y-86342958D01*
X74146292Y-86233292D01*
X74255958Y-86099664D01*
X74337447Y-85947209D01*
X74339555Y-85940261D01*
X74439744Y-86007205D01*
X74628102Y-86085226D01*
X74828061Y-86125000D01*
X75031939Y-86125000D01*
X75231898Y-86085226D01*
X75420256Y-86007205D01*
X75589774Y-85893937D01*
X75733937Y-85749774D01*
X75847205Y-85580256D01*
X75925226Y-85391898D01*
X75965000Y-85191939D01*
X75965000Y-84988061D01*
X75925226Y-84788102D01*
X75847205Y-84599744D01*
X75733937Y-84430226D01*
X75715000Y-84411289D01*
X75715000Y-80970157D01*
X75836657Y-80848500D01*
X79560928Y-80848500D01*
X79573188Y-80972982D01*
X79609498Y-81092680D01*
X79668463Y-81202994D01*
X79747815Y-81299685D01*
X79844506Y-81379037D01*
X79954820Y-81438002D01*
X80074518Y-81474312D01*
X80199000Y-81486572D01*
X80613250Y-81483500D01*
X80772000Y-81324750D01*
X80772000Y-80488000D01*
X81026000Y-80488000D01*
X81026000Y-81324750D01*
X81184750Y-81483500D01*
X81599000Y-81486572D01*
X81723482Y-81474312D01*
X81843180Y-81438002D01*
X81953494Y-81379037D01*
X82050185Y-81299685D01*
X82129537Y-81202994D01*
X82188502Y-81092680D01*
X82224812Y-80972982D01*
X82237072Y-80848500D01*
X82234000Y-80646750D01*
X82075250Y-80488000D01*
X81026000Y-80488000D01*
X80772000Y-80488000D01*
X79722750Y-80488000D01*
X79564000Y-80646750D01*
X79560928Y-80848500D01*
X75836657Y-80848500D01*
X79933286Y-76751871D01*
X79963240Y-76727288D01*
X80061338Y-76607757D01*
X80134230Y-76471384D01*
X80139000Y-76455658D01*
X80139000Y-77417327D01*
X80105291Y-77427553D01*
X79952836Y-77509042D01*
X79819208Y-77618708D01*
X79709542Y-77752336D01*
X79628053Y-77904791D01*
X79577872Y-78070215D01*
X79560928Y-78242250D01*
X79560928Y-78729750D01*
X79577872Y-78901785D01*
X79628053Y-79067209D01*
X79709542Y-79219664D01*
X79819208Y-79353292D01*
X79825564Y-79358508D01*
X79747815Y-79422315D01*
X79668463Y-79519006D01*
X79609498Y-79629320D01*
X79573188Y-79749018D01*
X79560928Y-79873500D01*
X79564000Y-80075250D01*
X79722750Y-80234000D01*
X80772000Y-80234000D01*
X80772000Y-80214000D01*
X81026000Y-80214000D01*
X81026000Y-80234000D01*
X82075250Y-80234000D01*
X82234000Y-80075250D01*
X82237072Y-79873500D01*
X82224812Y-79749018D01*
X82188502Y-79629320D01*
X82129537Y-79519006D01*
X82050185Y-79422315D01*
X81972436Y-79358508D01*
X81978792Y-79353292D01*
X82088458Y-79219664D01*
X82169947Y-79067209D01*
X82220128Y-78901785D01*
X82237072Y-78729750D01*
X82237072Y-78242250D01*
X82220128Y-78070215D01*
X82169947Y-77904791D01*
X82088458Y-77752336D01*
X81978792Y-77618708D01*
X81845164Y-77509042D01*
X81692709Y-77427553D01*
X81659000Y-77417327D01*
X81659000Y-73279491D01*
X83568001Y-75188492D01*
X83568000Y-80226677D01*
X83564324Y-80264000D01*
X83568000Y-80301322D01*
X83568000Y-80301332D01*
X83578997Y-80412985D01*
X83604551Y-80497226D01*
X83622454Y-80556246D01*
X83693026Y-80688276D01*
X83705376Y-80703324D01*
X83761823Y-80772105D01*
X83697256Y-90780000D01*
X41300000Y-90780000D01*
X41300000Y-85466500D01*
X46427428Y-85466500D01*
X46439688Y-85590982D01*
X46475998Y-85710680D01*
X46534963Y-85820994D01*
X46614315Y-85917685D01*
X46711006Y-85997037D01*
X46821320Y-86056002D01*
X46941018Y-86092312D01*
X47065500Y-86104572D01*
X47679750Y-86101500D01*
X47838500Y-85942750D01*
X47838500Y-85043500D01*
X48092500Y-85043500D01*
X48092500Y-85942750D01*
X48251250Y-86101500D01*
X48865500Y-86104572D01*
X48989982Y-86092312D01*
X49109680Y-86056002D01*
X49219994Y-85997037D01*
X49316685Y-85917685D01*
X49396037Y-85820994D01*
X49455002Y-85710680D01*
X49491312Y-85590982D01*
X49503572Y-85466500D01*
X49500500Y-85202250D01*
X49341750Y-85043500D01*
X48092500Y-85043500D01*
X47838500Y-85043500D01*
X46589250Y-85043500D01*
X46430500Y-85202250D01*
X46427428Y-85466500D01*
X41300000Y-85466500D01*
X41300000Y-84366500D01*
X46427428Y-84366500D01*
X46430500Y-84630750D01*
X46589250Y-84789500D01*
X47838500Y-84789500D01*
X47838500Y-83890250D01*
X48092500Y-83890250D01*
X48092500Y-84789500D01*
X49341750Y-84789500D01*
X49500500Y-84630750D01*
X49503572Y-84366500D01*
X52627428Y-84366500D01*
X52627428Y-85466500D01*
X52639688Y-85590982D01*
X52675998Y-85710680D01*
X52734963Y-85820994D01*
X52814315Y-85917685D01*
X52911006Y-85997037D01*
X53021320Y-86056002D01*
X53141018Y-86092312D01*
X53265500Y-86104572D01*
X55065500Y-86104572D01*
X55189982Y-86092312D01*
X55309680Y-86056002D01*
X55419994Y-85997037D01*
X55516685Y-85917685D01*
X55569360Y-85853500D01*
X70278428Y-85853500D01*
X70290688Y-85977982D01*
X70326998Y-86097680D01*
X70385963Y-86207994D01*
X70465315Y-86304685D01*
X70562006Y-86384037D01*
X70672320Y-86443002D01*
X70792018Y-86479312D01*
X70916500Y-86491572D01*
X71118250Y-86488500D01*
X71277000Y-86329750D01*
X71277000Y-85280500D01*
X70440250Y-85280500D01*
X70281500Y-85439250D01*
X70278428Y-85853500D01*
X55569360Y-85853500D01*
X55596037Y-85820994D01*
X55655002Y-85710680D01*
X55691312Y-85590982D01*
X55703572Y-85466500D01*
X55703572Y-84453500D01*
X70278428Y-84453500D01*
X70281500Y-84867750D01*
X70440250Y-85026500D01*
X71277000Y-85026500D01*
X71277000Y-83977250D01*
X71118250Y-83818500D01*
X70916500Y-83815428D01*
X70792018Y-83827688D01*
X70672320Y-83863998D01*
X70562006Y-83922963D01*
X70465315Y-84002315D01*
X70385963Y-84099006D01*
X70326998Y-84209320D01*
X70290688Y-84329018D01*
X70278428Y-84453500D01*
X55703572Y-84453500D01*
X55703572Y-84366500D01*
X55691312Y-84242018D01*
X55655002Y-84122320D01*
X55596037Y-84012006D01*
X55516685Y-83915315D01*
X55419994Y-83835963D01*
X55309680Y-83776998D01*
X55189982Y-83740688D01*
X55065500Y-83728428D01*
X53265500Y-83728428D01*
X53141018Y-83740688D01*
X53021320Y-83776998D01*
X52911006Y-83835963D01*
X52814315Y-83915315D01*
X52734963Y-84012006D01*
X52675998Y-84122320D01*
X52639688Y-84242018D01*
X52627428Y-84366500D01*
X49503572Y-84366500D01*
X49491312Y-84242018D01*
X49455002Y-84122320D01*
X49396037Y-84012006D01*
X49316685Y-83915315D01*
X49219994Y-83835963D01*
X49109680Y-83776998D01*
X48989982Y-83740688D01*
X48865500Y-83728428D01*
X48251250Y-83731500D01*
X48092500Y-83890250D01*
X47838500Y-83890250D01*
X47679750Y-83731500D01*
X47065500Y-83728428D01*
X46941018Y-83740688D01*
X46821320Y-83776998D01*
X46711006Y-83835963D01*
X46614315Y-83915315D01*
X46534963Y-84012006D01*
X46475998Y-84122320D01*
X46439688Y-84242018D01*
X46427428Y-84366500D01*
X41300000Y-84366500D01*
X41300000Y-82626500D01*
X61209428Y-82626500D01*
X61221688Y-82750982D01*
X61257998Y-82870680D01*
X61316963Y-82980994D01*
X61396315Y-83077685D01*
X61493006Y-83157037D01*
X61603320Y-83216002D01*
X61723018Y-83252312D01*
X61847500Y-83264572D01*
X62261750Y-83261500D01*
X62420500Y-83102750D01*
X62420500Y-82266000D01*
X62674500Y-82266000D01*
X62674500Y-83102750D01*
X62833250Y-83261500D01*
X63247500Y-83264572D01*
X63371982Y-83252312D01*
X63491680Y-83216002D01*
X63601994Y-83157037D01*
X63698685Y-83077685D01*
X63778037Y-82980994D01*
X63837002Y-82870680D01*
X63873312Y-82750982D01*
X63885572Y-82626500D01*
X63882500Y-82424750D01*
X63723750Y-82266000D01*
X62674500Y-82266000D01*
X62420500Y-82266000D01*
X61371250Y-82266000D01*
X61212500Y-82424750D01*
X61209428Y-82626500D01*
X41300000Y-82626500D01*
X41300000Y-80666500D01*
X46427428Y-80666500D01*
X46427428Y-81766500D01*
X46439688Y-81890982D01*
X46475998Y-82010680D01*
X46534963Y-82120994D01*
X46614315Y-82217685D01*
X46711006Y-82297037D01*
X46821320Y-82356002D01*
X46941018Y-82392312D01*
X47065500Y-82404572D01*
X48865500Y-82404572D01*
X48989982Y-82392312D01*
X49109680Y-82356002D01*
X49219994Y-82297037D01*
X49316685Y-82217685D01*
X49396037Y-82120994D01*
X49455002Y-82010680D01*
X49491312Y-81890982D01*
X49503572Y-81766500D01*
X49503572Y-80666500D01*
X49491312Y-80542018D01*
X49455002Y-80422320D01*
X49396037Y-80312006D01*
X49316685Y-80215315D01*
X49219994Y-80135963D01*
X49109680Y-80076998D01*
X48989982Y-80040688D01*
X48865500Y-80028428D01*
X47065500Y-80028428D01*
X46941018Y-80040688D01*
X46821320Y-80076998D01*
X46711006Y-80135963D01*
X46614315Y-80215315D01*
X46534963Y-80312006D01*
X46475998Y-80422320D01*
X46439688Y-80542018D01*
X46427428Y-80666500D01*
X41300000Y-80666500D01*
X41300000Y-52730000D01*
X46558505Y-52730000D01*
X46533401Y-52776966D01*
X46533401Y-52776966D01*
G37*
X46533401Y-52776966D02*
X46448487Y-53056889D01*
X46427000Y-53275050D01*
X46427000Y-54420949D01*
X46448487Y-54639110D01*
X46533401Y-54919033D01*
X46671294Y-55177013D01*
X46856866Y-55403134D01*
X47082986Y-55588706D01*
X47152000Y-55625595D01*
X47152001Y-56570406D01*
X47082987Y-56607294D01*
X46856867Y-56792866D01*
X46671294Y-57018986D01*
X46533401Y-57276966D01*
X46448487Y-57556889D01*
X46427000Y-57775050D01*
X46427000Y-58920949D01*
X46448487Y-59139110D01*
X46533401Y-59419033D01*
X46671294Y-59677013D01*
X46856866Y-59903134D01*
X47082986Y-60088706D01*
X47340966Y-60226599D01*
X47620889Y-60311513D01*
X47912000Y-60340185D01*
X47926595Y-60338748D01*
X45065185Y-63200158D01*
X45035237Y-63224736D01*
X45010659Y-63254684D01*
X45010655Y-63254688D01*
X44977690Y-63294856D01*
X44937139Y-63344267D01*
X44907351Y-63399998D01*
X44864246Y-63480641D01*
X44819359Y-63628614D01*
X44804203Y-63782500D01*
X44808001Y-63821063D01*
X44808000Y-67840687D01*
X44794746Y-67841992D01*
X44628150Y-67892528D01*
X44474614Y-67974595D01*
X44340038Y-68085038D01*
X44229595Y-68219614D01*
X44147528Y-68373150D01*
X44096992Y-68539746D01*
X44079928Y-68713000D01*
X44079928Y-69463000D01*
X44096992Y-69636254D01*
X44147528Y-69802850D01*
X44229595Y-69956386D01*
X44340038Y-70090962D01*
X44474614Y-70201405D01*
X44628150Y-70283472D01*
X44794746Y-70334008D01*
X44968000Y-70351072D01*
X46218000Y-70351072D01*
X46391254Y-70334008D01*
X46557850Y-70283472D01*
X46711386Y-70201405D01*
X46845962Y-70090962D01*
X46956405Y-69956386D01*
X47038472Y-69802850D01*
X47089008Y-69636254D01*
X47106072Y-69463000D01*
X47106072Y-68713000D01*
X47089008Y-68539746D01*
X47038472Y-68373150D01*
X46956405Y-68219614D01*
X46845962Y-68085038D01*
X46711386Y-67974595D01*
X46557850Y-67892528D01*
X46391254Y-67841992D01*
X46378000Y-67840687D01*
X46378000Y-64107657D01*
X49938500Y-60547157D01*
X49938501Y-62300697D01*
X49453771Y-62785428D01*
X48946750Y-62785428D01*
X48774715Y-62802372D01*
X48609291Y-62852553D01*
X48456836Y-62934042D01*
X48323208Y-63043708D01*
X48213542Y-63177336D01*
X48132053Y-63329791D01*
X48081872Y-63495215D01*
X48064928Y-63667250D01*
X48064928Y-64154750D01*
X48081872Y-64326785D01*
X48132053Y-64492209D01*
X48213542Y-64644664D01*
X48323208Y-64778292D01*
X48408756Y-64848500D01*
X48323208Y-64918708D01*
X48213542Y-65052336D01*
X48132053Y-65204791D01*
X48081872Y-65370215D01*
X48064928Y-65542250D01*
X48064928Y-66029750D01*
X48081872Y-66201785D01*
X48132053Y-66367209D01*
X48213542Y-66519664D01*
X48323208Y-66653292D01*
X48456836Y-66762958D01*
X48609291Y-66844447D01*
X48774715Y-66894628D01*
X48946750Y-66911572D01*
X49453771Y-66911572D01*
X52630800Y-70088602D01*
X52630801Y-77686668D01*
X52627124Y-77724000D01*
X52641798Y-77872985D01*
X52685254Y-78016246D01*
X52755826Y-78148276D01*
X52827001Y-78235002D01*
X52850800Y-78264001D01*
X52879798Y-78287799D01*
X53105799Y-78513800D01*
X52603958Y-78513800D01*
X46906884Y-72816727D01*
X46956405Y-72756386D01*
X47038472Y-72602850D01*
X47089008Y-72436254D01*
X47106072Y-72263000D01*
X47106072Y-71513000D01*
X47089008Y-71339746D01*
X47038472Y-71173150D01*
X46956405Y-71019614D01*
X46845962Y-70885038D01*
X46711386Y-70774595D01*
X46557850Y-70692528D01*
X46391254Y-70641992D01*
X46218000Y-70624928D01*
X44968000Y-70624928D01*
X44794746Y-70641992D01*
X44628150Y-70692528D01*
X44474614Y-70774595D01*
X44340038Y-70885038D01*
X44229595Y-71019614D01*
X44147528Y-71173150D01*
X44096992Y-71339746D01*
X44079928Y-71513000D01*
X44079928Y-72263000D01*
X44096992Y-72436254D01*
X44147528Y-72602850D01*
X44229595Y-72756386D01*
X44340038Y-72890962D01*
X44474614Y-73001405D01*
X44628150Y-73083472D01*
X44794746Y-73134008D01*
X44968000Y-73151072D01*
X45019076Y-73151072D01*
X45035237Y-73170764D01*
X45065185Y-73195342D01*
X51696458Y-79826616D01*
X51721036Y-79856564D01*
X51750984Y-79881142D01*
X51750987Y-79881145D01*
X51780359Y-79905250D01*
X51840567Y-79954662D01*
X51976940Y-80027554D01*
X52124913Y-80072441D01*
X52240239Y-80083800D01*
X52240246Y-80083800D01*
X52278799Y-80087597D01*
X52317352Y-80083800D01*
X53008595Y-80083800D01*
X52911006Y-80135963D01*
X52814315Y-80215315D01*
X52734963Y-80312006D01*
X52675998Y-80422320D01*
X52639688Y-80542018D01*
X52627428Y-80666500D01*
X52627428Y-81766500D01*
X52639688Y-81890982D01*
X52675998Y-82010680D01*
X52734963Y-82120994D01*
X52814315Y-82217685D01*
X52911006Y-82297037D01*
X53021320Y-82356002D01*
X53141018Y-82392312D01*
X53265500Y-82404572D01*
X55065500Y-82404572D01*
X55189982Y-82392312D01*
X55309680Y-82356002D01*
X55419994Y-82297037D01*
X55516685Y-82217685D01*
X55596037Y-82120994D01*
X55655002Y-82010680D01*
X55665370Y-81976500D01*
X56252718Y-81976500D01*
X56354944Y-82044805D01*
X56543302Y-82122826D01*
X56743261Y-82162600D01*
X56947139Y-82162600D01*
X57147098Y-82122826D01*
X57335456Y-82044805D01*
X57504974Y-81931537D01*
X57649137Y-81787374D01*
X57762405Y-81617856D01*
X57840426Y-81429498D01*
X57880200Y-81229539D01*
X57880200Y-81025661D01*
X57840426Y-80825702D01*
X57762405Y-80637344D01*
X57649137Y-80467826D01*
X57504974Y-80323663D01*
X57335456Y-80210395D01*
X57147098Y-80132374D01*
X56947139Y-80092600D01*
X56743261Y-80092600D01*
X56543302Y-80132374D01*
X56354944Y-80210395D01*
X56185426Y-80323663D01*
X56052589Y-80456500D01*
X55665370Y-80456500D01*
X55655002Y-80422320D01*
X55596037Y-80312006D01*
X55516685Y-80215315D01*
X55419994Y-80135963D01*
X55322405Y-80083800D01*
X61209428Y-80083800D01*
X61209428Y-80507750D01*
X61226372Y-80679785D01*
X61276553Y-80845209D01*
X61358042Y-80997664D01*
X61467708Y-81131292D01*
X61474064Y-81136508D01*
X61396315Y-81200315D01*
X61316963Y-81297006D01*
X61257998Y-81407320D01*
X61221688Y-81527018D01*
X61209428Y-81651500D01*
X61212500Y-81853250D01*
X61371250Y-82012000D01*
X62420500Y-82012000D01*
X62420500Y-81992000D01*
X62674500Y-81992000D01*
X62674500Y-82012000D01*
X63723750Y-82012000D01*
X63882500Y-81853250D01*
X63885572Y-81651500D01*
X63873312Y-81527018D01*
X63837002Y-81407320D01*
X63778037Y-81297006D01*
X63698685Y-81200315D01*
X63620936Y-81136508D01*
X63627292Y-81131292D01*
X63694828Y-81049000D01*
X66382447Y-81049000D01*
X66421000Y-81052797D01*
X66459553Y-81049000D01*
X66459561Y-81049000D01*
X66574887Y-81037641D01*
X66722860Y-80992754D01*
X66859233Y-80919862D01*
X66978764Y-80821764D01*
X67003347Y-80791810D01*
X67258157Y-80537000D01*
X67284939Y-80537000D01*
X67484898Y-80497226D01*
X67673256Y-80419205D01*
X67842774Y-80305937D01*
X67861711Y-80287000D01*
X69002930Y-80287000D01*
X69041483Y-80290797D01*
X69080036Y-80287000D01*
X69080044Y-80287000D01*
X69195370Y-80275641D01*
X69343343Y-80230754D01*
X69479716Y-80157862D01*
X69599247Y-80059764D01*
X69623830Y-80029810D01*
X69751296Y-79902344D01*
X69956357Y-80107405D01*
X70053048Y-80186757D01*
X70163362Y-80245722D01*
X70283060Y-80282032D01*
X70407542Y-80294292D01*
X70532024Y-80282032D01*
X70651722Y-80245722D01*
X70762036Y-80186757D01*
X70858727Y-80107405D01*
X71919387Y-79046745D01*
X71945500Y-79014926D01*
X71971613Y-79046745D01*
X73032273Y-80107405D01*
X73128964Y-80186757D01*
X73239278Y-80245722D01*
X73358976Y-80282032D01*
X73467570Y-80292727D01*
X74145000Y-80970158D01*
X74145001Y-84072648D01*
X74012664Y-83964042D01*
X73860209Y-83882553D01*
X73694785Y-83832372D01*
X73522750Y-83815428D01*
X73035250Y-83815428D01*
X72863215Y-83832372D01*
X72697791Y-83882553D01*
X72545336Y-83964042D01*
X72411708Y-84073708D01*
X72406492Y-84080064D01*
X72342685Y-84002315D01*
X72245994Y-83922963D01*
X72135680Y-83863998D01*
X72015982Y-83827688D01*
X71891500Y-83815428D01*
X71689750Y-83818500D01*
X71531000Y-83977250D01*
X71531000Y-85026500D01*
X71551000Y-85026500D01*
X71551000Y-85280500D01*
X71531000Y-85280500D01*
X71531000Y-86329750D01*
X71689750Y-86488500D01*
X71891500Y-86491572D01*
X72015982Y-86479312D01*
X72135680Y-86443002D01*
X72245994Y-86384037D01*
X72342685Y-86304685D01*
X72406492Y-86226936D01*
X72411708Y-86233292D01*
X72545336Y-86342958D01*
X72697791Y-86424447D01*
X72863215Y-86474628D01*
X73035250Y-86491572D01*
X73522750Y-86491572D01*
X73694785Y-86474628D01*
X73860209Y-86424447D01*
X74012664Y-86342958D01*
X74146292Y-86233292D01*
X74255958Y-86099664D01*
X74337447Y-85947209D01*
X74339555Y-85940261D01*
X74439744Y-86007205D01*
X74628102Y-86085226D01*
X74828061Y-86125000D01*
X75031939Y-86125000D01*
X75231898Y-86085226D01*
X75420256Y-86007205D01*
X75589774Y-85893937D01*
X75733937Y-85749774D01*
X75847205Y-85580256D01*
X75925226Y-85391898D01*
X75965000Y-85191939D01*
X75965000Y-84988061D01*
X75925226Y-84788102D01*
X75847205Y-84599744D01*
X75733937Y-84430226D01*
X75715000Y-84411289D01*
X75715000Y-80970157D01*
X75836657Y-80848500D01*
X79560928Y-80848500D01*
X79573188Y-80972982D01*
X79609498Y-81092680D01*
X79668463Y-81202994D01*
X79747815Y-81299685D01*
X79844506Y-81379037D01*
X79954820Y-81438002D01*
X80074518Y-81474312D01*
X80199000Y-81486572D01*
X80613250Y-81483500D01*
X80772000Y-81324750D01*
X80772000Y-80488000D01*
X81026000Y-80488000D01*
X81026000Y-81324750D01*
X81184750Y-81483500D01*
X81599000Y-81486572D01*
X81723482Y-81474312D01*
X81843180Y-81438002D01*
X81953494Y-81379037D01*
X82050185Y-81299685D01*
X82129537Y-81202994D01*
X82188502Y-81092680D01*
X82224812Y-80972982D01*
X82237072Y-80848500D01*
X82234000Y-80646750D01*
X82075250Y-80488000D01*
X81026000Y-80488000D01*
X80772000Y-80488000D01*
X79722750Y-80488000D01*
X79564000Y-80646750D01*
X79560928Y-80848500D01*
X75836657Y-80848500D01*
X79933286Y-76751871D01*
X79963240Y-76727288D01*
X80061338Y-76607757D01*
X80134230Y-76471384D01*
X80139000Y-76455658D01*
X80139000Y-77417327D01*
X80105291Y-77427553D01*
X79952836Y-77509042D01*
X79819208Y-77618708D01*
X79709542Y-77752336D01*
X79628053Y-77904791D01*
X79577872Y-78070215D01*
X79560928Y-78242250D01*
X79560928Y-78729750D01*
X79577872Y-78901785D01*
X79628053Y-79067209D01*
X79709542Y-79219664D01*
X79819208Y-79353292D01*
X79825564Y-79358508D01*
X79747815Y-79422315D01*
X79668463Y-79519006D01*
X79609498Y-79629320D01*
X79573188Y-79749018D01*
X79560928Y-79873500D01*
X79564000Y-80075250D01*
X79722750Y-80234000D01*
X80772000Y-80234000D01*
X80772000Y-80214000D01*
X81026000Y-80214000D01*
X81026000Y-80234000D01*
X82075250Y-80234000D01*
X82234000Y-80075250D01*
X82237072Y-79873500D01*
X82224812Y-79749018D01*
X82188502Y-79629320D01*
X82129537Y-79519006D01*
X82050185Y-79422315D01*
X81972436Y-79358508D01*
X81978792Y-79353292D01*
X82088458Y-79219664D01*
X82169947Y-79067209D01*
X82220128Y-78901785D01*
X82237072Y-78729750D01*
X82237072Y-78242250D01*
X82220128Y-78070215D01*
X82169947Y-77904791D01*
X82088458Y-77752336D01*
X81978792Y-77618708D01*
X81845164Y-77509042D01*
X81692709Y-77427553D01*
X81659000Y-77417327D01*
X81659000Y-73279491D01*
X83568001Y-75188492D01*
X83568000Y-80226677D01*
X83564324Y-80264000D01*
X83568000Y-80301322D01*
X83568000Y-80301332D01*
X83578997Y-80412985D01*
X83604551Y-80497226D01*
X83622454Y-80556246D01*
X83693026Y-80688276D01*
X83705376Y-80703324D01*
X83761823Y-80772105D01*
X83697256Y-90780000D01*
X41300000Y-90780000D01*
X41300000Y-85466500D01*
X46427428Y-85466500D01*
X46439688Y-85590982D01*
X46475998Y-85710680D01*
X46534963Y-85820994D01*
X46614315Y-85917685D01*
X46711006Y-85997037D01*
X46821320Y-86056002D01*
X46941018Y-86092312D01*
X47065500Y-86104572D01*
X47679750Y-86101500D01*
X47838500Y-85942750D01*
X47838500Y-85043500D01*
X48092500Y-85043500D01*
X48092500Y-85942750D01*
X48251250Y-86101500D01*
X48865500Y-86104572D01*
X48989982Y-86092312D01*
X49109680Y-86056002D01*
X49219994Y-85997037D01*
X49316685Y-85917685D01*
X49396037Y-85820994D01*
X49455002Y-85710680D01*
X49491312Y-85590982D01*
X49503572Y-85466500D01*
X49500500Y-85202250D01*
X49341750Y-85043500D01*
X48092500Y-85043500D01*
X47838500Y-85043500D01*
X46589250Y-85043500D01*
X46430500Y-85202250D01*
X46427428Y-85466500D01*
X41300000Y-85466500D01*
X41300000Y-84366500D01*
X46427428Y-84366500D01*
X46430500Y-84630750D01*
X46589250Y-84789500D01*
X47838500Y-84789500D01*
X47838500Y-83890250D01*
X48092500Y-83890250D01*
X48092500Y-84789500D01*
X49341750Y-84789500D01*
X49500500Y-84630750D01*
X49503572Y-84366500D01*
X52627428Y-84366500D01*
X52627428Y-85466500D01*
X52639688Y-85590982D01*
X52675998Y-85710680D01*
X52734963Y-85820994D01*
X52814315Y-85917685D01*
X52911006Y-85997037D01*
X53021320Y-86056002D01*
X53141018Y-86092312D01*
X53265500Y-86104572D01*
X55065500Y-86104572D01*
X55189982Y-86092312D01*
X55309680Y-86056002D01*
X55419994Y-85997037D01*
X55516685Y-85917685D01*
X55569360Y-85853500D01*
X70278428Y-85853500D01*
X70290688Y-85977982D01*
X70326998Y-86097680D01*
X70385963Y-86207994D01*
X70465315Y-86304685D01*
X70562006Y-86384037D01*
X70672320Y-86443002D01*
X70792018Y-86479312D01*
X70916500Y-86491572D01*
X71118250Y-86488500D01*
X71277000Y-86329750D01*
X71277000Y-85280500D01*
X70440250Y-85280500D01*
X70281500Y-85439250D01*
X70278428Y-85853500D01*
X55569360Y-85853500D01*
X55596037Y-85820994D01*
X55655002Y-85710680D01*
X55691312Y-85590982D01*
X55703572Y-85466500D01*
X55703572Y-84453500D01*
X70278428Y-84453500D01*
X70281500Y-84867750D01*
X70440250Y-85026500D01*
X71277000Y-85026500D01*
X71277000Y-83977250D01*
X71118250Y-83818500D01*
X70916500Y-83815428D01*
X70792018Y-83827688D01*
X70672320Y-83863998D01*
X70562006Y-83922963D01*
X70465315Y-84002315D01*
X70385963Y-84099006D01*
X70326998Y-84209320D01*
X70290688Y-84329018D01*
X70278428Y-84453500D01*
X55703572Y-84453500D01*
X55703572Y-84366500D01*
X55691312Y-84242018D01*
X55655002Y-84122320D01*
X55596037Y-84012006D01*
X55516685Y-83915315D01*
X55419994Y-83835963D01*
X55309680Y-83776998D01*
X55189982Y-83740688D01*
X55065500Y-83728428D01*
X53265500Y-83728428D01*
X53141018Y-83740688D01*
X53021320Y-83776998D01*
X52911006Y-83835963D01*
X52814315Y-83915315D01*
X52734963Y-84012006D01*
X52675998Y-84122320D01*
X52639688Y-84242018D01*
X52627428Y-84366500D01*
X49503572Y-84366500D01*
X49491312Y-84242018D01*
X49455002Y-84122320D01*
X49396037Y-84012006D01*
X49316685Y-83915315D01*
X49219994Y-83835963D01*
X49109680Y-83776998D01*
X48989982Y-83740688D01*
X48865500Y-83728428D01*
X48251250Y-83731500D01*
X48092500Y-83890250D01*
X47838500Y-83890250D01*
X47679750Y-83731500D01*
X47065500Y-83728428D01*
X46941018Y-83740688D01*
X46821320Y-83776998D01*
X46711006Y-83835963D01*
X46614315Y-83915315D01*
X46534963Y-84012006D01*
X46475998Y-84122320D01*
X46439688Y-84242018D01*
X46427428Y-84366500D01*
X41300000Y-84366500D01*
X41300000Y-82626500D01*
X61209428Y-82626500D01*
X61221688Y-82750982D01*
X61257998Y-82870680D01*
X61316963Y-82980994D01*
X61396315Y-83077685D01*
X61493006Y-83157037D01*
X61603320Y-83216002D01*
X61723018Y-83252312D01*
X61847500Y-83264572D01*
X62261750Y-83261500D01*
X62420500Y-83102750D01*
X62420500Y-82266000D01*
X62674500Y-82266000D01*
X62674500Y-83102750D01*
X62833250Y-83261500D01*
X63247500Y-83264572D01*
X63371982Y-83252312D01*
X63491680Y-83216002D01*
X63601994Y-83157037D01*
X63698685Y-83077685D01*
X63778037Y-82980994D01*
X63837002Y-82870680D01*
X63873312Y-82750982D01*
X63885572Y-82626500D01*
X63882500Y-82424750D01*
X63723750Y-82266000D01*
X62674500Y-82266000D01*
X62420500Y-82266000D01*
X61371250Y-82266000D01*
X61212500Y-82424750D01*
X61209428Y-82626500D01*
X41300000Y-82626500D01*
X41300000Y-80666500D01*
X46427428Y-80666500D01*
X46427428Y-81766500D01*
X46439688Y-81890982D01*
X46475998Y-82010680D01*
X46534963Y-82120994D01*
X46614315Y-82217685D01*
X46711006Y-82297037D01*
X46821320Y-82356002D01*
X46941018Y-82392312D01*
X47065500Y-82404572D01*
X48865500Y-82404572D01*
X48989982Y-82392312D01*
X49109680Y-82356002D01*
X49219994Y-82297037D01*
X49316685Y-82217685D01*
X49396037Y-82120994D01*
X49455002Y-82010680D01*
X49491312Y-81890982D01*
X49503572Y-81766500D01*
X49503572Y-80666500D01*
X49491312Y-80542018D01*
X49455002Y-80422320D01*
X49396037Y-80312006D01*
X49316685Y-80215315D01*
X49219994Y-80135963D01*
X49109680Y-80076998D01*
X48989982Y-80040688D01*
X48865500Y-80028428D01*
X47065500Y-80028428D01*
X46941018Y-80040688D01*
X46821320Y-80076998D01*
X46711006Y-80135963D01*
X46614315Y-80215315D01*
X46534963Y-80312006D01*
X46475998Y-80422320D01*
X46439688Y-80542018D01*
X46427428Y-80666500D01*
X41300000Y-80666500D01*
X41300000Y-52730000D01*
X46558505Y-52730000D01*
X46533401Y-52776966D01*
G36*
X83852733Y-66680951D02*
G01*
X83401327Y-66680951D01*
X83437205Y-66627256D01*
X83515226Y-66438898D01*
X83555000Y-66238939D01*
X83555000Y-66035061D01*
X83515226Y-65835102D01*
X83437205Y-65646744D01*
X83323937Y-65477226D01*
X83179774Y-65333063D01*
X83010256Y-65219795D01*
X82821898Y-65141774D01*
X82621939Y-65102000D01*
X82418061Y-65102000D01*
X82218102Y-65141774D01*
X82029744Y-65219795D01*
X81860226Y-65333063D01*
X81841289Y-65352000D01*
X81665328Y-65352000D01*
X81597792Y-65269708D01*
X81591436Y-65264492D01*
X81669185Y-65200685D01*
X81748537Y-65103994D01*
X81807502Y-64993680D01*
X81843812Y-64873982D01*
X81856072Y-64749500D01*
X81853000Y-64547750D01*
X81694250Y-64389000D01*
X80645000Y-64389000D01*
X80645000Y-64409000D01*
X80391000Y-64409000D01*
X80391000Y-64389000D01*
X79341750Y-64389000D01*
X79337540Y-64393210D01*
X74352862Y-64393210D01*
X74314307Y-64389413D01*
X74275751Y-64393210D01*
X74275746Y-64393210D01*
X74235333Y-64397190D01*
X74160420Y-64404568D01*
X74103717Y-64421769D01*
X74049143Y-64416394D01*
X73924661Y-64428654D01*
X73804963Y-64464964D01*
X73694649Y-64523929D01*
X73597958Y-64603281D01*
X72537298Y-65663941D01*
X72457946Y-65760632D01*
X72398981Y-65870946D01*
X72362671Y-65990644D01*
X72350411Y-66115126D01*
X72362671Y-66239608D01*
X72370295Y-66264741D01*
X72370295Y-66394963D01*
X72457364Y-66468532D01*
X72457946Y-66469620D01*
X72537298Y-66566311D01*
X72926206Y-66955219D01*
X73022897Y-67034571D01*
X73023375Y-67034827D01*
X73023631Y-67035305D01*
X73102983Y-67131996D01*
X73491891Y-67520904D01*
X73588582Y-67600256D01*
X73589062Y-67600512D01*
X73589317Y-67600990D01*
X73668669Y-67697681D01*
X74057577Y-68086589D01*
X74154268Y-68165941D01*
X74154746Y-68166196D01*
X74155002Y-68166676D01*
X74234354Y-68263367D01*
X74623262Y-68652275D01*
X74719953Y-68731627D01*
X74720433Y-68731883D01*
X74720688Y-68732361D01*
X74800040Y-68829052D01*
X75188948Y-69217960D01*
X75285639Y-69297312D01*
X75286117Y-69297567D01*
X75286373Y-69298047D01*
X75365725Y-69394738D01*
X75754633Y-69783646D01*
X75851324Y-69862998D01*
X75851804Y-69863254D01*
X75852059Y-69863732D01*
X75931411Y-69960423D01*
X76320319Y-70349331D01*
X76417010Y-70428683D01*
X76417488Y-70428938D01*
X76417744Y-70429418D01*
X76497096Y-70526109D01*
X76886004Y-70915017D01*
X76982695Y-70994369D01*
X76983173Y-70994625D01*
X76983429Y-70995103D01*
X77062781Y-71091794D01*
X77451689Y-71480702D01*
X77548380Y-71560054D01*
X77548860Y-71560310D01*
X77549115Y-71560788D01*
X77628467Y-71657479D01*
X78017375Y-72046387D01*
X78049194Y-72072500D01*
X78017375Y-72098613D01*
X77628467Y-72487521D01*
X77549115Y-72584212D01*
X77548535Y-72585297D01*
X77461463Y-72658868D01*
X77461463Y-72789094D01*
X77453840Y-72814224D01*
X77441580Y-72938706D01*
X77452984Y-73054500D01*
X77337189Y-73043096D01*
X77212707Y-73055356D01*
X77187574Y-73062980D01*
X77057351Y-73062980D01*
X76983782Y-73150050D01*
X76982695Y-73150631D01*
X76886004Y-73229983D01*
X76497096Y-73618891D01*
X76417744Y-73715582D01*
X76417488Y-73716062D01*
X76417010Y-73716317D01*
X76320319Y-73795669D01*
X75931411Y-74184577D01*
X75852059Y-74281268D01*
X75851804Y-74281746D01*
X75851324Y-74282002D01*
X75754633Y-74361354D01*
X75365725Y-74750262D01*
X75286373Y-74846953D01*
X75286117Y-74847433D01*
X75285639Y-74847688D01*
X75188948Y-74927040D01*
X74800040Y-75315948D01*
X74720688Y-75412639D01*
X74720433Y-75413117D01*
X74719953Y-75413373D01*
X74623262Y-75492725D01*
X74234354Y-75881633D01*
X74155002Y-75978324D01*
X74154746Y-75978804D01*
X74154268Y-75979059D01*
X74057577Y-76058411D01*
X73668669Y-76447319D01*
X73589317Y-76544010D01*
X73589062Y-76544488D01*
X73588582Y-76544744D01*
X73491891Y-76624096D01*
X73102983Y-77013004D01*
X73023631Y-77109695D01*
X73023050Y-77110782D01*
X72935980Y-77184351D01*
X72935980Y-77314574D01*
X72928356Y-77339707D01*
X72916096Y-77464189D01*
X72927500Y-77579984D01*
X72811706Y-77568580D01*
X72687224Y-77580840D01*
X72662094Y-77588463D01*
X72531868Y-77588463D01*
X72458297Y-77675535D01*
X72457212Y-77676115D01*
X72360521Y-77755467D01*
X71971613Y-78144375D01*
X71945500Y-78176194D01*
X71919387Y-78144375D01*
X71530479Y-77755467D01*
X71433788Y-77676115D01*
X71433310Y-77675860D01*
X71433054Y-77675380D01*
X71353702Y-77578689D01*
X70964794Y-77189781D01*
X70868103Y-77110429D01*
X70867625Y-77110173D01*
X70867369Y-77109695D01*
X70788017Y-77013004D01*
X70399109Y-76624096D01*
X70302418Y-76544744D01*
X70301938Y-76544488D01*
X70301683Y-76544010D01*
X70222331Y-76447319D01*
X69833423Y-76058411D01*
X69736732Y-75979059D01*
X69735647Y-75978479D01*
X69662076Y-75891407D01*
X69531850Y-75891407D01*
X69506720Y-75883784D01*
X69382238Y-75871524D01*
X69266443Y-75882928D01*
X69277847Y-75767133D01*
X69265587Y-75642651D01*
X69257964Y-75617521D01*
X69257964Y-75487295D01*
X69170892Y-75413724D01*
X69170312Y-75412639D01*
X69090960Y-75315948D01*
X68702052Y-74927040D01*
X68605361Y-74847688D01*
X68604883Y-74847433D01*
X68604627Y-74846953D01*
X68525275Y-74750262D01*
X68136367Y-74361354D01*
X68039676Y-74282002D01*
X68039196Y-74281746D01*
X68038941Y-74281268D01*
X67959589Y-74184577D01*
X67570681Y-73795669D01*
X67473990Y-73716317D01*
X67473512Y-73716062D01*
X67473256Y-73715582D01*
X67393904Y-73618891D01*
X67004996Y-73229983D01*
X66908305Y-73150631D01*
X66907827Y-73150375D01*
X66907571Y-73149897D01*
X66828219Y-73053206D01*
X66439311Y-72664298D01*
X66342620Y-72584946D01*
X66342140Y-72584690D01*
X66341885Y-72584212D01*
X66262533Y-72487521D01*
X65873625Y-72098613D01*
X65841806Y-72072500D01*
X65873625Y-72046387D01*
X66262533Y-71657479D01*
X66341885Y-71560788D01*
X66342140Y-71560310D01*
X66342620Y-71560054D01*
X66439311Y-71480702D01*
X66828219Y-71091794D01*
X66907571Y-70995103D01*
X66907827Y-70994625D01*
X66908305Y-70994369D01*
X67004996Y-70915017D01*
X67393904Y-70526109D01*
X67473256Y-70429418D01*
X67473838Y-70428330D01*
X67560907Y-70354761D01*
X67560907Y-70224539D01*
X67568531Y-70199406D01*
X67580791Y-70074924D01*
X67569387Y-69959129D01*
X67685182Y-69970533D01*
X67809664Y-69958273D01*
X67834797Y-69950649D01*
X67965019Y-69950649D01*
X68038588Y-69863580D01*
X68039676Y-69862998D01*
X68136367Y-69783646D01*
X68525275Y-69394738D01*
X68604627Y-69298047D01*
X68604883Y-69297567D01*
X68605361Y-69297312D01*
X68702052Y-69217960D01*
X69090960Y-68829052D01*
X69170312Y-68732361D01*
X69170567Y-68731883D01*
X69171047Y-68731627D01*
X69267738Y-68652275D01*
X69656646Y-68263367D01*
X69735998Y-68166676D01*
X69736254Y-68166196D01*
X69736732Y-68165941D01*
X69833423Y-68086589D01*
X70222331Y-67697681D01*
X70301683Y-67600990D01*
X70301938Y-67600512D01*
X70302418Y-67600256D01*
X70399109Y-67520904D01*
X70788017Y-67131996D01*
X70867369Y-67035305D01*
X70867625Y-67034827D01*
X70868103Y-67034571D01*
X70964794Y-66955219D01*
X71353702Y-66566311D01*
X71433054Y-66469620D01*
X71433310Y-66469140D01*
X71433788Y-66468885D01*
X71530479Y-66389533D01*
X71919387Y-66000625D01*
X71946513Y-65967572D01*
X71966183Y-65990851D01*
X72190690Y-65990851D01*
X72967977Y-65213564D01*
X72526565Y-64772153D01*
X72302059Y-64772153D01*
X71973890Y-65095988D01*
X71945564Y-65130152D01*
X71919387Y-65098255D01*
X71189173Y-64368041D01*
X72706171Y-64368041D01*
X72706171Y-64592547D01*
X73147582Y-65033959D01*
X73924869Y-64256672D01*
X73924869Y-64032165D01*
X73835276Y-63956464D01*
X73724666Y-63898055D01*
X73604787Y-63862349D01*
X73480245Y-63850715D01*
X73355826Y-63863602D01*
X73236313Y-63900515D01*
X73126297Y-63960034D01*
X73030006Y-64039872D01*
X72706171Y-64368041D01*
X71189173Y-64368041D01*
X70858727Y-64037595D01*
X70762036Y-63958243D01*
X70651722Y-63899278D01*
X70532024Y-63862968D01*
X70407542Y-63850708D01*
X70283060Y-63862968D01*
X70163362Y-63899278D01*
X70053048Y-63958243D01*
X69956357Y-64037595D01*
X69567449Y-64426503D01*
X69488097Y-64523194D01*
X69487841Y-64523674D01*
X69487363Y-64523929D01*
X69390672Y-64603281D01*
X69001764Y-64992189D01*
X68922412Y-65088880D01*
X68922156Y-65089358D01*
X68921678Y-65089614D01*
X68824987Y-65168966D01*
X68436079Y-65557874D01*
X68356727Y-65654565D01*
X68356472Y-65655043D01*
X68355992Y-65655299D01*
X68259301Y-65734651D01*
X67943000Y-66050952D01*
X67943000Y-65619801D01*
X69788301Y-63774500D01*
X79179928Y-63774500D01*
X79183000Y-63976250D01*
X79341750Y-64135000D01*
X80391000Y-64135000D01*
X80391000Y-63298250D01*
X80645000Y-63298250D01*
X80645000Y-64135000D01*
X81694250Y-64135000D01*
X81853000Y-63976250D01*
X81856072Y-63774500D01*
X81843812Y-63650018D01*
X81807502Y-63530320D01*
X81748537Y-63420006D01*
X81669185Y-63323315D01*
X81572494Y-63243963D01*
X81462180Y-63184998D01*
X81342482Y-63148688D01*
X81218000Y-63136428D01*
X80803750Y-63139500D01*
X80645000Y-63298250D01*
X80391000Y-63298250D01*
X80232250Y-63139500D01*
X79818000Y-63136428D01*
X79693518Y-63148688D01*
X79573820Y-63184998D01*
X79463506Y-63243963D01*
X79366815Y-63323315D01*
X79287463Y-63420006D01*
X79228498Y-63530320D01*
X79192188Y-63650018D01*
X79179928Y-63774500D01*
X69788301Y-63774500D01*
X73777730Y-59785072D01*
X74741000Y-59785072D01*
X74865482Y-59772812D01*
X74985180Y-59736502D01*
X75095494Y-59677537D01*
X75192185Y-59598185D01*
X75271537Y-59501494D01*
X75330502Y-59391180D01*
X75356038Y-59307000D01*
X76133677Y-59307000D01*
X76153542Y-59344164D01*
X76263208Y-59477792D01*
X76396836Y-59587458D01*
X76549291Y-59668947D01*
X76714715Y-59719128D01*
X76886750Y-59736072D01*
X77799250Y-59736072D01*
X77971285Y-59719128D01*
X78136709Y-59668947D01*
X78289164Y-59587458D01*
X78422792Y-59477792D01*
X78532458Y-59344164D01*
X78613947Y-59191709D01*
X78664128Y-59026285D01*
X78681072Y-58854250D01*
X78681072Y-58366750D01*
X78664128Y-58194715D01*
X78613947Y-58029291D01*
X78532458Y-57876836D01*
X78422792Y-57743208D01*
X78416436Y-57737992D01*
X78494185Y-57674185D01*
X78573537Y-57577494D01*
X78632502Y-57467180D01*
X78668812Y-57347482D01*
X78681072Y-57223000D01*
X78678000Y-57021250D01*
X78519250Y-56862500D01*
X77470000Y-56862500D01*
X77470000Y-56882500D01*
X77216000Y-56882500D01*
X77216000Y-56862500D01*
X76166750Y-56862500D01*
X76008000Y-57021250D01*
X76004928Y-57223000D01*
X76017188Y-57347482D01*
X76053498Y-57467180D01*
X76112463Y-57577494D01*
X76191815Y-57674185D01*
X76269564Y-57737992D01*
X76263208Y-57743208D01*
X76227269Y-57787000D01*
X75356038Y-57787000D01*
X75330502Y-57702820D01*
X75327391Y-57697000D01*
X75330502Y-57691180D01*
X75366812Y-57571482D01*
X75379072Y-57447000D01*
X75376000Y-57132750D01*
X75217250Y-56974000D01*
X74168000Y-56974000D01*
X74168000Y-56994000D01*
X73914000Y-56994000D01*
X73914000Y-56974000D01*
X73894000Y-56974000D01*
X73894000Y-56720000D01*
X73914000Y-56720000D01*
X73914000Y-55770750D01*
X74168000Y-55770750D01*
X74168000Y-56720000D01*
X75217250Y-56720000D01*
X75376000Y-56561250D01*
X75379062Y-56248000D01*
X76004928Y-56248000D01*
X76008000Y-56449750D01*
X76166750Y-56608500D01*
X77216000Y-56608500D01*
X77216000Y-55771750D01*
X77470000Y-55771750D01*
X77470000Y-56608500D01*
X78519250Y-56608500D01*
X78678000Y-56449750D01*
X78681072Y-56248000D01*
X78668812Y-56123518D01*
X78632502Y-56003820D01*
X78573537Y-55893506D01*
X78494185Y-55796815D01*
X78397494Y-55717463D01*
X78287180Y-55658498D01*
X78167482Y-55622188D01*
X78043000Y-55609928D01*
X77628750Y-55613000D01*
X77470000Y-55771750D01*
X77216000Y-55771750D01*
X77057250Y-55613000D01*
X76643000Y-55609928D01*
X76518518Y-55622188D01*
X76398820Y-55658498D01*
X76288506Y-55717463D01*
X76191815Y-55796815D01*
X76112463Y-55893506D01*
X76053498Y-56003820D01*
X76017188Y-56123518D01*
X76004928Y-56248000D01*
X75379062Y-56248000D01*
X75379072Y-56247000D01*
X75366812Y-56122518D01*
X75330502Y-56002820D01*
X75271537Y-55892506D01*
X75192185Y-55795815D01*
X75095494Y-55716463D01*
X74985180Y-55657498D01*
X74865482Y-55621188D01*
X74741000Y-55608928D01*
X74326750Y-55612000D01*
X74168000Y-55770750D01*
X73914000Y-55770750D01*
X73755250Y-55612000D01*
X73341000Y-55608928D01*
X73216518Y-55621188D01*
X73096820Y-55657498D01*
X72986506Y-55716463D01*
X72941000Y-55753809D01*
X72895494Y-55716463D01*
X72785180Y-55657498D01*
X72665482Y-55621188D01*
X72541000Y-55608928D01*
X71141000Y-55608928D01*
X71016518Y-55621188D01*
X70896820Y-55657498D01*
X70786506Y-55716463D01*
X70689815Y-55795815D01*
X70610463Y-55892506D01*
X70551498Y-56002820D01*
X70549623Y-56009000D01*
X69747845Y-56009000D01*
X69659792Y-55901708D01*
X69526164Y-55792042D01*
X69373709Y-55710553D01*
X69208285Y-55660372D01*
X69036250Y-55643428D01*
X68123750Y-55643428D01*
X67951715Y-55660372D01*
X67786291Y-55710553D01*
X67633836Y-55792042D01*
X67500208Y-55901708D01*
X67390542Y-56035336D01*
X67309053Y-56187791D01*
X67258872Y-56353215D01*
X67241928Y-56525250D01*
X67241928Y-57012750D01*
X67258872Y-57184785D01*
X67309053Y-57350209D01*
X67390542Y-57502664D01*
X67500208Y-57636292D01*
X67506564Y-57641508D01*
X67428815Y-57705315D01*
X67349463Y-57802006D01*
X67290498Y-57912320D01*
X67254188Y-58032018D01*
X67241928Y-58156500D01*
X67245000Y-58358250D01*
X67403750Y-58517000D01*
X68453000Y-58517000D01*
X68453000Y-58497000D01*
X68707000Y-58497000D01*
X68707000Y-58517000D01*
X68727000Y-58517000D01*
X68727000Y-58771000D01*
X68707000Y-58771000D01*
X68707000Y-59607750D01*
X68845010Y-59745760D01*
X68845011Y-61931777D01*
X66221993Y-64554796D01*
X66192989Y-64578599D01*
X66147927Y-64633508D01*
X66098016Y-64694324D01*
X66060239Y-64764999D01*
X66027444Y-64826354D01*
X65983987Y-64969615D01*
X65972990Y-65081268D01*
X65972990Y-65081278D01*
X65969314Y-65118600D01*
X65972990Y-65155923D01*
X65972991Y-67954029D01*
X65969314Y-67991361D01*
X65972991Y-68028694D01*
X65983988Y-68140347D01*
X65987945Y-68153391D01*
X65995620Y-68178693D01*
X65986450Y-68271801D01*
X65997854Y-68387596D01*
X65974324Y-68385279D01*
X64539000Y-66949956D01*
X64539000Y-63418089D01*
X64547709Y-63415447D01*
X64700164Y-63333958D01*
X64833792Y-63224292D01*
X64943458Y-63090664D01*
X65024947Y-62938209D01*
X65075128Y-62772785D01*
X65092072Y-62600750D01*
X65092072Y-62113250D01*
X65075128Y-61941215D01*
X65024947Y-61775791D01*
X64943458Y-61623336D01*
X64833792Y-61489708D01*
X64827436Y-61484492D01*
X64905185Y-61420685D01*
X64984537Y-61323994D01*
X65043502Y-61213680D01*
X65079812Y-61093982D01*
X65092072Y-60969500D01*
X65089000Y-60767750D01*
X64930250Y-60609000D01*
X63881000Y-60609000D01*
X63881000Y-60629000D01*
X63627000Y-60629000D01*
X63627000Y-60609000D01*
X63607000Y-60609000D01*
X63607000Y-60355000D01*
X63627000Y-60355000D01*
X63627000Y-59518250D01*
X63881000Y-59518250D01*
X63881000Y-60355000D01*
X64930250Y-60355000D01*
X65089000Y-60196250D01*
X65092072Y-59994500D01*
X65079812Y-59870018D01*
X65043502Y-59750320D01*
X64984537Y-59640006D01*
X64905185Y-59543315D01*
X64808494Y-59463963D01*
X64698180Y-59404998D01*
X64578482Y-59368688D01*
X64454000Y-59356428D01*
X64039750Y-59359500D01*
X63881000Y-59518250D01*
X63627000Y-59518250D01*
X63468250Y-59359500D01*
X63054000Y-59356428D01*
X62929518Y-59368688D01*
X62809820Y-59404998D01*
X62744907Y-59439696D01*
X62731024Y-59425813D01*
X62561506Y-59312545D01*
X62373148Y-59234524D01*
X62173189Y-59194750D01*
X61969311Y-59194750D01*
X61769352Y-59234524D01*
X61580994Y-59312545D01*
X61411476Y-59425813D01*
X61355208Y-59482081D01*
X61245709Y-59423553D01*
X61080285Y-59373372D01*
X60908250Y-59356428D01*
X59995750Y-59356428D01*
X59823715Y-59373372D01*
X59658291Y-59423553D01*
X59505836Y-59505042D01*
X59372208Y-59614708D01*
X59262542Y-59748336D01*
X59181053Y-59900791D01*
X59130872Y-60066215D01*
X59113928Y-60238250D01*
X59113928Y-60725750D01*
X59130872Y-60897785D01*
X59181053Y-61063209D01*
X59262542Y-61215664D01*
X59372208Y-61349292D01*
X59457756Y-61419500D01*
X59372208Y-61489708D01*
X59284155Y-61597000D01*
X59123711Y-61597000D01*
X59079774Y-61553063D01*
X58910256Y-61439795D01*
X58721898Y-61361774D01*
X58521939Y-61322000D01*
X58318061Y-61322000D01*
X58118102Y-61361774D01*
X57929744Y-61439795D01*
X57760226Y-61553063D01*
X57616063Y-61697226D01*
X57502795Y-61866744D01*
X57424774Y-62055102D01*
X57385000Y-62255061D01*
X57385000Y-62458939D01*
X57424774Y-62658898D01*
X57502795Y-62847256D01*
X57616063Y-63016774D01*
X57760226Y-63160937D01*
X57929744Y-63274205D01*
X58118102Y-63352226D01*
X58318061Y-63392000D01*
X58521939Y-63392000D01*
X58721898Y-63352226D01*
X58910256Y-63274205D01*
X59079774Y-63160937D01*
X59123711Y-63117000D01*
X59284155Y-63117000D01*
X59372208Y-63224292D01*
X59505836Y-63333958D01*
X59658291Y-63415447D01*
X59692000Y-63425673D01*
X59692001Y-65067151D01*
X59688324Y-65104483D01*
X59692001Y-65141816D01*
X59702998Y-65253469D01*
X59711057Y-65280037D01*
X59746454Y-65396729D01*
X59817026Y-65528759D01*
X59888201Y-65615485D01*
X59912000Y-65644484D01*
X59940998Y-65668282D01*
X64133334Y-69860618D01*
X63910595Y-70083357D01*
X63831243Y-70180048D01*
X63772278Y-70290362D01*
X63735968Y-70410060D01*
X63723708Y-70534542D01*
X63735968Y-70659024D01*
X63772278Y-70778722D01*
X63831243Y-70889036D01*
X63910595Y-70985727D01*
X64971255Y-72046387D01*
X65003074Y-72072500D01*
X64971255Y-72098613D01*
X63910595Y-73159273D01*
X63831243Y-73255964D01*
X63772278Y-73366278D01*
X63735968Y-73485976D01*
X63723708Y-73610458D01*
X63735968Y-73734940D01*
X63772278Y-73854638D01*
X63831243Y-73964952D01*
X63910595Y-74061643D01*
X64299503Y-74450551D01*
X64396194Y-74529903D01*
X64396674Y-74530159D01*
X64396929Y-74530637D01*
X64476281Y-74627328D01*
X64865189Y-75016236D01*
X64961880Y-75095588D01*
X64962358Y-75095844D01*
X64962614Y-75096322D01*
X65041966Y-75193013D01*
X65068189Y-75219236D01*
X64914744Y-75282795D01*
X64745226Y-75396063D01*
X64601063Y-75540226D01*
X64487795Y-75709744D01*
X64409774Y-75898102D01*
X64370000Y-76098061D01*
X64370000Y-76233750D01*
X63643352Y-76233750D01*
X62949172Y-75539571D01*
X62949172Y-75032550D01*
X62932228Y-74860515D01*
X62882047Y-74695091D01*
X62800558Y-74542636D01*
X62690892Y-74409008D01*
X62557264Y-74299342D01*
X62404809Y-74217853D01*
X62239385Y-74167672D01*
X62067350Y-74150728D01*
X61579850Y-74150728D01*
X61407815Y-74167672D01*
X61242391Y-74217853D01*
X61089936Y-74299342D01*
X60956308Y-74409008D01*
X60951092Y-74415364D01*
X60887285Y-74337615D01*
X60790594Y-74258263D01*
X60680280Y-74199298D01*
X60560582Y-74162988D01*
X60436100Y-74150728D01*
X60234350Y-74153800D01*
X60075600Y-74312550D01*
X60075600Y-75361800D01*
X60095600Y-75361800D01*
X60095600Y-75615800D01*
X60075600Y-75615800D01*
X60075600Y-76665050D01*
X60234350Y-76823800D01*
X60436100Y-76826872D01*
X60560582Y-76814612D01*
X60680280Y-76778302D01*
X60790594Y-76719337D01*
X60887285Y-76639985D01*
X60951092Y-76562236D01*
X60956308Y-76568592D01*
X61089936Y-76678258D01*
X61242391Y-76759747D01*
X61407815Y-76809928D01*
X61579850Y-76826872D01*
X62067350Y-76826872D01*
X62085120Y-76825122D01*
X62451093Y-77191095D01*
X54600810Y-77191095D01*
X54600810Y-76188800D01*
X58823028Y-76188800D01*
X58835288Y-76313282D01*
X58871598Y-76432980D01*
X58930563Y-76543294D01*
X59009915Y-76639985D01*
X59106606Y-76719337D01*
X59216920Y-76778302D01*
X59336618Y-76814612D01*
X59461100Y-76826872D01*
X59662850Y-76823800D01*
X59821600Y-76665050D01*
X59821600Y-75615800D01*
X58984850Y-75615800D01*
X58826100Y-75774550D01*
X58823028Y-76188800D01*
X54600810Y-76188800D01*
X54600810Y-74788800D01*
X58823028Y-74788800D01*
X58826100Y-75203050D01*
X58984850Y-75361800D01*
X59821600Y-75361800D01*
X59821600Y-74312550D01*
X59662850Y-74153800D01*
X59461100Y-74150728D01*
X59336618Y-74162988D01*
X59216920Y-74199298D01*
X59106606Y-74258263D01*
X59009915Y-74337615D01*
X58930563Y-74434306D01*
X58871598Y-74544620D01*
X58835288Y-74664318D01*
X58823028Y-74788800D01*
X54600810Y-74788800D01*
X54600810Y-69624725D01*
X54604486Y-69587400D01*
X54600810Y-69550075D01*
X54600810Y-69550067D01*
X54589813Y-69438414D01*
X54546356Y-69295153D01*
X54475784Y-69163124D01*
X54380811Y-69047399D01*
X54351814Y-69023602D01*
X52626800Y-67298589D01*
X52626800Y-66939001D01*
X52717729Y-66848072D01*
X53224750Y-66848072D01*
X53396785Y-66831128D01*
X53562209Y-66780947D01*
X53714664Y-66699458D01*
X53848292Y-66589792D01*
X53957958Y-66456164D01*
X54039447Y-66303709D01*
X54089628Y-66138285D01*
X54106572Y-65966250D01*
X54106572Y-65478750D01*
X54089628Y-65306715D01*
X54039447Y-65141291D01*
X53957958Y-64988836D01*
X53848292Y-64855208D01*
X53762744Y-64785000D01*
X53848292Y-64714792D01*
X53957958Y-64581164D01*
X54039447Y-64428709D01*
X54089628Y-64263285D01*
X54106572Y-64091250D01*
X54106572Y-63603750D01*
X54089628Y-63431715D01*
X54039447Y-63266291D01*
X53957958Y-63113836D01*
X53848292Y-62980208D01*
X53714664Y-62870542D01*
X53562209Y-62789053D01*
X53396785Y-62738872D01*
X53224750Y-62721928D01*
X52717730Y-62721928D01*
X52258500Y-62262699D01*
X52258500Y-60111072D01*
X52612000Y-60111072D01*
X52736482Y-60098812D01*
X52761266Y-60091294D01*
X52780639Y-60097404D01*
X52880250Y-60108000D01*
X53039000Y-59949250D01*
X53039000Y-59944033D01*
X53063185Y-59924185D01*
X53142537Y-59827494D01*
X53201502Y-59717180D01*
X53237812Y-59597482D01*
X53250072Y-59473000D01*
X53250072Y-58201000D01*
X53285000Y-58201000D01*
X53285000Y-58221000D01*
X53309000Y-58221000D01*
X53309000Y-58475000D01*
X53285000Y-58475000D01*
X53285000Y-59949250D01*
X53443750Y-60108000D01*
X53543361Y-60097404D01*
X53662652Y-60059779D01*
X53772311Y-59999604D01*
X53868123Y-59919193D01*
X53946406Y-59821634D01*
X54002123Y-59714578D01*
X54156866Y-59903134D01*
X54382986Y-60088706D01*
X54640966Y-60226599D01*
X54920889Y-60311513D01*
X55212000Y-60340185D01*
X55503110Y-60311513D01*
X55783033Y-60226599D01*
X56041013Y-60088706D01*
X56267134Y-59903134D01*
X56452706Y-59677014D01*
X56590599Y-59419034D01*
X56675513Y-59139111D01*
X56676262Y-59131500D01*
X67241928Y-59131500D01*
X67254188Y-59255982D01*
X67290498Y-59375680D01*
X67349463Y-59485994D01*
X67428815Y-59582685D01*
X67525506Y-59662037D01*
X67635820Y-59721002D01*
X67755518Y-59757312D01*
X67880000Y-59769572D01*
X68294250Y-59766500D01*
X68453000Y-59607750D01*
X68453000Y-58771000D01*
X67403750Y-58771000D01*
X67245000Y-58929750D01*
X67241928Y-59131500D01*
X56676262Y-59131500D01*
X56697000Y-58920950D01*
X56697000Y-57775050D01*
X56675513Y-57556889D01*
X56590599Y-57276966D01*
X56452706Y-57018986D01*
X56267134Y-56792866D01*
X56041014Y-56607294D01*
X55972000Y-56570405D01*
X55972000Y-55625594D01*
X56041013Y-55588706D01*
X56267134Y-55403134D01*
X56452706Y-55177014D01*
X56590599Y-54919034D01*
X56675513Y-54639111D01*
X56697000Y-54420950D01*
X56697000Y-53275050D01*
X56675513Y-53056889D01*
X56590599Y-52776966D01*
X56565495Y-52730000D01*
X83942739Y-52730000D01*
X83852733Y-66680951D01*
X83852733Y-66680951D01*
G37*
X83852733Y-66680951D02*
X83401327Y-66680951D01*
X83437205Y-66627256D01*
X83515226Y-66438898D01*
X83555000Y-66238939D01*
X83555000Y-66035061D01*
X83515226Y-65835102D01*
X83437205Y-65646744D01*
X83323937Y-65477226D01*
X83179774Y-65333063D01*
X83010256Y-65219795D01*
X82821898Y-65141774D01*
X82621939Y-65102000D01*
X82418061Y-65102000D01*
X82218102Y-65141774D01*
X82029744Y-65219795D01*
X81860226Y-65333063D01*
X81841289Y-65352000D01*
X81665328Y-65352000D01*
X81597792Y-65269708D01*
X81591436Y-65264492D01*
X81669185Y-65200685D01*
X81748537Y-65103994D01*
X81807502Y-64993680D01*
X81843812Y-64873982D01*
X81856072Y-64749500D01*
X81853000Y-64547750D01*
X81694250Y-64389000D01*
X80645000Y-64389000D01*
X80645000Y-64409000D01*
X80391000Y-64409000D01*
X80391000Y-64389000D01*
X79341750Y-64389000D01*
X79337540Y-64393210D01*
X74352862Y-64393210D01*
X74314307Y-64389413D01*
X74275751Y-64393210D01*
X74275746Y-64393210D01*
X74235333Y-64397190D01*
X74160420Y-64404568D01*
X74103717Y-64421769D01*
X74049143Y-64416394D01*
X73924661Y-64428654D01*
X73804963Y-64464964D01*
X73694649Y-64523929D01*
X73597958Y-64603281D01*
X72537298Y-65663941D01*
X72457946Y-65760632D01*
X72398981Y-65870946D01*
X72362671Y-65990644D01*
X72350411Y-66115126D01*
X72362671Y-66239608D01*
X72370295Y-66264741D01*
X72370295Y-66394963D01*
X72457364Y-66468532D01*
X72457946Y-66469620D01*
X72537298Y-66566311D01*
X72926206Y-66955219D01*
X73022897Y-67034571D01*
X73023375Y-67034827D01*
X73023631Y-67035305D01*
X73102983Y-67131996D01*
X73491891Y-67520904D01*
X73588582Y-67600256D01*
X73589062Y-67600512D01*
X73589317Y-67600990D01*
X73668669Y-67697681D01*
X74057577Y-68086589D01*
X74154268Y-68165941D01*
X74154746Y-68166196D01*
X74155002Y-68166676D01*
X74234354Y-68263367D01*
X74623262Y-68652275D01*
X74719953Y-68731627D01*
X74720433Y-68731883D01*
X74720688Y-68732361D01*
X74800040Y-68829052D01*
X75188948Y-69217960D01*
X75285639Y-69297312D01*
X75286117Y-69297567D01*
X75286373Y-69298047D01*
X75365725Y-69394738D01*
X75754633Y-69783646D01*
X75851324Y-69862998D01*
X75851804Y-69863254D01*
X75852059Y-69863732D01*
X75931411Y-69960423D01*
X76320319Y-70349331D01*
X76417010Y-70428683D01*
X76417488Y-70428938D01*
X76417744Y-70429418D01*
X76497096Y-70526109D01*
X76886004Y-70915017D01*
X76982695Y-70994369D01*
X76983173Y-70994625D01*
X76983429Y-70995103D01*
X77062781Y-71091794D01*
X77451689Y-71480702D01*
X77548380Y-71560054D01*
X77548860Y-71560310D01*
X77549115Y-71560788D01*
X77628467Y-71657479D01*
X78017375Y-72046387D01*
X78049194Y-72072500D01*
X78017375Y-72098613D01*
X77628467Y-72487521D01*
X77549115Y-72584212D01*
X77548535Y-72585297D01*
X77461463Y-72658868D01*
X77461463Y-72789094D01*
X77453840Y-72814224D01*
X77441580Y-72938706D01*
X77452984Y-73054500D01*
X77337189Y-73043096D01*
X77212707Y-73055356D01*
X77187574Y-73062980D01*
X77057351Y-73062980D01*
X76983782Y-73150050D01*
X76982695Y-73150631D01*
X76886004Y-73229983D01*
X76497096Y-73618891D01*
X76417744Y-73715582D01*
X76417488Y-73716062D01*
X76417010Y-73716317D01*
X76320319Y-73795669D01*
X75931411Y-74184577D01*
X75852059Y-74281268D01*
X75851804Y-74281746D01*
X75851324Y-74282002D01*
X75754633Y-74361354D01*
X75365725Y-74750262D01*
X75286373Y-74846953D01*
X75286117Y-74847433D01*
X75285639Y-74847688D01*
X75188948Y-74927040D01*
X74800040Y-75315948D01*
X74720688Y-75412639D01*
X74720433Y-75413117D01*
X74719953Y-75413373D01*
X74623262Y-75492725D01*
X74234354Y-75881633D01*
X74155002Y-75978324D01*
X74154746Y-75978804D01*
X74154268Y-75979059D01*
X74057577Y-76058411D01*
X73668669Y-76447319D01*
X73589317Y-76544010D01*
X73589062Y-76544488D01*
X73588582Y-76544744D01*
X73491891Y-76624096D01*
X73102983Y-77013004D01*
X73023631Y-77109695D01*
X73023050Y-77110782D01*
X72935980Y-77184351D01*
X72935980Y-77314574D01*
X72928356Y-77339707D01*
X72916096Y-77464189D01*
X72927500Y-77579984D01*
X72811706Y-77568580D01*
X72687224Y-77580840D01*
X72662094Y-77588463D01*
X72531868Y-77588463D01*
X72458297Y-77675535D01*
X72457212Y-77676115D01*
X72360521Y-77755467D01*
X71971613Y-78144375D01*
X71945500Y-78176194D01*
X71919387Y-78144375D01*
X71530479Y-77755467D01*
X71433788Y-77676115D01*
X71433310Y-77675860D01*
X71433054Y-77675380D01*
X71353702Y-77578689D01*
X70964794Y-77189781D01*
X70868103Y-77110429D01*
X70867625Y-77110173D01*
X70867369Y-77109695D01*
X70788017Y-77013004D01*
X70399109Y-76624096D01*
X70302418Y-76544744D01*
X70301938Y-76544488D01*
X70301683Y-76544010D01*
X70222331Y-76447319D01*
X69833423Y-76058411D01*
X69736732Y-75979059D01*
X69735647Y-75978479D01*
X69662076Y-75891407D01*
X69531850Y-75891407D01*
X69506720Y-75883784D01*
X69382238Y-75871524D01*
X69266443Y-75882928D01*
X69277847Y-75767133D01*
X69265587Y-75642651D01*
X69257964Y-75617521D01*
X69257964Y-75487295D01*
X69170892Y-75413724D01*
X69170312Y-75412639D01*
X69090960Y-75315948D01*
X68702052Y-74927040D01*
X68605361Y-74847688D01*
X68604883Y-74847433D01*
X68604627Y-74846953D01*
X68525275Y-74750262D01*
X68136367Y-74361354D01*
X68039676Y-74282002D01*
X68039196Y-74281746D01*
X68038941Y-74281268D01*
X67959589Y-74184577D01*
X67570681Y-73795669D01*
X67473990Y-73716317D01*
X67473512Y-73716062D01*
X67473256Y-73715582D01*
X67393904Y-73618891D01*
X67004996Y-73229983D01*
X66908305Y-73150631D01*
X66907827Y-73150375D01*
X66907571Y-73149897D01*
X66828219Y-73053206D01*
X66439311Y-72664298D01*
X66342620Y-72584946D01*
X66342140Y-72584690D01*
X66341885Y-72584212D01*
X66262533Y-72487521D01*
X65873625Y-72098613D01*
X65841806Y-72072500D01*
X65873625Y-72046387D01*
X66262533Y-71657479D01*
X66341885Y-71560788D01*
X66342140Y-71560310D01*
X66342620Y-71560054D01*
X66439311Y-71480702D01*
X66828219Y-71091794D01*
X66907571Y-70995103D01*
X66907827Y-70994625D01*
X66908305Y-70994369D01*
X67004996Y-70915017D01*
X67393904Y-70526109D01*
X67473256Y-70429418D01*
X67473838Y-70428330D01*
X67560907Y-70354761D01*
X67560907Y-70224539D01*
X67568531Y-70199406D01*
X67580791Y-70074924D01*
X67569387Y-69959129D01*
X67685182Y-69970533D01*
X67809664Y-69958273D01*
X67834797Y-69950649D01*
X67965019Y-69950649D01*
X68038588Y-69863580D01*
X68039676Y-69862998D01*
X68136367Y-69783646D01*
X68525275Y-69394738D01*
X68604627Y-69298047D01*
X68604883Y-69297567D01*
X68605361Y-69297312D01*
X68702052Y-69217960D01*
X69090960Y-68829052D01*
X69170312Y-68732361D01*
X69170567Y-68731883D01*
X69171047Y-68731627D01*
X69267738Y-68652275D01*
X69656646Y-68263367D01*
X69735998Y-68166676D01*
X69736254Y-68166196D01*
X69736732Y-68165941D01*
X69833423Y-68086589D01*
X70222331Y-67697681D01*
X70301683Y-67600990D01*
X70301938Y-67600512D01*
X70302418Y-67600256D01*
X70399109Y-67520904D01*
X70788017Y-67131996D01*
X70867369Y-67035305D01*
X70867625Y-67034827D01*
X70868103Y-67034571D01*
X70964794Y-66955219D01*
X71353702Y-66566311D01*
X71433054Y-66469620D01*
X71433310Y-66469140D01*
X71433788Y-66468885D01*
X71530479Y-66389533D01*
X71919387Y-66000625D01*
X71946513Y-65967572D01*
X71966183Y-65990851D01*
X72190690Y-65990851D01*
X72967977Y-65213564D01*
X72526565Y-64772153D01*
X72302059Y-64772153D01*
X71973890Y-65095988D01*
X71945564Y-65130152D01*
X71919387Y-65098255D01*
X71189173Y-64368041D01*
X72706171Y-64368041D01*
X72706171Y-64592547D01*
X73147582Y-65033959D01*
X73924869Y-64256672D01*
X73924869Y-64032165D01*
X73835276Y-63956464D01*
X73724666Y-63898055D01*
X73604787Y-63862349D01*
X73480245Y-63850715D01*
X73355826Y-63863602D01*
X73236313Y-63900515D01*
X73126297Y-63960034D01*
X73030006Y-64039872D01*
X72706171Y-64368041D01*
X71189173Y-64368041D01*
X70858727Y-64037595D01*
X70762036Y-63958243D01*
X70651722Y-63899278D01*
X70532024Y-63862968D01*
X70407542Y-63850708D01*
X70283060Y-63862968D01*
X70163362Y-63899278D01*
X70053048Y-63958243D01*
X69956357Y-64037595D01*
X69567449Y-64426503D01*
X69488097Y-64523194D01*
X69487841Y-64523674D01*
X69487363Y-64523929D01*
X69390672Y-64603281D01*
X69001764Y-64992189D01*
X68922412Y-65088880D01*
X68922156Y-65089358D01*
X68921678Y-65089614D01*
X68824987Y-65168966D01*
X68436079Y-65557874D01*
X68356727Y-65654565D01*
X68356472Y-65655043D01*
X68355992Y-65655299D01*
X68259301Y-65734651D01*
X67943000Y-66050952D01*
X67943000Y-65619801D01*
X69788301Y-63774500D01*
X79179928Y-63774500D01*
X79183000Y-63976250D01*
X79341750Y-64135000D01*
X80391000Y-64135000D01*
X80391000Y-63298250D01*
X80645000Y-63298250D01*
X80645000Y-64135000D01*
X81694250Y-64135000D01*
X81853000Y-63976250D01*
X81856072Y-63774500D01*
X81843812Y-63650018D01*
X81807502Y-63530320D01*
X81748537Y-63420006D01*
X81669185Y-63323315D01*
X81572494Y-63243963D01*
X81462180Y-63184998D01*
X81342482Y-63148688D01*
X81218000Y-63136428D01*
X80803750Y-63139500D01*
X80645000Y-63298250D01*
X80391000Y-63298250D01*
X80232250Y-63139500D01*
X79818000Y-63136428D01*
X79693518Y-63148688D01*
X79573820Y-63184998D01*
X79463506Y-63243963D01*
X79366815Y-63323315D01*
X79287463Y-63420006D01*
X79228498Y-63530320D01*
X79192188Y-63650018D01*
X79179928Y-63774500D01*
X69788301Y-63774500D01*
X73777730Y-59785072D01*
X74741000Y-59785072D01*
X74865482Y-59772812D01*
X74985180Y-59736502D01*
X75095494Y-59677537D01*
X75192185Y-59598185D01*
X75271537Y-59501494D01*
X75330502Y-59391180D01*
X75356038Y-59307000D01*
X76133677Y-59307000D01*
X76153542Y-59344164D01*
X76263208Y-59477792D01*
X76396836Y-59587458D01*
X76549291Y-59668947D01*
X76714715Y-59719128D01*
X76886750Y-59736072D01*
X77799250Y-59736072D01*
X77971285Y-59719128D01*
X78136709Y-59668947D01*
X78289164Y-59587458D01*
X78422792Y-59477792D01*
X78532458Y-59344164D01*
X78613947Y-59191709D01*
X78664128Y-59026285D01*
X78681072Y-58854250D01*
X78681072Y-58366750D01*
X78664128Y-58194715D01*
X78613947Y-58029291D01*
X78532458Y-57876836D01*
X78422792Y-57743208D01*
X78416436Y-57737992D01*
X78494185Y-57674185D01*
X78573537Y-57577494D01*
X78632502Y-57467180D01*
X78668812Y-57347482D01*
X78681072Y-57223000D01*
X78678000Y-57021250D01*
X78519250Y-56862500D01*
X77470000Y-56862500D01*
X77470000Y-56882500D01*
X77216000Y-56882500D01*
X77216000Y-56862500D01*
X76166750Y-56862500D01*
X76008000Y-57021250D01*
X76004928Y-57223000D01*
X76017188Y-57347482D01*
X76053498Y-57467180D01*
X76112463Y-57577494D01*
X76191815Y-57674185D01*
X76269564Y-57737992D01*
X76263208Y-57743208D01*
X76227269Y-57787000D01*
X75356038Y-57787000D01*
X75330502Y-57702820D01*
X75327391Y-57697000D01*
X75330502Y-57691180D01*
X75366812Y-57571482D01*
X75379072Y-57447000D01*
X75376000Y-57132750D01*
X75217250Y-56974000D01*
X74168000Y-56974000D01*
X74168000Y-56994000D01*
X73914000Y-56994000D01*
X73914000Y-56974000D01*
X73894000Y-56974000D01*
X73894000Y-56720000D01*
X73914000Y-56720000D01*
X73914000Y-55770750D01*
X74168000Y-55770750D01*
X74168000Y-56720000D01*
X75217250Y-56720000D01*
X75376000Y-56561250D01*
X75379062Y-56248000D01*
X76004928Y-56248000D01*
X76008000Y-56449750D01*
X76166750Y-56608500D01*
X77216000Y-56608500D01*
X77216000Y-55771750D01*
X77470000Y-55771750D01*
X77470000Y-56608500D01*
X78519250Y-56608500D01*
X78678000Y-56449750D01*
X78681072Y-56248000D01*
X78668812Y-56123518D01*
X78632502Y-56003820D01*
X78573537Y-55893506D01*
X78494185Y-55796815D01*
X78397494Y-55717463D01*
X78287180Y-55658498D01*
X78167482Y-55622188D01*
X78043000Y-55609928D01*
X77628750Y-55613000D01*
X77470000Y-55771750D01*
X77216000Y-55771750D01*
X77057250Y-55613000D01*
X76643000Y-55609928D01*
X76518518Y-55622188D01*
X76398820Y-55658498D01*
X76288506Y-55717463D01*
X76191815Y-55796815D01*
X76112463Y-55893506D01*
X76053498Y-56003820D01*
X76017188Y-56123518D01*
X76004928Y-56248000D01*
X75379062Y-56248000D01*
X75379072Y-56247000D01*
X75366812Y-56122518D01*
X75330502Y-56002820D01*
X75271537Y-55892506D01*
X75192185Y-55795815D01*
X75095494Y-55716463D01*
X74985180Y-55657498D01*
X74865482Y-55621188D01*
X74741000Y-55608928D01*
X74326750Y-55612000D01*
X74168000Y-55770750D01*
X73914000Y-55770750D01*
X73755250Y-55612000D01*
X73341000Y-55608928D01*
X73216518Y-55621188D01*
X73096820Y-55657498D01*
X72986506Y-55716463D01*
X72941000Y-55753809D01*
X72895494Y-55716463D01*
X72785180Y-55657498D01*
X72665482Y-55621188D01*
X72541000Y-55608928D01*
X71141000Y-55608928D01*
X71016518Y-55621188D01*
X70896820Y-55657498D01*
X70786506Y-55716463D01*
X70689815Y-55795815D01*
X70610463Y-55892506D01*
X70551498Y-56002820D01*
X70549623Y-56009000D01*
X69747845Y-56009000D01*
X69659792Y-55901708D01*
X69526164Y-55792042D01*
X69373709Y-55710553D01*
X69208285Y-55660372D01*
X69036250Y-55643428D01*
X68123750Y-55643428D01*
X67951715Y-55660372D01*
X67786291Y-55710553D01*
X67633836Y-55792042D01*
X67500208Y-55901708D01*
X67390542Y-56035336D01*
X67309053Y-56187791D01*
X67258872Y-56353215D01*
X67241928Y-56525250D01*
X67241928Y-57012750D01*
X67258872Y-57184785D01*
X67309053Y-57350209D01*
X67390542Y-57502664D01*
X67500208Y-57636292D01*
X67506564Y-57641508D01*
X67428815Y-57705315D01*
X67349463Y-57802006D01*
X67290498Y-57912320D01*
X67254188Y-58032018D01*
X67241928Y-58156500D01*
X67245000Y-58358250D01*
X67403750Y-58517000D01*
X68453000Y-58517000D01*
X68453000Y-58497000D01*
X68707000Y-58497000D01*
X68707000Y-58517000D01*
X68727000Y-58517000D01*
X68727000Y-58771000D01*
X68707000Y-58771000D01*
X68707000Y-59607750D01*
X68845010Y-59745760D01*
X68845011Y-61931777D01*
X66221993Y-64554796D01*
X66192989Y-64578599D01*
X66147927Y-64633508D01*
X66098016Y-64694324D01*
X66060239Y-64764999D01*
X66027444Y-64826354D01*
X65983987Y-64969615D01*
X65972990Y-65081268D01*
X65972990Y-65081278D01*
X65969314Y-65118600D01*
X65972990Y-65155923D01*
X65972991Y-67954029D01*
X65969314Y-67991361D01*
X65972991Y-68028694D01*
X65983988Y-68140347D01*
X65987945Y-68153391D01*
X65995620Y-68178693D01*
X65986450Y-68271801D01*
X65997854Y-68387596D01*
X65974324Y-68385279D01*
X64539000Y-66949956D01*
X64539000Y-63418089D01*
X64547709Y-63415447D01*
X64700164Y-63333958D01*
X64833792Y-63224292D01*
X64943458Y-63090664D01*
X65024947Y-62938209D01*
X65075128Y-62772785D01*
X65092072Y-62600750D01*
X65092072Y-62113250D01*
X65075128Y-61941215D01*
X65024947Y-61775791D01*
X64943458Y-61623336D01*
X64833792Y-61489708D01*
X64827436Y-61484492D01*
X64905185Y-61420685D01*
X64984537Y-61323994D01*
X65043502Y-61213680D01*
X65079812Y-61093982D01*
X65092072Y-60969500D01*
X65089000Y-60767750D01*
X64930250Y-60609000D01*
X63881000Y-60609000D01*
X63881000Y-60629000D01*
X63627000Y-60629000D01*
X63627000Y-60609000D01*
X63607000Y-60609000D01*
X63607000Y-60355000D01*
X63627000Y-60355000D01*
X63627000Y-59518250D01*
X63881000Y-59518250D01*
X63881000Y-60355000D01*
X64930250Y-60355000D01*
X65089000Y-60196250D01*
X65092072Y-59994500D01*
X65079812Y-59870018D01*
X65043502Y-59750320D01*
X64984537Y-59640006D01*
X64905185Y-59543315D01*
X64808494Y-59463963D01*
X64698180Y-59404998D01*
X64578482Y-59368688D01*
X64454000Y-59356428D01*
X64039750Y-59359500D01*
X63881000Y-59518250D01*
X63627000Y-59518250D01*
X63468250Y-59359500D01*
X63054000Y-59356428D01*
X62929518Y-59368688D01*
X62809820Y-59404998D01*
X62744907Y-59439696D01*
X62731024Y-59425813D01*
X62561506Y-59312545D01*
X62373148Y-59234524D01*
X62173189Y-59194750D01*
X61969311Y-59194750D01*
X61769352Y-59234524D01*
X61580994Y-59312545D01*
X61411476Y-59425813D01*
X61355208Y-59482081D01*
X61245709Y-59423553D01*
X61080285Y-59373372D01*
X60908250Y-59356428D01*
X59995750Y-59356428D01*
X59823715Y-59373372D01*
X59658291Y-59423553D01*
X59505836Y-59505042D01*
X59372208Y-59614708D01*
X59262542Y-59748336D01*
X59181053Y-59900791D01*
X59130872Y-60066215D01*
X59113928Y-60238250D01*
X59113928Y-60725750D01*
X59130872Y-60897785D01*
X59181053Y-61063209D01*
X59262542Y-61215664D01*
X59372208Y-61349292D01*
X59457756Y-61419500D01*
X59372208Y-61489708D01*
X59284155Y-61597000D01*
X59123711Y-61597000D01*
X59079774Y-61553063D01*
X58910256Y-61439795D01*
X58721898Y-61361774D01*
X58521939Y-61322000D01*
X58318061Y-61322000D01*
X58118102Y-61361774D01*
X57929744Y-61439795D01*
X57760226Y-61553063D01*
X57616063Y-61697226D01*
X57502795Y-61866744D01*
X57424774Y-62055102D01*
X57385000Y-62255061D01*
X57385000Y-62458939D01*
X57424774Y-62658898D01*
X57502795Y-62847256D01*
X57616063Y-63016774D01*
X57760226Y-63160937D01*
X57929744Y-63274205D01*
X58118102Y-63352226D01*
X58318061Y-63392000D01*
X58521939Y-63392000D01*
X58721898Y-63352226D01*
X58910256Y-63274205D01*
X59079774Y-63160937D01*
X59123711Y-63117000D01*
X59284155Y-63117000D01*
X59372208Y-63224292D01*
X59505836Y-63333958D01*
X59658291Y-63415447D01*
X59692000Y-63425673D01*
X59692001Y-65067151D01*
X59688324Y-65104483D01*
X59692001Y-65141816D01*
X59702998Y-65253469D01*
X59711057Y-65280037D01*
X59746454Y-65396729D01*
X59817026Y-65528759D01*
X59888201Y-65615485D01*
X59912000Y-65644484D01*
X59940998Y-65668282D01*
X64133334Y-69860618D01*
X63910595Y-70083357D01*
X63831243Y-70180048D01*
X63772278Y-70290362D01*
X63735968Y-70410060D01*
X63723708Y-70534542D01*
X63735968Y-70659024D01*
X63772278Y-70778722D01*
X63831243Y-70889036D01*
X63910595Y-70985727D01*
X64971255Y-72046387D01*
X65003074Y-72072500D01*
X64971255Y-72098613D01*
X63910595Y-73159273D01*
X63831243Y-73255964D01*
X63772278Y-73366278D01*
X63735968Y-73485976D01*
X63723708Y-73610458D01*
X63735968Y-73734940D01*
X63772278Y-73854638D01*
X63831243Y-73964952D01*
X63910595Y-74061643D01*
X64299503Y-74450551D01*
X64396194Y-74529903D01*
X64396674Y-74530159D01*
X64396929Y-74530637D01*
X64476281Y-74627328D01*
X64865189Y-75016236D01*
X64961880Y-75095588D01*
X64962358Y-75095844D01*
X64962614Y-75096322D01*
X65041966Y-75193013D01*
X65068189Y-75219236D01*
X64914744Y-75282795D01*
X64745226Y-75396063D01*
X64601063Y-75540226D01*
X64487795Y-75709744D01*
X64409774Y-75898102D01*
X64370000Y-76098061D01*
X64370000Y-76233750D01*
X63643352Y-76233750D01*
X62949172Y-75539571D01*
X62949172Y-75032550D01*
X62932228Y-74860515D01*
X62882047Y-74695091D01*
X62800558Y-74542636D01*
X62690892Y-74409008D01*
X62557264Y-74299342D01*
X62404809Y-74217853D01*
X62239385Y-74167672D01*
X62067350Y-74150728D01*
X61579850Y-74150728D01*
X61407815Y-74167672D01*
X61242391Y-74217853D01*
X61089936Y-74299342D01*
X60956308Y-74409008D01*
X60951092Y-74415364D01*
X60887285Y-74337615D01*
X60790594Y-74258263D01*
X60680280Y-74199298D01*
X60560582Y-74162988D01*
X60436100Y-74150728D01*
X60234350Y-74153800D01*
X60075600Y-74312550D01*
X60075600Y-75361800D01*
X60095600Y-75361800D01*
X60095600Y-75615800D01*
X60075600Y-75615800D01*
X60075600Y-76665050D01*
X60234350Y-76823800D01*
X60436100Y-76826872D01*
X60560582Y-76814612D01*
X60680280Y-76778302D01*
X60790594Y-76719337D01*
X60887285Y-76639985D01*
X60951092Y-76562236D01*
X60956308Y-76568592D01*
X61089936Y-76678258D01*
X61242391Y-76759747D01*
X61407815Y-76809928D01*
X61579850Y-76826872D01*
X62067350Y-76826872D01*
X62085120Y-76825122D01*
X62451093Y-77191095D01*
X54600810Y-77191095D01*
X54600810Y-76188800D01*
X58823028Y-76188800D01*
X58835288Y-76313282D01*
X58871598Y-76432980D01*
X58930563Y-76543294D01*
X59009915Y-76639985D01*
X59106606Y-76719337D01*
X59216920Y-76778302D01*
X59336618Y-76814612D01*
X59461100Y-76826872D01*
X59662850Y-76823800D01*
X59821600Y-76665050D01*
X59821600Y-75615800D01*
X58984850Y-75615800D01*
X58826100Y-75774550D01*
X58823028Y-76188800D01*
X54600810Y-76188800D01*
X54600810Y-74788800D01*
X58823028Y-74788800D01*
X58826100Y-75203050D01*
X58984850Y-75361800D01*
X59821600Y-75361800D01*
X59821600Y-74312550D01*
X59662850Y-74153800D01*
X59461100Y-74150728D01*
X59336618Y-74162988D01*
X59216920Y-74199298D01*
X59106606Y-74258263D01*
X59009915Y-74337615D01*
X58930563Y-74434306D01*
X58871598Y-74544620D01*
X58835288Y-74664318D01*
X58823028Y-74788800D01*
X54600810Y-74788800D01*
X54600810Y-69624725D01*
X54604486Y-69587400D01*
X54600810Y-69550075D01*
X54600810Y-69550067D01*
X54589813Y-69438414D01*
X54546356Y-69295153D01*
X54475784Y-69163124D01*
X54380811Y-69047399D01*
X54351814Y-69023602D01*
X52626800Y-67298589D01*
X52626800Y-66939001D01*
X52717729Y-66848072D01*
X53224750Y-66848072D01*
X53396785Y-66831128D01*
X53562209Y-66780947D01*
X53714664Y-66699458D01*
X53848292Y-66589792D01*
X53957958Y-66456164D01*
X54039447Y-66303709D01*
X54089628Y-66138285D01*
X54106572Y-65966250D01*
X54106572Y-65478750D01*
X54089628Y-65306715D01*
X54039447Y-65141291D01*
X53957958Y-64988836D01*
X53848292Y-64855208D01*
X53762744Y-64785000D01*
X53848292Y-64714792D01*
X53957958Y-64581164D01*
X54039447Y-64428709D01*
X54089628Y-64263285D01*
X54106572Y-64091250D01*
X54106572Y-63603750D01*
X54089628Y-63431715D01*
X54039447Y-63266291D01*
X53957958Y-63113836D01*
X53848292Y-62980208D01*
X53714664Y-62870542D01*
X53562209Y-62789053D01*
X53396785Y-62738872D01*
X53224750Y-62721928D01*
X52717730Y-62721928D01*
X52258500Y-62262699D01*
X52258500Y-60111072D01*
X52612000Y-60111072D01*
X52736482Y-60098812D01*
X52761266Y-60091294D01*
X52780639Y-60097404D01*
X52880250Y-60108000D01*
X53039000Y-59949250D01*
X53039000Y-59944033D01*
X53063185Y-59924185D01*
X53142537Y-59827494D01*
X53201502Y-59717180D01*
X53237812Y-59597482D01*
X53250072Y-59473000D01*
X53250072Y-58201000D01*
X53285000Y-58201000D01*
X53285000Y-58221000D01*
X53309000Y-58221000D01*
X53309000Y-58475000D01*
X53285000Y-58475000D01*
X53285000Y-59949250D01*
X53443750Y-60108000D01*
X53543361Y-60097404D01*
X53662652Y-60059779D01*
X53772311Y-59999604D01*
X53868123Y-59919193D01*
X53946406Y-59821634D01*
X54002123Y-59714578D01*
X54156866Y-59903134D01*
X54382986Y-60088706D01*
X54640966Y-60226599D01*
X54920889Y-60311513D01*
X55212000Y-60340185D01*
X55503110Y-60311513D01*
X55783033Y-60226599D01*
X56041013Y-60088706D01*
X56267134Y-59903134D01*
X56452706Y-59677014D01*
X56590599Y-59419034D01*
X56675513Y-59139111D01*
X56676262Y-59131500D01*
X67241928Y-59131500D01*
X67254188Y-59255982D01*
X67290498Y-59375680D01*
X67349463Y-59485994D01*
X67428815Y-59582685D01*
X67525506Y-59662037D01*
X67635820Y-59721002D01*
X67755518Y-59757312D01*
X67880000Y-59769572D01*
X68294250Y-59766500D01*
X68453000Y-59607750D01*
X68453000Y-58771000D01*
X67403750Y-58771000D01*
X67245000Y-58929750D01*
X67241928Y-59131500D01*
X56676262Y-59131500D01*
X56697000Y-58920950D01*
X56697000Y-57775050D01*
X56675513Y-57556889D01*
X56590599Y-57276966D01*
X56452706Y-57018986D01*
X56267134Y-56792866D01*
X56041014Y-56607294D01*
X55972000Y-56570405D01*
X55972000Y-55625594D01*
X56041013Y-55588706D01*
X56267134Y-55403134D01*
X56452706Y-55177014D01*
X56590599Y-54919034D01*
X56675513Y-54639111D01*
X56697000Y-54420950D01*
X56697000Y-53275050D01*
X56675513Y-53056889D01*
X56590599Y-52776966D01*
X56565495Y-52730000D01*
X83942739Y-52730000D01*
X83852733Y-66680951D01*
G36*
X70515188Y-57571482D02*
G01*
X70551498Y-57691180D01*
X70554609Y-57697000D01*
X70551498Y-57702820D01*
X70515188Y-57822518D01*
X70502928Y-57947000D01*
X70506000Y-58261250D01*
X70664750Y-58420000D01*
X71714000Y-58420000D01*
X71714000Y-58400000D01*
X71968000Y-58400000D01*
X71968000Y-58420000D01*
X71988000Y-58420000D01*
X71988000Y-58674000D01*
X71968000Y-58674000D01*
X71968000Y-58694000D01*
X71714000Y-58694000D01*
X71714000Y-58674000D01*
X70664750Y-58674000D01*
X70506000Y-58832750D01*
X70502928Y-59147000D01*
X70515188Y-59271482D01*
X70551498Y-59391180D01*
X70610463Y-59501494D01*
X70689815Y-59598185D01*
X70786506Y-59677537D01*
X70896820Y-59736502D01*
X71016518Y-59772812D01*
X71141000Y-59785072D01*
X71555250Y-59782000D01*
X71713998Y-59623252D01*
X71713998Y-59699200D01*
X70365010Y-61048188D01*
X70365010Y-58201982D01*
X70368686Y-58164659D01*
X70365010Y-58127336D01*
X70365010Y-58127327D01*
X70354013Y-58015674D01*
X70310556Y-57872413D01*
X70278907Y-57813202D01*
X70239984Y-57740383D01*
X70168809Y-57653657D01*
X70145011Y-57624659D01*
X70116014Y-57600862D01*
X70044152Y-57529000D01*
X70511004Y-57529000D01*
X70515188Y-57571482D01*
X70515188Y-57571482D01*
G37*
X70515188Y-57571482D02*
X70551498Y-57691180D01*
X70554609Y-57697000D01*
X70551498Y-57702820D01*
X70515188Y-57822518D01*
X70502928Y-57947000D01*
X70506000Y-58261250D01*
X70664750Y-58420000D01*
X71714000Y-58420000D01*
X71714000Y-58400000D01*
X71968000Y-58400000D01*
X71968000Y-58420000D01*
X71988000Y-58420000D01*
X71988000Y-58674000D01*
X71968000Y-58674000D01*
X71968000Y-58694000D01*
X71714000Y-58694000D01*
X71714000Y-58674000D01*
X70664750Y-58674000D01*
X70506000Y-58832750D01*
X70502928Y-59147000D01*
X70515188Y-59271482D01*
X70551498Y-59391180D01*
X70610463Y-59501494D01*
X70689815Y-59598185D01*
X70786506Y-59677537D01*
X70896820Y-59736502D01*
X71016518Y-59772812D01*
X71141000Y-59785072D01*
X71555250Y-59782000D01*
X71713998Y-59623252D01*
X71713998Y-59699200D01*
X70365010Y-61048188D01*
X70365010Y-58201982D01*
X70368686Y-58164659D01*
X70365010Y-58127336D01*
X70365010Y-58127327D01*
X70354013Y-58015674D01*
X70310556Y-57872413D01*
X70278907Y-57813202D01*
X70239984Y-57740383D01*
X70168809Y-57653657D01*
X70145011Y-57624659D01*
X70116014Y-57600862D01*
X70044152Y-57529000D01*
X70511004Y-57529000D01*
X70515188Y-57571482D01*
M02*
