G04 #@! TF.GenerationSoftware,KiCad,Pcbnew,(5.1.4)-1*
G04 #@! TF.CreationDate,2023-01-01T19:50:54-03:00*
G04 #@! TF.ProjectId,osukeypad-pcb,6f73756b-6579-4706-9164-2d7063622e6b,rev?*
G04 #@! TF.SameCoordinates,Original*
G04 #@! TF.FileFunction,Legend,Bot*
G04 #@! TF.FilePolarity,Positive*
%FSLAX46Y46*%
G04 Gerber Fmt 4.6, Leading zero omitted, Abs format (unit mm)*
G04 Created by KiCad (PCBNEW (5.1.4)-1) date 2023-01-01 19:50:54*
%MOMM*%
%LPD*%
G04 APERTURE LIST*
%ADD10C,0.120000*%
%ADD11C,0.150000*%
G04 APERTURE END LIST*
D10*
X63257500Y-80942922D02*
X63257500Y-81460078D01*
X61837500Y-80942922D02*
X61837500Y-81460078D01*
X74941000Y-59347000D02*
X70941000Y-59347000D01*
X74941000Y-56047000D02*
X74941000Y-59347000D01*
D11*
X47712000Y-53848000D02*
X47712000Y-59298000D01*
X55412000Y-53848000D02*
X55412000Y-59298000D01*
X47712000Y-59298000D02*
X55412000Y-59298000D01*
X71538914Y-78984469D02*
X70637352Y-79886030D01*
X79264055Y-72072500D02*
X78786758Y-72549797D01*
X71945500Y-64753945D02*
X71468203Y-65231242D01*
X64626945Y-72072500D02*
X65104242Y-71595203D01*
X71945500Y-79391055D02*
X72422797Y-78913758D01*
X64626945Y-72072500D02*
X65104242Y-72549797D01*
X71945500Y-64753945D02*
X72422797Y-65231242D01*
X79264055Y-72072500D02*
X78786758Y-71595203D01*
X71945500Y-79391055D02*
X71538914Y-78984469D01*
X53665500Y-80466500D02*
X48465500Y-80466500D01*
X48465500Y-80466500D02*
X48465500Y-85666500D01*
X48465500Y-85666500D02*
X53665500Y-85666500D01*
X53665500Y-85666500D02*
X53665500Y-80466500D01*
X52065500Y-83066500D02*
G75*
G03X52065500Y-83066500I-1000000J0D01*
G01*
D10*
X80189000Y-79682078D02*
X80189000Y-79164922D01*
X81609000Y-79682078D02*
X81609000Y-79164922D01*
X61162000Y-61160922D02*
X61162000Y-61678078D01*
X59742000Y-61160922D02*
X59742000Y-61678078D01*
X52058500Y-65043578D02*
X52058500Y-64526422D01*
X53478500Y-65043578D02*
X53478500Y-64526422D01*
X48693000Y-65107078D02*
X48693000Y-64589922D01*
X50113000Y-65107078D02*
X50113000Y-64589922D01*
X44683000Y-71090064D02*
X44683000Y-69885936D01*
X46503000Y-71090064D02*
X46503000Y-69885936D01*
X121650000Y-83148000D02*
X121650000Y-79248000D01*
X119650000Y-83148000D02*
X119650000Y-79248000D01*
X121650000Y-83148000D02*
X119650000Y-83148000D01*
X121650000Y-64098000D02*
X121650000Y-60198000D01*
X119650000Y-64098000D02*
X119650000Y-60198000D01*
X121650000Y-64098000D02*
X119650000Y-64098000D01*
X102600000Y-83150000D02*
X102600000Y-79250000D01*
X100600000Y-83150000D02*
X100600000Y-79250000D01*
X102600000Y-83150000D02*
X100600000Y-83150000D01*
X102600000Y-64100000D02*
X102600000Y-60200000D01*
X100600000Y-64100000D02*
X100600000Y-60200000D01*
X102600000Y-64100000D02*
X100600000Y-64100000D01*
X61144678Y-76198800D02*
X60627522Y-76198800D01*
X61144678Y-74778800D02*
X60627522Y-74778800D01*
X72600078Y-85863500D02*
X72082922Y-85863500D01*
X72600078Y-84443500D02*
X72082922Y-84443500D01*
X69290000Y-57447922D02*
X69290000Y-57965078D01*
X67870000Y-57447922D02*
X67870000Y-57965078D01*
X76633000Y-57931578D02*
X76633000Y-57414422D01*
X78053000Y-57931578D02*
X78053000Y-57414422D01*
X79808000Y-65458078D02*
X79808000Y-64940922D01*
X81228000Y-65458078D02*
X81228000Y-64940922D01*
X63044000Y-61678078D02*
X63044000Y-61160922D01*
X64464000Y-61678078D02*
X64464000Y-61160922D01*
D11*
X61254642Y-81034833D02*
X61302261Y-80987214D01*
X61349880Y-80844357D01*
X61349880Y-80749119D01*
X61302261Y-80606261D01*
X61207023Y-80511023D01*
X61111785Y-80463404D01*
X60921309Y-80415785D01*
X60778452Y-80415785D01*
X60587976Y-80463404D01*
X60492738Y-80511023D01*
X60397500Y-80606261D01*
X60349880Y-80749119D01*
X60349880Y-80844357D01*
X60397500Y-80987214D01*
X60445119Y-81034833D01*
X60445119Y-81415785D02*
X60397500Y-81463404D01*
X60349880Y-81558642D01*
X60349880Y-81796738D01*
X60397500Y-81891976D01*
X60445119Y-81939595D01*
X60540357Y-81987214D01*
X60635595Y-81987214D01*
X60778452Y-81939595D01*
X61349880Y-81368166D01*
X61349880Y-81987214D01*
X73417190Y-55223190D02*
X73417190Y-55699380D01*
X73750523Y-54699380D02*
X73417190Y-55223190D01*
X73083857Y-54699380D01*
X72226714Y-55699380D02*
X72798142Y-55699380D01*
X72512428Y-55699380D02*
X72512428Y-54699380D01*
X72607666Y-54842238D01*
X72702904Y-54937476D01*
X72798142Y-54985095D01*
X53300095Y-55332380D02*
X53300095Y-56141904D01*
X53252476Y-56237142D01*
X53204857Y-56284761D01*
X53109619Y-56332380D01*
X52919142Y-56332380D01*
X52823904Y-56284761D01*
X52776285Y-56237142D01*
X52728666Y-56141904D01*
X52728666Y-55332380D01*
X52300095Y-56284761D02*
X52157238Y-56332380D01*
X51919142Y-56332380D01*
X51823904Y-56284761D01*
X51776285Y-56237142D01*
X51728666Y-56141904D01*
X51728666Y-56046666D01*
X51776285Y-55951428D01*
X51823904Y-55903809D01*
X51919142Y-55856190D01*
X52109619Y-55808571D01*
X52204857Y-55760952D01*
X52252476Y-55713333D01*
X52300095Y-55618095D01*
X52300095Y-55522857D01*
X52252476Y-55427619D01*
X52204857Y-55380000D01*
X52109619Y-55332380D01*
X51871523Y-55332380D01*
X51728666Y-55380000D01*
X50966761Y-55808571D02*
X50823904Y-55856190D01*
X50776285Y-55903809D01*
X50728666Y-55999047D01*
X50728666Y-56141904D01*
X50776285Y-56237142D01*
X50823904Y-56284761D01*
X50919142Y-56332380D01*
X51300095Y-56332380D01*
X51300095Y-55332380D01*
X50966761Y-55332380D01*
X50871523Y-55380000D01*
X50823904Y-55427619D01*
X50776285Y-55522857D01*
X50776285Y-55618095D01*
X50823904Y-55713333D01*
X50871523Y-55760952D01*
X50966761Y-55808571D01*
X51300095Y-55808571D01*
X49776285Y-56332380D02*
X50347714Y-56332380D01*
X50062000Y-56332380D02*
X50062000Y-55332380D01*
X50157238Y-55475238D01*
X50252476Y-55570476D01*
X50347714Y-55618095D01*
X77364968Y-76414472D02*
X77937388Y-76986892D01*
X77971060Y-77087907D01*
X77971060Y-77155251D01*
X77937388Y-77256266D01*
X77802701Y-77390953D01*
X77701686Y-77424625D01*
X77634342Y-77424625D01*
X77533327Y-77390953D01*
X76960907Y-76818533D01*
X76960907Y-78232747D02*
X77364968Y-77828686D01*
X77162938Y-78030716D02*
X76455831Y-77323610D01*
X76624190Y-77357281D01*
X76758877Y-77357281D01*
X76859892Y-77323610D01*
X52398833Y-87535261D02*
X52255976Y-87582880D01*
X52017880Y-87582880D01*
X51922642Y-87535261D01*
X51875023Y-87487642D01*
X51827404Y-87392404D01*
X51827404Y-87297166D01*
X51875023Y-87201928D01*
X51922642Y-87154309D01*
X52017880Y-87106690D01*
X52208357Y-87059071D01*
X52303595Y-87011452D01*
X52351214Y-86963833D01*
X52398833Y-86868595D01*
X52398833Y-86773357D01*
X52351214Y-86678119D01*
X52303595Y-86630500D01*
X52208357Y-86582880D01*
X51970261Y-86582880D01*
X51827404Y-86630500D01*
X51494071Y-86582880D02*
X51255976Y-87582880D01*
X51065500Y-86868595D01*
X50875023Y-87582880D01*
X50636928Y-86582880D01*
X49732166Y-87582880D02*
X50303595Y-87582880D01*
X50017880Y-87582880D02*
X50017880Y-86582880D01*
X50113119Y-86725738D01*
X50208357Y-86820976D01*
X50303595Y-86868595D01*
X83001380Y-79256833D02*
X82525190Y-78923500D01*
X83001380Y-78685404D02*
X82001380Y-78685404D01*
X82001380Y-79066357D01*
X82049000Y-79161595D01*
X82096619Y-79209214D01*
X82191857Y-79256833D01*
X82334714Y-79256833D01*
X82429952Y-79209214D01*
X82477571Y-79161595D01*
X82525190Y-79066357D01*
X82525190Y-78685404D01*
X82334714Y-80113976D02*
X83001380Y-80113976D01*
X81953761Y-79875880D02*
X82668047Y-79637785D01*
X82668047Y-80256833D01*
X59254380Y-61252833D02*
X58778190Y-60919500D01*
X59254380Y-60681404D02*
X58254380Y-60681404D01*
X58254380Y-61062357D01*
X58302000Y-61157595D01*
X58349619Y-61205214D01*
X58444857Y-61252833D01*
X58587714Y-61252833D01*
X58682952Y-61205214D01*
X58730571Y-61157595D01*
X58778190Y-61062357D01*
X58778190Y-60681404D01*
X58254380Y-61586166D02*
X58254380Y-62205214D01*
X58635333Y-61871880D01*
X58635333Y-62014738D01*
X58682952Y-62109976D01*
X58730571Y-62157595D01*
X58825809Y-62205214D01*
X59063904Y-62205214D01*
X59159142Y-62157595D01*
X59206761Y-62109976D01*
X59254380Y-62014738D01*
X59254380Y-61729023D01*
X59206761Y-61633785D01*
X59159142Y-61586166D01*
X54870880Y-64618333D02*
X54394690Y-64285000D01*
X54870880Y-64046904D02*
X53870880Y-64046904D01*
X53870880Y-64427857D01*
X53918500Y-64523095D01*
X53966119Y-64570714D01*
X54061357Y-64618333D01*
X54204214Y-64618333D01*
X54299452Y-64570714D01*
X54347071Y-64523095D01*
X54394690Y-64427857D01*
X54394690Y-64046904D01*
X53966119Y-64999285D02*
X53918500Y-65046904D01*
X53870880Y-65142142D01*
X53870880Y-65380238D01*
X53918500Y-65475476D01*
X53966119Y-65523095D01*
X54061357Y-65570714D01*
X54156595Y-65570714D01*
X54299452Y-65523095D01*
X54870880Y-64951666D01*
X54870880Y-65570714D01*
X51505380Y-64681833D02*
X51029190Y-64348500D01*
X51505380Y-64110404D02*
X50505380Y-64110404D01*
X50505380Y-64491357D01*
X50553000Y-64586595D01*
X50600619Y-64634214D01*
X50695857Y-64681833D01*
X50838714Y-64681833D01*
X50933952Y-64634214D01*
X50981571Y-64586595D01*
X51029190Y-64491357D01*
X51029190Y-64110404D01*
X51505380Y-65634214D02*
X51505380Y-65062785D01*
X51505380Y-65348500D02*
X50505380Y-65348500D01*
X50648238Y-65253261D01*
X50743476Y-65158023D01*
X50791095Y-65062785D01*
X47341571Y-70154666D02*
X47341571Y-69821333D01*
X47865380Y-69821333D02*
X46865380Y-69821333D01*
X46865380Y-70297523D01*
X47865380Y-71202285D02*
X47865380Y-70630857D01*
X47865380Y-70916571D02*
X46865380Y-70916571D01*
X47008238Y-70821333D01*
X47103476Y-70726095D01*
X47151095Y-70630857D01*
X123102380Y-80159904D02*
X122102380Y-80159904D01*
X122102380Y-80398000D01*
X122150000Y-80540857D01*
X122245238Y-80636095D01*
X122340476Y-80683714D01*
X122530952Y-80731333D01*
X122673809Y-80731333D01*
X122864285Y-80683714D01*
X122959523Y-80636095D01*
X123054761Y-80540857D01*
X123102380Y-80398000D01*
X123102380Y-80159904D01*
X122435714Y-81588476D02*
X123102380Y-81588476D01*
X122054761Y-81350380D02*
X122769047Y-81112285D01*
X122769047Y-81731333D01*
X123102380Y-61109904D02*
X122102380Y-61109904D01*
X122102380Y-61348000D01*
X122150000Y-61490857D01*
X122245238Y-61586095D01*
X122340476Y-61633714D01*
X122530952Y-61681333D01*
X122673809Y-61681333D01*
X122864285Y-61633714D01*
X122959523Y-61586095D01*
X123054761Y-61490857D01*
X123102380Y-61348000D01*
X123102380Y-61109904D01*
X122102380Y-62014666D02*
X122102380Y-62633714D01*
X122483333Y-62300380D01*
X122483333Y-62443238D01*
X122530952Y-62538476D01*
X122578571Y-62586095D01*
X122673809Y-62633714D01*
X122911904Y-62633714D01*
X123007142Y-62586095D01*
X123054761Y-62538476D01*
X123102380Y-62443238D01*
X123102380Y-62157523D01*
X123054761Y-62062285D01*
X123007142Y-62014666D01*
X104052380Y-80161904D02*
X103052380Y-80161904D01*
X103052380Y-80400000D01*
X103100000Y-80542857D01*
X103195238Y-80638095D01*
X103290476Y-80685714D01*
X103480952Y-80733333D01*
X103623809Y-80733333D01*
X103814285Y-80685714D01*
X103909523Y-80638095D01*
X104004761Y-80542857D01*
X104052380Y-80400000D01*
X104052380Y-80161904D01*
X103147619Y-81114285D02*
X103100000Y-81161904D01*
X103052380Y-81257142D01*
X103052380Y-81495238D01*
X103100000Y-81590476D01*
X103147619Y-81638095D01*
X103242857Y-81685714D01*
X103338095Y-81685714D01*
X103480952Y-81638095D01*
X104052380Y-81066666D01*
X104052380Y-81685714D01*
X104052380Y-61111904D02*
X103052380Y-61111904D01*
X103052380Y-61350000D01*
X103100000Y-61492857D01*
X103195238Y-61588095D01*
X103290476Y-61635714D01*
X103480952Y-61683333D01*
X103623809Y-61683333D01*
X103814285Y-61635714D01*
X103909523Y-61588095D01*
X104004761Y-61492857D01*
X104052380Y-61350000D01*
X104052380Y-61111904D01*
X104052380Y-62635714D02*
X104052380Y-62064285D01*
X104052380Y-62350000D02*
X103052380Y-62350000D01*
X103195238Y-62254761D01*
X103290476Y-62159523D01*
X103338095Y-62064285D01*
X61052766Y-74195942D02*
X61100385Y-74243561D01*
X61243242Y-74291180D01*
X61338480Y-74291180D01*
X61481338Y-74243561D01*
X61576576Y-74148323D01*
X61624195Y-74053085D01*
X61671814Y-73862609D01*
X61671814Y-73719752D01*
X61624195Y-73529276D01*
X61576576Y-73434038D01*
X61481338Y-73338800D01*
X61338480Y-73291180D01*
X61243242Y-73291180D01*
X61100385Y-73338800D01*
X61052766Y-73386419D01*
X60719433Y-73291180D02*
X60052766Y-73291180D01*
X60481338Y-74291180D01*
X72508166Y-83860642D02*
X72555785Y-83908261D01*
X72698642Y-83955880D01*
X72793880Y-83955880D01*
X72936738Y-83908261D01*
X73031976Y-83813023D01*
X73079595Y-83717785D01*
X73127214Y-83527309D01*
X73127214Y-83384452D01*
X73079595Y-83193976D01*
X73031976Y-83098738D01*
X72936738Y-83003500D01*
X72793880Y-82955880D01*
X72698642Y-82955880D01*
X72555785Y-83003500D01*
X72508166Y-83051119D01*
X71651023Y-82955880D02*
X71841500Y-82955880D01*
X71936738Y-83003500D01*
X71984357Y-83051119D01*
X72079595Y-83193976D01*
X72127214Y-83384452D01*
X72127214Y-83765404D01*
X72079595Y-83860642D01*
X72031976Y-83908261D01*
X71936738Y-83955880D01*
X71746261Y-83955880D01*
X71651023Y-83908261D01*
X71603404Y-83860642D01*
X71555785Y-83765404D01*
X71555785Y-83527309D01*
X71603404Y-83432071D01*
X71651023Y-83384452D01*
X71746261Y-83336833D01*
X71936738Y-83336833D01*
X72031976Y-83384452D01*
X72079595Y-83432071D01*
X72127214Y-83527309D01*
X67287142Y-57539833D02*
X67334761Y-57492214D01*
X67382380Y-57349357D01*
X67382380Y-57254119D01*
X67334761Y-57111261D01*
X67239523Y-57016023D01*
X67144285Y-56968404D01*
X66953809Y-56920785D01*
X66810952Y-56920785D01*
X66620476Y-56968404D01*
X66525238Y-57016023D01*
X66430000Y-57111261D01*
X66382380Y-57254119D01*
X66382380Y-57349357D01*
X66430000Y-57492214D01*
X66477619Y-57539833D01*
X66382380Y-58444595D02*
X66382380Y-57968404D01*
X66858571Y-57920785D01*
X66810952Y-57968404D01*
X66763333Y-58063642D01*
X66763333Y-58301738D01*
X66810952Y-58396976D01*
X66858571Y-58444595D01*
X66953809Y-58492214D01*
X67191904Y-58492214D01*
X67287142Y-58444595D01*
X67334761Y-58396976D01*
X67382380Y-58301738D01*
X67382380Y-58063642D01*
X67334761Y-57968404D01*
X67287142Y-57920785D01*
X79350142Y-57506333D02*
X79397761Y-57458714D01*
X79445380Y-57315857D01*
X79445380Y-57220619D01*
X79397761Y-57077761D01*
X79302523Y-56982523D01*
X79207285Y-56934904D01*
X79016809Y-56887285D01*
X78873952Y-56887285D01*
X78683476Y-56934904D01*
X78588238Y-56982523D01*
X78493000Y-57077761D01*
X78445380Y-57220619D01*
X78445380Y-57315857D01*
X78493000Y-57458714D01*
X78540619Y-57506333D01*
X78778714Y-58363476D02*
X79445380Y-58363476D01*
X78397761Y-58125380D02*
X79112047Y-57887285D01*
X79112047Y-58506333D01*
X82525142Y-65032833D02*
X82572761Y-64985214D01*
X82620380Y-64842357D01*
X82620380Y-64747119D01*
X82572761Y-64604261D01*
X82477523Y-64509023D01*
X82382285Y-64461404D01*
X82191809Y-64413785D01*
X82048952Y-64413785D01*
X81858476Y-64461404D01*
X81763238Y-64509023D01*
X81668000Y-64604261D01*
X81620380Y-64747119D01*
X81620380Y-64842357D01*
X81668000Y-64985214D01*
X81715619Y-65032833D01*
X81620380Y-65366166D02*
X81620380Y-65985214D01*
X82001333Y-65651880D01*
X82001333Y-65794738D01*
X82048952Y-65889976D01*
X82096571Y-65937595D01*
X82191809Y-65985214D01*
X82429904Y-65985214D01*
X82525142Y-65937595D01*
X82572761Y-65889976D01*
X82620380Y-65794738D01*
X82620380Y-65509023D01*
X82572761Y-65413785D01*
X82525142Y-65366166D01*
X65761142Y-61252833D02*
X65808761Y-61205214D01*
X65856380Y-61062357D01*
X65856380Y-60967119D01*
X65808761Y-60824261D01*
X65713523Y-60729023D01*
X65618285Y-60681404D01*
X65427809Y-60633785D01*
X65284952Y-60633785D01*
X65094476Y-60681404D01*
X64999238Y-60729023D01*
X64904000Y-60824261D01*
X64856380Y-60967119D01*
X64856380Y-61062357D01*
X64904000Y-61205214D01*
X64951619Y-61252833D01*
X65856380Y-62205214D02*
X65856380Y-61633785D01*
X65856380Y-61919500D02*
X64856380Y-61919500D01*
X64999238Y-61824261D01*
X65094476Y-61729023D01*
X65142095Y-61633785D01*
M02*
